<?xml version="1.0" encoding="utf-8"?>
<!-- Generator: Adobe Illustrator 22.0.0, SVG Export Plug-In . SVG Version: 6.00 Build 0)  -->
<svg version="1.1" id="图层_1" xmlns="http://www.w3.org/2000/svg" xmlns:xlink="http://www.w3.org/1999/xlink" x="0px" y="0px"
	 viewBox="0 0 60 60" style="enable-background:new 0 0 60 60;" xml:space="preserve">
<style type="text/css">
	.st0{fill:#F2453E;}
</style>
<path class="st0" d="M51.5,46.6h-3.3v-2.5H12.1v2.5H8.9V49H6.5v2.5h47.4V49h-2.3V46.6L51.5,46.6L51.5,46.6z M19.9,42V29.5h1.6v-1.7
	c0-1-0.9-1.8-2-1.8h-7c-1.1,0-2,0.8-2,1.8v1.7h1.7V42H19.9L19.9,42z M48.2,42V29.5h1.7v-1.6c0-1-0.9-1.8-2-1.8h-7
	c-1.1,0-2,0.8-2,1.8v1.7h1.7V42H48.2L48.2,42L48.2,42z M34,42V29.5h1.7v-1.7c0-1-0.9-1.8-2-1.8h-7c-1.1,0-2,0.8-2,1.8v1.7h1.6V42H34
	L34,42z M52.8,19.6l-21-10.6c-1.1-0.6-2.5-0.6-3.6,0l-21,10.6C5.8,20.2,5,21.6,5,23v1.2h50V23C55,21.6,54.2,20.2,52.8,19.6
	L52.8,19.6L52.8,19.6z M38.4,18.6c-0.1,0.2-0.2,0.3-0.4,0.3H22c-0.2,0-0.4-0.1-0.4-0.3c-0.1-0.2,0-0.4,0.2-0.5l6.3-3.2
	c1.1-0.6,2.5-0.6,3.7,0l6.3,3.2C38.3,18.3,38.4,18.4,38.4,18.6L38.4,18.6z"/>
</svg>
