<?xml version="1.0" encoding="utf-8"?>
<!-- Generator: Adobe Illustrator 22.0.0, SVG Export Plug-In . SVG Version: 6.00 Build 0)  -->
<svg version="1.1" id="图层_1" xmlns="http://www.w3.org/2000/svg" xmlns:xlink="http://www.w3.org/1999/xlink" x="0px" y="0px"
	 viewBox="0 0 60 60" style="enable-background:new 0 0 60 60;" xml:space="preserve">
<style type="text/css">
	.st0{fill:#FE9827;}
</style>
<path class="st0" d="M10.4,51.5h9.5v-9.6h5.7v9.6h9.5v-43H10.4V51.5L10.4,51.5z M24.5,13.6h5.7v5.6h-5.7V13.6L24.5,13.6z M24.5,22.6
	h5.7v5.6h-5.7V22.6L24.5,22.6z M24.5,31.7h5.7v5.6h-5.7V31.7L24.5,31.7z M15.3,13.6H21v5.6h-5.7V13.6L15.3,13.6z M15.3,22.6H21v5.6
	h-5.7V22.6L15.3,22.6z M15.3,31.7H21v5.6h-5.7V31.7L15.3,31.7z M37.3,12.4v30.4h3.7v8.7h8.6V12.4H37.3L37.3,12.4L37.3,12.4z
	 M45.1,38.6h-5.2v-5.1h5.2V38.6L45.1,38.6z M45.1,30.4h-5.2v-5.1h5.2V30.4L45.1,30.4z M45.1,22.1h-5.2V17h5.2V22.1L45.1,22.1z"/>
</svg>
