<?xml version="1.0" encoding="UTF-8"?>
<svg width="44px" height="38px" viewBox="0 0 44 38" version="1.1" xmlns="http://www.w3.org/2000/svg" xmlns:xlink="http://www.w3.org/1999/xlink">
    <title>tongzhi1</title>
    <g id="页面-1" stroke="none" stroke-width="1" fill="none" fill-rule="evenodd">
        <g id="tongzhi1">
            <polygon id="矩形备份-32" fill="#137EF4" transform="translate(19.000000, 19.000000) scale(-1, 1) translate(-19.000000, -19.000000) " points="0 0 38 0 38 38 0 38"></polygon>
            <path d="M33,16.2387721 L40.2596025,15.1906377 C40.8062195,15.1117177 41.3133174,15.4908609 41.3922374,16.0374779 C41.4058039,16.1314428 41.4059203,16.2268608 41.3925829,16.3208585 L40.3625808,23.58 L40.3625808,23.58 L33,16.2387721 Z" id="矩形备份-33" fill="#137EF4" transform="translate(37.290000, 19.290000) rotate(-315.000000) translate(-37.290000, -19.290000) "></path>
            <g id="公告备份-2" opacity="0.900000036" transform="translate(11.000000, 9.000000)" fill-rule="nonzero">
                <rect id="矩形" fill="#000000" opacity="0" x="0" y="0" width="20" height="20"></rect>
                <path d="M10.37,1.51 C10.5011111,1.51 10.6266667,1.56277777 10.7188889,1.65611111 C10.8116667,1.75 10.8633341,1.87666666 10.8633341,2.00944445 L10.8633341,17.9905555 C10.8635652,18.1227538 10.8116639,18.2497123 10.7188889,18.3438889 C10.6267648,18.4372205 10.5011397,18.489831 10.37,18.49 C10.3258533,18.4972751 10.2808134,18.4972751 10.2366667,18.49 L5.70888889,14.07 L5.58611111,13.9455555 L5.43277777,13.8355555 C5.05302522,13.6115174 4.61979886,13.4942372 4.17888889,13.4961111 L1.97666666,13.4961111 C1.84494154,13.49523 1.71896189,13.4420559 1.62644331,13.348287 C1.53392473,13.2545182 1.48244631,13.1278362 1.48332206,12.9961111 L1.48332206,7.00388889 C1.48332206,6.72833334 1.70388889,6.50444443 1.97666666,6.50444445 L4.17888889,6.50444445 C4.61974705,6.50648659 5.05296987,6.38939934 5.43277777,6.16555555 L5.58611111,6.075 L5.70944445,5.95055555 L10.2316667,1.51055555 C10.2776261,1.50265697 10.3245961,1.50265697 10.3705555,1.51055555 L10.37,1.51 Z M10.37,0.0116666602 C10.021626,0.0132287062 9.68028563,0.109848968 9.38277777,0.291111113 L4.69222223,4.87111111 C4.54222223,4.96055557 4.37222223,5.00888889 4.19833334,5.01111111 L1.97666666,5.01111111 C0.886111113,5.01111111 0.00166666016,5.90555557 0.00166666016,7.00833334 L0.00166666016,12.9966667 C0.00166666016,13.5261111 0.21,14.0344444 0.580555547,14.4088889 C0.949024535,14.782661 1.45180987,14.9933386 1.97666666,14.9938889 L4.17888889,14.9938889 C4.35277777,14.9961111 4.52333334,15.0438889 4.67277777,15.1338889 L9.38277777,19.7088889 C9.68055555,19.89 10.0216667,19.9866667 10.37,19.9883333 C11.4605555,19.9883333 12.345,19.0938889 12.345,17.9905555 L12.345,2.00944445 C12.3444445,0.905555547 11.4605555,0.0111111133 10.37,0.0111111133 L10.37,0.0116666602 Z M17.035,9.00111111 L14.5666667,9.00111111 C14.3690332,9.00213907 14.1799197,9.08171239 14.0410061,9.22229344 C13.9020924,9.36287449 13.824781,9.5529239 13.8260942,9.75055555 C13.8249291,9.94809127 13.9023059,10.1379978 14.0412036,10.2784584 C14.1801013,10.4189191 14.3691301,10.4984161 14.5666667,10.4994445 L17.035,10.4994445 C17.2326331,10.4985631 17.4218046,10.4191308 17.5608223,10.2786542 C17.69984,10.1381775 17.777293,9.94818707 17.776128,9.75055555 C17.7774411,9.55282809 17.7000537,9.36269469 17.5610199,9.22209762 C17.4219862,9.08150054 17.23273,9.00199201 17.035,9.00111111 L17.035,9.00111111 Z M16.8672222,3.38330815 C16.7394445,3.38444445 16.6133333,3.41888889 16.5022222,3.48333334 L14.3594445,4.73166666 C14.0677778,4.90166666 13.9261111,5.24833332 14.0138889,5.57722223 C14.1022222,5.90555557 14.3983333,6.13277777 14.7344445,6.13002519 C14.8627778,6.12888889 14.9883333,6.09444445 15.1,6.03 L17.2427778,4.78166666 C17.5344444,4.61166666 17.6761111,4.265 17.5877778,3.93611111 C17.5,3.60777777 17.2038889,3.38055557 16.8672222,3.38330815 Z M14.7344445,13.371659 C14.3963374,13.3701425 14.099996,13.5974823 14.0138889,13.9244445 C13.9253724,14.2519623 14.0668786,14.5982202 14.3594445,14.77 L16.5022222,16.0183333 C16.6133333,16.0827778 16.7394445,16.1172222 16.8672222,16.118341 C17.2053292,16.1198575 17.5016707,15.8925177 17.5877778,15.5655555 C17.6763956,15.2381668 17.5351321,14.8919461 17.2427778,14.72 L15.1,13.4966667 C14.9888252,13.4323321 14.8628862,13.3978807 14.7344445,13.3966667 L14.7344445,13.371659 L14.7344445,13.371659 Z" id="形状" fill="#FFFFFF"></path>
            </g>
        </g>
    </g>
</svg>