<?xml version="1.0" encoding="UTF-8"?>
<svg width="43px" height="38px" viewBox="0 0 43 38" version="1.1" xmlns="http://www.w3.org/2000/svg" xmlns:xlink="http://www.w3.org/1999/xlink">
    <title>yaowen1</title>
    <g id="页面-1" stroke="none" stroke-width="1" fill="none" fill-rule="evenodd">
        <g id="yaowen1">
            <polygon id="矩形备份-28" fill="#137EF4" transform="translate(19.000000, 19.000000) scale(-1, 1) translate(-19.000000, -19.000000) " points="0 0 38 0 38 38 0 38"></polygon>
            <g id="符号-新闻-线性备份-6" opacity="0.900000036" transform="translate(8.000000, 8.000000)" fill-rule="nonzero">
                <rect id="矩形" fill="#000000" opacity="0" x="0" y="0" width="22" height="22"></rect>
                <path d="M19.2396875,5.5 L17.865375,5.5 L17.865375,6.875 L18.552875,6.875 C18.9325708,6.875 19.240375,7.18280423 19.240375,7.5625 L19.240375,17.1875 C19.2441591,17.3709702 19.1729421,17.5480458 19.0431815,17.6778065 C18.9134208,17.8075671 18.7363452,17.8787841 18.552875,17.875 L10.993125,17.875 C10.993125,18.6343915 11.6087335,19.25 12.368125,19.25 L19.239,19.25 C19.9983915,19.25 20.614,18.6343915 20.614,17.875 L20.614,6.875 C20.614,6.11560847 19.9983915,5.5 19.239,5.5 L19.2396875,5.5 Z" id="路径" fill="#FFFFFF"></path>
                <path d="M16.605875,2.75 L2.644125,2.75 C1.942875,2.75 1.375,3.3653125 1.375,4.125 L1.375,17.875 C1.375,18.6346875 1.9435625,19.25 2.644125,19.25 L16.605875,19.25 C17.307125,19.25 17.875,18.6346875 17.875,17.875 L17.875,4.125 C17.875,3.760625 17.7409375,3.41 17.50375,3.152875 C17.274013,2.89846971 16.9479643,2.75228416 16.6051875,2.75 L16.605875,2.75 Z M16.4993125,17.17375 C16.4993125,17.556 16.2215625,17.868125 15.8736875,17.875 L3.375625,17.875 C3.02775,17.868125 2.75,17.556 2.75,17.17375 L2.75,4.79875 C2.76375,4.4275 3.037375,4.131875 3.375625,4.125 L15.874375,4.125 C16.22225,4.131875 16.5,4.444 16.5,4.82625 L16.5,17.17375 L16.4993125,17.17375 Z" id="形状" fill="#FFFFFF"></path>
                <path d="M9.620875,6.1875 L4.123625,6.1875 L4.123625,10.3125 L9.620875,10.3125 L9.620875,6.1875 Z M8.2465625,8.9375 L5.4979375,8.9375 L5.4979375,7.5625 L8.2465625,7.5625 L8.2465625,8.9375 Z M4.123625,14.4375 L15.118125,14.4375 L15.118125,15.8125 L4.123625,15.8125 L4.123625,14.4375 Z M10.9951875,6.1875 L15.118125,6.1875 L15.118125,7.5625 L10.9951875,7.5625 L10.9951875,6.1875 L10.9951875,6.1875 Z M10.9951875,8.9375 L15.118125,8.9375 L15.118125,10.3125 L10.9951875,10.3125 L10.9951875,8.9375 L10.9951875,8.9375 Z M4.123625,11.6875 L15.118125,11.6875 L15.118125,13.0625 L4.123625,13.0625 L4.123625,11.6875 Z" id="形状" fill="#FFFFFF"></path>
            </g>
            <polygon id="矩形备份-23" fill="#137EF4" transform="translate(37.585786, 19.001068) rotate(-45.000000) translate(-37.585786, -19.001068) " points="41.1715729 15.4152814 41.1715729 22.5868542 34 22.5868542"></polygon>
        </g>
    </g>
</svg>