<?xml version="1.0" encoding="utf-8"?>
<!-- Generator: Adobe Illustrator 22.0.0, SVG Export Plug-In . SVG Version: 6.00 Build 0)  -->
<svg version="1.1" id="图层_1" xmlns="http://www.w3.org/2000/svg" xmlns:xlink="http://www.w3.org/1999/xlink" x="0px" y="0px"
	 viewBox="0 0 60 60" style="enable-background:new 0 0 60 60;" xml:space="preserve">
<style type="text/css">
	.st0{fill:#1E74FB;}
</style>
<path class="st0" d="M38.8,51.3V11.5l-17.7,5.7v-1.7l19.5-7l5.9,4.9v35.4h4.1v2.6H38.8L38.8,51.3z M24.1,28.6L14.8,31v-4.1l9.3-3
	V28.6L24.1,28.6z M24.1,36.1l-9.3,1.8v-3.9l9.3-2.3V36.1L24.1,36.1z M24.1,43.8l-9.3,0.9v-3.9l9.3-1.5V43.8L24.1,43.8z M24.1,51.4
	h-9.3v-4.1l9.3-0.6V51.4L24.1,51.4z M26.7,51.4V19.9L12,24.5v27H9.3l0-28.4l19.8-6.8l5.2,3v32H26.7L26.7,51.4z"/>
</svg>
