<svg xmlns="http://www.w3.org/2000/svg" xmlns:xlink="http://www.w3.org/1999/xlink" viewBox="0 0 217.41 288.42"><defs><style>.cls-1{fill:url(#未命名的渐变_160);}.cls-2{fill:url(#未命名的渐变_28);}.cls-3{fill:url(#未命名的渐变_130);}.cls-4{fill:url(#未命名的渐变_153);}.cls-5{fill:url(#未命名的渐变_150);}.cls-6{fill:url(#未命名的渐变_150-2);}.cls-7{fill:url(#未命名的渐变_150-3);}.cls-8{fill:url(#未命名的渐变_150-4);}.cls-9{fill:url(#未命名的渐变_150-5);}.cls-10{fill:url(#未命名的渐变_150-6);}.cls-11{fill:#fff;}.cls-12{fill:url(#未命名的渐变_131);}.cls-13{fill:#231815;}</style><linearGradient id="未命名的渐变_160" x1="222.19" y1="130.72" x2="168.09" y2="88.85" gradientUnits="userSpaceOnUse"><stop offset="0" stop-color="#034483"/><stop offset="0.05" stop-color="#0c5a99"/><stop offset="0.11" stop-color="#1168a8"/><stop offset="0.15" stop-color="#136dad"/><stop offset="0.33" stop-color="#0b5897"/><stop offset="0.51" stop-color="#054988"/><stop offset="0.66" stop-color="#034483"/><stop offset="0.84" stop-color="#044685"/><stop offset="0.91" stop-color="#064c8c"/><stop offset="0.95" stop-color="#0b5897"/><stop offset="0.99" stop-color="#1168a8"/><stop offset="1" stop-color="#136dad"/></linearGradient><linearGradient id="未命名的渐变_28" x1="155.35" y1="20.79" x2="-6.96" y2="128.57" gradientUnits="userSpaceOnUse"><stop offset="0" stop-color="#034483"/><stop offset="1" stop-color="#172f63"/></linearGradient><linearGradient id="未命名的渐变_130" x1="95.2" y1="150.43" x2="193.97" y2="143.56" gradientUnits="userSpaceOnUse"><stop offset="0" stop-color="#0a3878"/><stop offset="0.79" stop-color="#136dad"/><stop offset="0.91" stop-color="#2682bd"/><stop offset="1" stop-color="#2f8cc4"/></linearGradient><linearGradient id="未命名的渐变_153" x1="177.54" y1="61.79" x2="173.03" y2="237.63" gradientUnits="userSpaceOnUse"><stop offset="0.1" stop-color="#2780ba"/><stop offset="0.63" stop-color="#063b72"/><stop offset="0.92" stop-color="#172f63"/></linearGradient><linearGradient id="未命名的渐变_150" x1="9.05" y1="264.68" x2="159.34" y2="42.25" gradientUnits="userSpaceOnUse"><stop offset="0" stop-color="#135994"/><stop offset="0.32" stop-color="#063b72"/><stop offset="0.56" stop-color="#034483"/><stop offset="0.99" stop-color="#2d89c2"/></linearGradient><linearGradient id="未命名的渐变_150-2" x1="-12.19" y1="250.32" x2="138.1" y2="27.9" xlink:href="#未命名的渐变_150"/><linearGradient id="未命名的渐变_150-3" x1="1.32" y1="259.45" x2="151.61" y2="37.02" xlink:href="#未命名的渐变_150"/><linearGradient id="未命名的渐变_150-4" x1="-4.73" y1="255.36" x2="145.56" y2="32.93" xlink:href="#未命名的渐变_150"/><linearGradient id="未命名的渐变_150-5" x1="26.17" y1="276.24" x2="176.45" y2="53.81" xlink:href="#未命名的渐变_150"/><linearGradient id="未命名的渐变_150-6" x1="2.35" y1="260.15" x2="152.64" y2="37.72" xlink:href="#未命名的渐变_150"/><linearGradient id="未命名的渐变_131" x1="68.44" y1="150.69" x2="127.7" y2="148.98" gradientUnits="userSpaceOnUse"><stop offset="0" stop-color="#0a3878"/><stop offset="0.62" stop-color="#136dad"/><stop offset="0.84" stop-color="#2682bd"/><stop offset="1" stop-color="#2f8cc4"/></linearGradient></defs><title>资源 2</title><g id="图层_2" data-name="图层 2"><g id="图层_1-2" data-name="图层 1"><path class="cls-1" d="M213.91,109.52l-3-8.63-38.48-9.1-1.49,11.27c2.14-.38,15-2.47,26.4,5.33a30,30,0,0,1,11.72,15.67,44.43,44.43,0,0,1,2.8,15,42.26,42.26,0,0,1-.2,4.6,41.24,41.24,0,0,0,1.76-7.34c.75-5.16.2-8.33.16-12.57C213.54,120.48,212.42,115.47,213.91,109.52Z"/><path d="M124.89,123.73l-.08,0h0Z"/><path class="cls-2" d="M114,48.24h0Z"/><path class="cls-3" d="M166.27,189.59c4.38-4.25,10.33-12.77,8.56-20.77q-.09-.39-.21-.78c-1.26-4.48-4.76-8.48-11.67-13.79a21.78,21.78,0,0,1-3.28,5.67c-8.7,10.77-26.87,11.33-35.07,5.29-12-8.88-11.11-36.5,4.77-68.46a73.66,73.66,0,0,0-22.13,28.08c-3.08,7-14.23,32.19-.7,53.32,1,1.54,12.31,18.6,32.87,20.07a39.82,39.82,0,0,0,20.1-3.64c.71-.46,1.39-.9,2-1.32A26.73,26.73,0,0,0,166.27,189.59Z"/><path class="cls-4" d="M216.09,116.35c-.14-8.29-3.31-15.24-8.45-21.35A41.25,41.25,0,0,0,176,80.77c-22,0-39.85,16.24-39.85,36.27a34.25,34.25,0,0,0,9.43,23.42,68.23,68.23,0,0,0,10.57,8.87c2.57,1.78,4.82,3.4,6.81,4.92,6.91,5.31,10.41,9.31,11.67,13.79a26.73,26.73,0,0,1,2.51,8.32,24,24,0,0,1,.21,3.18c0,7.74-3.56,15-9.69,21.05,1.93-1.27,3.85-2.61,5.75-4.06a63.81,63.81,0,0,0,14.31-14.92c5.29-7.77,6.45-13.38,6.78-15.24a21.38,21.38,0,0,0-4.69-19.43c-6.28-8.13-20.07-12-24.29-24.76-2.06-6.2-.74-15.1,9-19.76,13.19-6.31,25,2.24,27.74,4.27,14.47,10.77,10.33,32.8,10.33,32.8S216.28,127.16,216.09,116.35Z"/><path class="cls-5" d="M155,37.63a67.32,67.32,0,0,1,7.81,3.71h0c.16.09.32.16.47.25a91.52,91.52,0,0,1,8.64-7l-.41-.29h0a76.17,76.17,0,0,0-7.16-4.57A92.27,92.27,0,0,0,155,37.63Z"/><path class="cls-6" d="M126.07,31.41c1.48.13,2.94.3,4.4.51.92.13,1.83.3,2.75.45l1.33.22,1.19.22.63.14c.88.19,1.76.37,2.62.58h0a118.55,118.55,0,0,1,12.94-11.68h0q-2.62-1.05-5.33-2-3.47-1.17-7-2.09h0A118.74,118.74,0,0,0,126,31.4h.09Z"/><path class="cls-7" d="M171.2,20.8a91,91,0,0,0-8.52-5.57,102.34,102.34,0,0,0-9.35,6.48,83.92,83.92,0,0,1,9.56,4.58C165.56,24.33,168.34,22.49,171.2,20.8Z"/><path class="cls-8" d="M128,47.74a74.67,74.67,0,0,1,11.18,1.8A109.53,109.53,0,0,1,149.85,37.7,80.72,80.72,0,0,0,139,34.26,107.62,107.62,0,0,0,128,47.74Z"/><path class="cls-9" d="M180.89,43.79A67.83,67.83,0,0,0,175,48.44a51.85,51.85,0,0,1,4.88,4.12c1.72-1.51,3.51-2.94,5.37-4.27A58,58,0,0,0,180.89,43.79Z"/><path class="cls-10" d="M174.62,168q.12.39.21.78c1.77,8-4.18,16.52-8.56,20.77a26.73,26.73,0,0,1-4.75,3.67c-.62.42-1.3.86-2,1.32a65.82,65.82,0,0,1-15.6,7.23,79.68,79.68,0,0,1-20.36,3,70.72,70.72,0,0,1-21.84-3.45l2.23,1A103.74,103.74,0,0,1,92,197.69a113.1,113.1,0,0,1-11.37-6,106,106,0,0,1-20.26-15.95,98.69,98.69,0,0,1-15.72-20.6,81.6,81.6,0,0,1-9.16-24.37,64.15,64.15,0,0,1,.12-26.11A59.54,59.54,0,0,1,46.75,81.12,86.23,86.23,0,0,1,65.47,63.34a119.4,119.4,0,0,1,10.9-6.8,101.23,101.23,0,0,1,9.71-4.74,77.12,77.12,0,0,1,7-14.65,58.18,58.18,0,0,1,10.7-1.93,76.76,76.76,0,0,0-7.51,12.72,51.59,51.59,0,0,0-8.65,3.24A126.87,126.87,0,0,0,66.57,64.8,91,91,0,0,0,49.12,82.87a58.86,58.86,0,0,0-10,22.54A62.09,62.09,0,0,0,39.28,130a79.9,79.9,0,0,0,3.37,12,86.76,86.76,0,0,0,5.23,11.34,87.72,87.72,0,0,0,6.7,10.58,104.27,104.27,0,0,0,8,9.7,107.15,107.15,0,0,0,9.09,8.73c.47.41,1,.81,1.44,1.21A70.61,70.61,0,0,1,85.75,74.48l1-.59c.39-.24.78-.48,1.19-.71,1.12-.66,2.26-1.29,3.42-1.88.68-.35,1.36-.68,2.05-1a142.27,142.27,0,0,1,6.45-19.43A73.71,73.71,0,0,1,114,48.24h0c.87-1.49,1.78-3,2.71-4.41s1.73-2.6,2.63-3.88c.24-.35.5-.7.75-1,.69-1,1.4-1.91,2.11-2.85l.79-1c.16-.21.32-.43.49-.64.8-1,1.62-2,2.45-3h0c-2.65-.24-5.33-.37-8-.37h-.09c-1.22,0-2.44,0-3.66.08l-.51,0-.2,0q-1.16,0-2.31.12a119.17,119.17,0,0,1,13.92-16h0c.73.07,1.44.16,2.16.25l.17,0h0c.33,0,.66.07,1,.12.94.12,1.87.27,2.81.42h.07l.9.14c.94.16,1.87.35,2.8.54l.67.13.26.05c1.18.25,2.36.52,3.52.82l.13,0h0q2.87-2.44,5.88-4.69t6.18-4.32l-.29-.12h0q-1.22-.53-2.46-1h0l-.17-.07-.44-.18h0l-.06,0c-.9-.35-1.8-.69-2.71-1h0l-.33-.13h0l-.1,0-.76-.26L142,5.17h0l-.27-.08-.56-.18h0l-.14,0c-.7-.22-1.41-.44-2.12-.64h0l-.36-.09h0l0,0L138.09,4a120,120,0,0,0-13.73,11.2c-2.92-.26-5.88-.4-8.87-.4q-3.46,0-6.87.24A118.18,118.18,0,0,1,124.43,1.12c-2.34-.34-4.72-.6-7.11-.78l-.44,0c-1-.07-2.1-.13-3.16-.18l-.49,0C112.1.06,111,0,109.84,0H109C68.71-.55,37.05,27.89,37,27.89c-34.46,31-35.65,73.58-35.72,79.79C.81,151.19,26.84,191.59,63.67,209.1a106.1,106.1,0,0,0,48.18,9.9,99.71,99.71,0,0,0,12.93-1.15,121.59,121.59,0,0,0,42.87-17.26c6.13-6.09,9.69-13.31,9.69-21.05a24,24,0,0,0-.21-3.18A26.73,26.73,0,0,0,174.62,168ZM89.49,20a59.73,59.73,0,0,1,11-1.79A71.47,71.47,0,0,0,91.35,30a53.82,53.82,0,0,0-11.52,4.71A72.28,72.28,0,0,1,89.49,20Z"/><path class="cls-11" d="M101.71,201.34a122.33,122.33,0,0,1-20-11.26,102.77,102.77,0,0,1-8.58-6.5A70.58,70.58,0,0,0,101.71,201.34Z"/><path class="cls-12" d="M118.2,129.46a130.68,130.68,0,0,1,6.43-22c1.51-3.86,3.11-7.43,4.74-10.71A54.3,54.3,0,0,0,93.94,199.17a65.67,65.67,0,0,0,16.21,4.88,47.13,47.13,0,0,1-4.86-2.43,55.94,55.94,0,0,1-11.76-9.36,46.41,46.41,0,0,1-12.45-28.44c0-11.86,5.58-28.31,19.53-33.68A29.08,29.08,0,0,1,118.2,129.46Z"/><path class="cls-13" d="M6.44,286.51a.9.9,0,0,0-.4-.3,1,1,0,0,1-.49-.45,1,1,0,0,1-.06-.4,1,1,0,0,1,.09-.4q.11-.21,0-.3c0-.08-.11-.17-.26-.26a.25.25,0,0,0-.24.08,1.23,1.23,0,0,0-.34.26h0a.32.32,0,0,0-.32.22l-.24.2-.29.2a.32.32,0,0,1-.28.1.23.23,0,0,0-.26.08.09.09,0,0,1-.06,0h0a.82.82,0,0,1-.58,0,2.21,2.21,0,0,0-.41-.14l-.56-.08a.78.78,0,0,1-.36-.22l-.53-.22a.27.27,0,0,1-.23-.18c-.06-.12-.13-.24-.21-.37l0,0v0a.5.5,0,0,0,0-.33,1.94,1.94,0,0,1-.08-.29l0-.18c0-.07,0-.13,0-.2v-.06l0,0a2.37,2.37,0,0,1-.06-.57.51.51,0,0,0,0-.1l.06-.14.08-.12a.77.77,0,0,0,.1-.4.21.21,0,0,1,0-.22.71.71,0,0,0,.22-.36.18.18,0,0,1,.12-.19.37.37,0,0,0,.23-.34.59.59,0,0,1,0-.08c.16-.29.31-.59.46-.9a.59.59,0,0,0,.12-.35,1.18,1.18,0,0,0,.14-.22,1.45,1.45,0,0,0,.16-.18.89.89,0,0,0,.16-.25.94.94,0,0,1,.2-.27c.08-.14.16-.28.23-.42a1,1,0,0,1,.22-.39c.14-.09.14-.18,0-.28a.64.64,0,0,1-.15-.13.19.19,0,0,1,0-.21l.06-.14a1.38,1.38,0,0,1,.3-.38l.22-.06a.38.38,0,0,0,.36,0,.44.44,0,0,1,.48,0l.17-.17a1,1,0,0,0,.16-.1,2,2,0,0,0,.34-.14,1,1,0,0,1,.39-.21,2.52,2.52,0,0,0,.35-.13.25.25,0,0,1,.32,0,.42.42,0,0,0,.41,0,1.06,1.06,0,0,1,.56,0l.28,0,.14,0,.16.06a2.22,2.22,0,0,0,.31.1.33.33,0,0,1,.22.49.81.81,0,0,1-.29.41A.83.83,0,0,1,7,277l-.08.08-.4.32c-.17.12-.31.12-.4,0l-.18-.26a.69.69,0,0,0-.61-.3H5.05a.56.56,0,0,0-.34.12l-.32.28-.45.48v0l-.52.81a1.47,1.47,0,0,1-.1.22l-.1.16a.59.59,0,0,1,0,.14.87.87,0,0,1-.18.36,1.8,1.8,0,0,0-.26.49c0,.08-.06.15-.08.22s-.14.37-.22.54l-.06.18-.13.35a5,5,0,0,1-.06.54,1.43,1.43,0,0,1-.08.22.32.32,0,0,0-.08.3v1.43a.5.5,0,0,1,0,.13.93.93,0,0,1,0,.13.41.41,0,0,0,.59.34l.26-.08a.31.31,0,0,0,.26,0,1,1,0,0,1,.22-.07,5.93,5.93,0,0,1,.63-.22.72.72,0,0,1,.33-.21,1.78,1.78,0,0,0,.29-.13l.59-.29a1,1,0,0,0,.44-.47v-.17a.61.61,0,0,1,.12-.28c0-.08.11-.09.22,0a.27.27,0,0,0,.08.1l0,0a0,0,0,0,0,0,0,.22.22,0,0,0,.14-.28,1.53,1.53,0,0,1,.12-.6c0-.14,0-.23,0-.28a.4.4,0,0,1,0-.35.77.77,0,0,0,0-.54.14.14,0,0,0-.14-.12l-.36-.1H5.17l-.16,0-.18,0H4.19c-.06,0-.1,0-.14-.1v0a.85.85,0,0,1,.44-.16.74.74,0,0,0,.44,0,1,1,0,0,1,.48-.16l.55-.06H7l.14,0h.11l.4,0h.42a.68.68,0,0,1,.58.44,1.05,1.05,0,0,1,0,.5,1.13,1.13,0,0,1-.08.22v.08l0,.07a.11.11,0,0,1,0,.07,1.41,1.41,0,0,1-.12.59l0,.12a.3.3,0,0,1,0,.1,1.75,1.75,0,0,1-.06.6,1.88,1.88,0,0,1-.18.24.89.89,0,0,0-.18.43l-.12.18a.43.43,0,0,0-.08.27.45.45,0,0,1-.1.27c0,.1-.06.18-.08.26v.08l0,.06a1.23,1.23,0,0,1,0,.2,1.5,1.5,0,0,1-.15.42.67.67,0,0,0-.12.35.64.64,0,0,1-.08.14.8.8,0,0,0-.1.38,2.25,2.25,0,0,1-.08.24l-.08.21a1.12,1.12,0,0,1,0,.21.34.34,0,0,1-.06.15C6.65,286.64,6.55,286.66,6.44,286.51Z"/><path class="cls-13" d="M12.56,286.53l-.48-.2a2.83,2.83,0,0,1-.69-.39l-.18-.16-.58-.36-.12-.2a1.91,1.91,0,0,0-.15-.28.37.37,0,0,0-.06-.1.6.6,0,0,0-.08-.49,2.41,2.41,0,0,1,0-.66,1,1,0,0,1,.1-.4v-.18c0-.1.06-.14.17-.14a.13.13,0,0,0,.1-.14.51.51,0,0,0-.06-.28.17.17,0,0,1,0-.2,1.33,1.33,0,0,0,.11-.24c0-.09,0-.18.06-.29s.07-.27.21-.28a.48.48,0,0,0,.35-.28.86.86,0,0,0,.14-.51.37.37,0,0,1,.24-.36l.08-.06.08-.08a.7.7,0,0,0,.39-.26l.16-.06a1,1,0,0,1,.52-.14l.08,0,.42-.21a1.22,1.22,0,0,0,.24-.1h.09a1.4,1.4,0,0,0,.54,0,.2.2,0,0,0,.1,0,.73.73,0,0,0,.46.06H15l.08,0a1.14,1.14,0,0,0,.45.1h0a1.23,1.23,0,0,1,.48.48.82.82,0,0,1-.16.46.41.41,0,0,1-.32.12h-.35a1,1,0,0,0-.46-.08h-.12a.17.17,0,0,1-.18-.12.46.46,0,0,0-.09-.2s-.1,0-.21,0h-.36l-.09,0-.1,0-.46.1a.73.73,0,0,1-.26.22.15.15,0,0,1,0,.06,1.4,1.4,0,0,0-.18.48.24.24,0,0,1-.06.11l-.06.14a.51.51,0,0,0-.1.3.48.48,0,0,1,0,.3c-.05.08,0,.13.05.16s.16.09.28,0a1.75,1.75,0,0,1,.72,0l.22,0,.23,0,.3-.12.8-.44a1.77,1.77,0,0,0,.55-.35,2.79,2.79,0,0,0,.72-.4,1.56,1.56,0,0,0,.52-.34l.21-.1a.08.08,0,0,1,0,0,1.22,1.22,0,0,1-.23.6l-.12.14a.85.85,0,0,0-.29.24l-.21.29c-.07.13-.13.26-.2.38l-.1.1a1.26,1.26,0,0,1-.32.24.64.64,0,0,1-.18.06.45.45,0,0,1-.14.1,1.17,1.17,0,0,1-.59.22l-.14,0a.18.18,0,0,1-.22,0l-.22,0a.27.27,0,0,1-.24,0,.58.58,0,0,1-.37,0l-.19,0-.16,0-.12,0-.09,0a1.49,1.49,0,0,1-.43-.19q-.21-.12-.27.15a1,1,0,0,1-.06.37v.14c0,.09,0,.18,0,.26a.5.5,0,0,1,0,.12v.26c0,.08,0,.16-.05.24s0,.18.05.26v.57a.59.59,0,0,0,.14.4.21.21,0,0,0,.26.08.43.43,0,0,1,.26-.06l.34-.1.61-.28a2.49,2.49,0,0,0,.56-.32l.08,0,.48-.31.08-.06a1.13,1.13,0,0,0,.49-.32,1.86,1.86,0,0,0,.72-.94c0-.06,0-.12,0-.19a.23.23,0,0,1,.26,0l.06.07,0,.08a.25.25,0,0,1,0,.12.3.3,0,0,1,.1.24.2.2,0,0,1,0,.08.2.2,0,0,1,0,.28l-.12.12a.3.3,0,0,0,0,.24.12.12,0,0,1,0,.16,1.51,1.51,0,0,1-.44.55c-.05.08-.11.15-.16.22a1.71,1.71,0,0,1-.32.44l-.08.08a.37.37,0,0,1-.19.18l-.28.18a.13.13,0,0,1-.14.1c-.13,0-.21,0-.22.13a.5.5,0,0,1-.34.22l-.2.1a1,1,0,0,1-.57.16H13l-.14,0A.34.34,0,0,1,12.56,286.53Z"/><path class="cls-13" d="M24.37,286.35l-.3,0-.16,0-.36-.1-.45-.25a.12.12,0,0,1-.12-.08.21.21,0,0,1-.12-.28.51.51,0,0,0-.12-.3l0-.12a2,2,0,0,0-.12-.62,2.11,2.11,0,0,0,0-.25c0-.08,0-.16,0-.26a.36.36,0,0,1,0-.32,1,1,0,0,0,0-.1v-.5a.89.89,0,0,0,.06-.2v-.21a.82.82,0,0,1,.08-.38.22.22,0,0,0,0-.22V282c0-.11,0-.27,0-.5a1.85,1.85,0,0,0-.11-.69s0-.09,0-.2a.8.8,0,0,0-.66.18l-.41.24a.79.79,0,0,0-.26.43L21,282a.68.68,0,0,0-.18.36,1.49,1.49,0,0,1-.18.3l-.16.21a.29.29,0,0,1-.18.28l-.12.18a2.1,2.1,0,0,1-.43.78l0,0a4.75,4.75,0,0,1-.14.46c0,.15-.11.31-.16.47l-.12.12a.35.35,0,0,1-.06.14.3.3,0,0,1,0,.1l-.16.56a.47.47,0,0,1-.2.29h-.12l-.16-.1-.08,0a.53.53,0,0,1-.53-.19.39.39,0,0,1-.08-.34s0-.08.06-.14a.16.16,0,0,0,.12-.22.6.6,0,0,1,.12-.36l0-.1a.65.65,0,0,0,0-.13.83.83,0,0,0,0-.15l.33-.69s.06-.05.06-.12a.47.47,0,0,1,.1-.32l.24-.52a.63.63,0,0,0,.08-.49,1,1,0,0,1,.1-.42s0-.06.08-.06.15-.15.1-.24a.19.19,0,0,0,0-.08l0-.08a.3.3,0,0,0,.06-.31,1.22,1.22,0,0,1,.12-.42,1.3,1.3,0,0,0,0-.21.86.86,0,0,0,0-.23V280a.14.14,0,0,0-.06-.2l-.06-.06s0-.09,0-.14h.12a.27.27,0,0,0,.24-.09s.07-.06.17-.06a.34.34,0,0,0,.3-.06l.32-.06a.41.41,0,0,1,.22,0c.07,0,.15,0,.26.06l.18.08a.29.29,0,0,1,.22.29v.16a1.63,1.63,0,0,1-.1.66.5.5,0,0,1,0,.18h.18l.49-.28.12-.06.18-.08.34-.12a.61.61,0,0,1,.51-.16h.34a.78.78,0,0,0,.48.06.77.77,0,0,1,.58.28.48.48,0,0,1,.08.42,2.44,2.44,0,0,1-.06.39,1.66,1.66,0,0,0-.06.54,0,0,0,0,1,0,0v0a2.14,2.14,0,0,1-.32.62,2,2,0,0,1-.12.25,1.76,1.76,0,0,1-.12.2.57.57,0,0,0-.14.46.68.68,0,0,1-.22.5,2.25,2.25,0,0,0-.08.24l0,.1a.49.49,0,0,0,0,.41l0,.08v.58a.33.33,0,0,0,0,.24.57.57,0,0,0,.62.36.48.48,0,0,0,.18-.06l.16-.1a1.92,1.92,0,0,0,.29-.14l.2-.22.18-.18.16-.14.36-.36a1.24,1.24,0,0,0,.18-.22l.26-.47a.16.16,0,0,0,.06-.08.15.15,0,0,1,0,.18l-.14.35,0,.06a2.42,2.42,0,0,0-.42.62.31.31,0,0,0-.08.22l-.16.36c0,.08-.09.16-.14.24a1,1,0,0,1-.49.33Z"/><path class="cls-13" d="M27.17,288.42l-.19,0a.27.27,0,0,1-.17-.07.12.12,0,0,1,0-.18.69.69,0,0,1,.2-.34s.06-.06.06-.14,0-.15.16-.21.06,0,.06-.08a1.33,1.33,0,0,0,.06-.3l-.06-.12.06-.08a.28.28,0,0,0,.08-.2s0-.08,0-.13a.77.77,0,0,0,0-.15.47.47,0,0,1,0-.38v0a.08.08,0,0,0,0-.06,1,1,0,0,1,.06-.4v-.06a2.58,2.58,0,0,0,.1-.42.82.82,0,0,1,.08-.4v0c0-.2,0-.41,0-.61s.06-.19.08-.28v-.14a.3.3,0,0,1,0-.25A.58.58,0,0,0,28,283a.13.13,0,0,0,0-.08,1.55,1.55,0,0,0,0-.21.11.11,0,0,0,0-.08c0-.05,0-.11.05-.18a.44.44,0,0,1,.06-.32l0-.15a.68.68,0,0,1,0-.19l.12-.4a.5.5,0,0,0,0-.12.26.26,0,0,0,0-.21l0-.15a.31.31,0,0,1,0-.13,1.18,1.18,0,0,1-.07-.2c0-.07-.07-.07-.13,0l-.23,0-.38,0h-.13l-.17,0-.14,0-.26-.12a.72.72,0,0,1-.34-.16c-.1,0-.1-.09,0-.16a.23.23,0,0,1,.26,0h.41l.19,0,.12,0h.2l.19-.05a.4.4,0,0,1,.22,0l.12,0,.2,0c.16,0,.24-.08.24-.22v-.29c0-.05,0-.1,0-.16l.12-.2a1.05,1.05,0,0,0,.06-.24.59.59,0,0,0,0-.14.43.43,0,0,0,.06-.26.31.31,0,0,0,0-.08l0-.08a.79.79,0,0,0,.06-.22v-.21c0-.06,0-.13,0-.2a2.92,2.92,0,0,0,.1-.4c.06-.12.11-.25.16-.38a1.1,1.1,0,0,0,.06-.26v-.17a.37.37,0,0,1,.1-.24.09.09,0,0,0,.06,0c.05-.09.13-.12.27-.1a.22.22,0,0,0,.22,0l.16,0h.36l.22,0a.13.13,0,0,0,.08,0h.08a.48.48,0,0,1,.31.08l.14,0h.24l.08.08a.58.58,0,0,1,0,.1.24.24,0,0,1-.1.21l0,0a.62.62,0,0,1-.34,0,.36.36,0,0,0-.35,0,.68.68,0,0,0-.28.28l-.18.4a1.59,1.59,0,0,1-.08.18l-.14.38a.51.51,0,0,1,0,.1l-.2.51v0a1,1,0,0,1-.08.38,2.75,2.75,0,0,1-.1.34l0,.14-.06.14c0,.08,0,.14.1.17a.34.34,0,0,1,.28,0h.06a1.72,1.72,0,0,1,.64,0h0a.56.56,0,0,0,.3.06.19.19,0,0,1,.17.12l0,.08a.14.14,0,0,1,0,.16.38.38,0,0,1-.14.2l-.11,0-.22,0-.38.08a1.4,1.4,0,0,1-.28.06h-.1l-.12,0-.14,0h-.16a.77.77,0,0,1-.23.06.43.43,0,0,0-.14.24l0,.34a.2.2,0,0,1,0,.11l0,.12v.18a.32.32,0,0,1,0,.3.7.7,0,0,1-.1.16.26.26,0,0,0-.05.29.47.47,0,0,1,0,.35,2.41,2.41,0,0,1-.08.25.3.3,0,0,1,0,.1V283a.64.64,0,0,1-.06.18v.24a.76.76,0,0,1-.06.2v.18c0,.08,0,.16,0,.24a1,1,0,0,1,0,.17c0,.06,0,.12,0,.18l0,0a3,3,0,0,1-.06.42c0,.05,0,.1,0,.14a.42.42,0,0,0-.08.26c0,.08,0,.16,0,.24v.12c0,.06,0,.12,0,.2l-.08.08,0,.13a2.46,2.46,0,0,1,0,.26l-.1,0h-.12c-.06,0-.07.06,0,.1s0,.13,0,.19l0,.17a1.32,1.32,0,0,1-.1.46.05.05,0,0,1,0,0l-.06.37-.05.14a.13.13,0,0,1,0,.08.23.23,0,0,1-.14.24l0,0c-.06,0-.14.05-.22.16a.22.22,0,0,1-.2.08l-.13,0Z"/><path class="cls-13" d="M34.05,286.25l-.34-.13a1,1,0,0,1-.42-.26l-.28-.18c-.18-.09-.22-.21-.13-.36v-.18a.32.32,0,0,1,0-.3.21.21,0,0,0,0-.28.26.26,0,0,1,0-.19,2.16,2.16,0,0,0,.06-.38c0-.06,0-.13.05-.2l.08-.2v-.38a1.29,1.29,0,0,1,.18-.53.43.43,0,0,1,.06-.38l.06-.26v-.1a.41.41,0,0,1,0-.52l0,0a.29.29,0,0,1,0-.31.36.36,0,0,0-.32-.18h-.21l-.18,0a.15.15,0,0,0,0-.1l.18-.18.21-.14a.39.39,0,0,0,.26-.2l.16-.12.44-.22a.16.16,0,0,1,.16,0,.15.15,0,0,0,.18,0c0-.06.09-.08.18-.08h.09c.13-.1.24-.09.32,0A.21.21,0,0,1,35,280v.31l-.12.54v0c0,.07,0,.13,0,.18l-.08.17,0,0v0c0,.17-.06.34-.1.5a.82.82,0,0,1,0,.4s0,0,0,.08,0,.18-.06.2a.65.65,0,0,0,0,.13.4.4,0,0,1,0,.15.54.54,0,0,1,0,.15V283a.94.94,0,0,0-.08.36v.06a.52.52,0,0,1-.06.16v.18a.32.32,0,0,1,0,.14.73.73,0,0,0-.16.36,2.23,2.23,0,0,1,0,.23,1.67,1.67,0,0,1,0,.32s0,.07,0,.1a.91.91,0,0,0,0,.44.32.32,0,0,0,.41.14,2.86,2.86,0,0,0,.9-.5l.24-.26a1.86,1.86,0,0,0,.14-.2c.07,0,.09.06.06.14l-.12.32V285a.52.52,0,0,1-.14.54.17.17,0,0,1-.06.1.2.2,0,0,1-.14.18l-.37.21a1.46,1.46,0,0,1-.39.12l-.12,0A1.32,1.32,0,0,1,34.05,286.25Zm1.17-8.38c-.08,0-.16,0-.22-.12a.18.18,0,0,0-.18-.06l-.26,0a.64.64,0,0,0-.45-.16.29.29,0,0,1-.26-.12l-.26-.42a.52.52,0,0,0-.06-.16l.32,0,.55,0a.52.52,0,0,1,.42.16.39.39,0,0,0,.28.08l.22.06.28.14.38.2a.45.45,0,0,1,.11.3c0,.1-.06.14-.17.14H35.8a.28.28,0,0,1-.22,0A.56.56,0,0,0,35.22,277.87Z"/><path class="cls-13" d="M38,286.41l-.06-.1a.16.16,0,0,0-.18-.12h-.21l-.08-.1a.11.11,0,0,0-.06-.11l-.06-.1a.23.23,0,0,0-.12-.16l-.1-.16c0-.06,0-.1.07-.11s.09-.06.09-.17a.34.34,0,0,0,.06-.12.12.12,0,0,0,0-.16.15.15,0,0,1,0-.14.27.27,0,0,0,0-.12.4.4,0,0,1,.2-.43.22.22,0,0,0,.1-.09l.09-.11a.17.17,0,0,0,0-.18l0-.12a.69.69,0,0,1,0-.13c0-.05,0-.1,0-.15v-.06c0-.11,0-.17.08-.2a.29.29,0,0,0,.13-.19.19.19,0,0,0-.07-.17.13.13,0,0,1,.13-.09c.06,0,.08-.05.06-.13s0-.15-.07-.23a.25.25,0,0,0,0-.1l.08-.1a.16.16,0,0,0,.06-.18.59.59,0,0,0,.06-.14l0-.1a.56.56,0,0,1-.12-.38,1.1,1.1,0,0,0,0-.18v-.08c0-.13.1-.25.14-.39a.62.62,0,0,0,0-.1.49.49,0,0,0,0-.12.17.17,0,0,0,0-.18l-.09-.22c-.06-.09-.11-.11-.16,0l-.12.12-.06,0-.06,0a.6.6,0,0,1,.28-.32,1.24,1.24,0,0,0,.18-.14c.08-.06.15-.06.2,0s.19.1.24,0a.49.49,0,0,1,.32-.06h.14l.13.1c.09.12.12.21.1.28v.24c0,.12,0,.24,0,.36v.18c0,.07,0,.13,0,.18a.05.05,0,0,1,0,0v0c0,.11,0,.22,0,.33a.31.31,0,0,1,0,.1v.08l.06.06.22-.24.12-.18,0,0,.08-.07c.07,0,.1,0,.1-.12a.25.25,0,0,1,.07-.16,1,1,0,0,0,.13-.16l.26-.26.06-.1a.86.86,0,0,1,.32-.26.45.45,0,0,0,.1-.14l.17-.16a.05.05,0,0,0,.06-.06.11.11,0,0,1,.13-.09h.29a1.67,1.67,0,0,1,.5,0h.28a.23.23,0,0,1,.1,0l.21.24a.5.5,0,0,1,0,.12v.56a.5.5,0,0,1,0,.12.54.54,0,0,1-.11.18.75.75,0,0,1,0,.16.21.21,0,0,1-.16.23l-.11.05-.15.05H42l-.08,0a.18.18,0,0,0-.24,0,.24.24,0,0,1-.1-.1.37.37,0,0,1-.08-.43.56.56,0,0,1,0-.12v-.24a.08.08,0,0,0-.06-.08l-.06,0-.47.44-.3.43-.36.54a.21.21,0,0,1-.06.08.44.44,0,0,1-.18.3,3.62,3.62,0,0,1-.22.32l-.16.31-.16.26a1.79,1.79,0,0,1-.25.5.52.52,0,0,1-.1.18,1,1,0,0,1-.09.26,1.13,1.13,0,0,1-.11.22c0,.13-.09.25-.14.37l0,.1a1.45,1.45,0,0,0-.24.5v.06a.27.27,0,0,1-.1.24.48.48,0,0,0-.1.55l-.13.23A.13.13,0,0,1,38,286.41Z"/><path class="cls-13" d="M45.78,286.53l-.48-.2a2.76,2.76,0,0,1-.68-.39l-.18-.16-.59-.36-.12-.2c0-.09-.09-.19-.14-.28a.37.37,0,0,0-.06-.1.64.64,0,0,0-.08-.49,2.07,2.07,0,0,1,0-.66.85.85,0,0,1,.1-.4v-.18c0-.1,0-.14.16-.14a.12.12,0,0,0,.1-.14.51.51,0,0,0-.06-.28.17.17,0,0,1,0-.2.66.66,0,0,0,.11-.24,1.24,1.24,0,0,0,.06-.29c0-.18.07-.27.21-.28a.49.49,0,0,0,.36-.28.86.86,0,0,0,.14-.51.37.37,0,0,1,.24-.36l.08-.06.08-.08a.64.64,0,0,0,.38-.26l.16-.06a1,1,0,0,1,.53-.14l.08,0,.42-.21a1.22,1.22,0,0,0,.24-.1h.08a1.46,1.46,0,0,0,.55,0,.2.2,0,0,0,.1,0,.72.72,0,0,0,.46.06h.22a.13.13,0,0,0,.08,0,1.05,1.05,0,0,0,.44.1h0a1.19,1.19,0,0,1,.49.48.9.9,0,0,1-.16.46.42.42,0,0,1-.33.12h-.34a1,1,0,0,0-.46-.08h-.12a.16.16,0,0,1-.18-.12.46.46,0,0,0-.09-.2.39.39,0,0,0-.22,0H47l-.09,0-.09,0-.46.1a.84.84,0,0,1-.26.22l0,.06a1.08,1.08,0,0,0-.18.48.41.41,0,0,1-.07.11l-.06.14a.6.6,0,0,0-.1.3.38.38,0,0,1,0,.3c0,.08,0,.13,0,.16a.23.23,0,0,0,.29,0,1.75,1.75,0,0,1,.72,0l.21,0,.23,0,.3-.12.81-.44a1.73,1.73,0,0,0,.54-.35,3,3,0,0,0,.73-.4,1.68,1.68,0,0,0,.52-.34l.2-.1a0,0,0,0,1,0,0,1.21,1.21,0,0,1-.22.6l-.12.14a.76.76,0,0,0-.29.24,2.64,2.64,0,0,0-.21.29l-.2.38-.1.1a1.17,1.17,0,0,1-.33.24.48.48,0,0,1-.18.06.45.45,0,0,1-.14.1,1.1,1.1,0,0,1-.58.22l-.14,0a.18.18,0,0,1-.22,0l-.23,0c0,.05-.13.05-.24,0a.55.55,0,0,1-.36,0l-.19,0-.16,0-.12,0a.12.12,0,0,1-.09,0,1.54,1.54,0,0,1-.44-.19q-.21-.12-.27.15a1,1,0,0,1-.06.37v.14c0,.09,0,.18,0,.26a.5.5,0,0,1,0,.12v.26c0,.08,0,.16,0,.24s0,.18,0,.26v.57a.65.65,0,0,0,.14.4.22.22,0,0,0,.26.08.49.49,0,0,1,.27-.06l.34-.1.6-.28a2.34,2.34,0,0,0,.57-.32l.08,0,.48-.31.08-.06a1,1,0,0,0,.48-.32,1.88,1.88,0,0,0,.73-.94,1.62,1.62,0,0,1,0-.19.23.23,0,0,1,.26,0l.06.07,0,.08a.5.5,0,0,1,0,.12.3.3,0,0,1,.1.24l0,.08a.2.2,0,0,1,0,.28l-.12.12a.26.26,0,0,0,0,.24.13.13,0,0,1,0,.16,1.62,1.62,0,0,1-.44.55l-.16.22a1.75,1.75,0,0,1-.33.44l-.08.08a.39.39,0,0,1-.18.18l-.28.18a.14.14,0,0,1-.14.1c-.14,0-.21,0-.22.13a.52.52,0,0,1-.34.22l-.21.1a1,1,0,0,1-.56.16h-.52l-.14,0A.36.36,0,0,1,45.78,286.53Z"/><path class="cls-13" d="M59.23,286.39a.21.21,0,0,1-.16-.06l-.45-.06a.86.86,0,0,1-.4-.31.86.86,0,0,0-.44-.42.2.2,0,0,1-.1,0,.2.2,0,0,1,0-.24l.06-.1.08-.14.14-.26a.14.14,0,0,1,.16-.14.7.7,0,0,0,.44-.12c.06-.06.14-.06.27,0l.24-.41c0-.06,0-.14-.06-.22s-.09-.25,0-.32a.79.79,0,0,0,.24-.78v-.07c.11,0,.16-.11.16-.3a2.75,2.75,0,0,0,.1-.34,2.56,2.56,0,0,0,.11-.24.34.34,0,0,0,0-.26.39.39,0,0,1,.14-.41.18.18,0,0,0,.1-.24v-.1a.93.93,0,0,0,.14-.5,2.17,2.17,0,0,0,0-.36.37.37,0,0,1,.33-.38.13.13,0,0,0,.12-.07.22.22,0,0,0,0-.2.45.45,0,0,1,.06-.3l-.12-.28a.21.21,0,0,1,0-.22v-.34a2.13,2.13,0,0,0,0-.27l0-.1a.5.5,0,0,1,.14-.38.59.59,0,0,0,0-.14,2.26,2.26,0,0,0,0-.52.45.45,0,0,0-.27-.38l-.11,0c0-.09,0-.14.11-.14s.2,0,.2-.14a.09.09,0,0,1,.1-.1,1.1,1.1,0,0,0,.26,0l.1,0h.1a1.28,1.28,0,0,0,.45-.06.45.45,0,0,1,.34,0,.45.45,0,0,0,.34,0l.56-.2a.15.15,0,0,1,.16,0,.59.59,0,0,1,0,.14,1.21,1.21,0,0,1-.17.25.17.17,0,0,0,0,.21.25.25,0,0,1,0,.35l-.24.36a.55.55,0,0,0-.06.28v.06a.89.89,0,0,1-.14.6.29.29,0,0,1,0,.09c0,.17-.06.34-.08.52v0l0,.06a.55.55,0,0,0,0,.5l0,0-.1.1s-.06.07-.06.16a.94.94,0,0,1-.14.45.64.64,0,0,0-.11.36,2.67,2.67,0,0,1-.14.36.3.3,0,0,1,0,.14.65.65,0,0,1-.1.38l-.14.37c-.05.18-.11.37-.16.56l-.08.14-.06.1-.1.18v.2a.19.19,0,0,1,0,.08l0,.09a.59.59,0,0,0-.2.36c-.07.15-.14.29-.2.44a.37.37,0,0,0-.1.34s0,.08,0,.1l-.17.45c0,.1-.05.2-.08.3a.12.12,0,0,0,.09.13c.06,0,.1,0,.12,0a.74.74,0,0,1,.5.2.19.19,0,0,1,.1.18v0a.92.92,0,0,1,0,.23.65.65,0,0,1-.14.19.76.76,0,0,1-.55.41c-.22.08-.46.15-.7.22A.39.39,0,0,1,59.23,286.39Z"/><path class="cls-13" d="M70.34,286.35l-.3,0-.17,0-.36-.1-.44-.25a.12.12,0,0,1-.12-.08.21.21,0,0,1-.12-.28.68.68,0,0,0-.12-.3l0-.12a2.73,2.73,0,0,0-.12-.62,2.11,2.11,0,0,0,0-.25,1.78,1.78,0,0,1,0-.26.31.31,0,0,1,0-.32l0-.1v-.5l.06-.2v-.21a.72.72,0,0,1,.08-.38.22.22,0,0,0,0-.22V282c0-.11,0-.27,0-.5a2.07,2.07,0,0,0-.11-.69s0-.09,0-.2a.82.82,0,0,0-.67.18l-.4.24a.69.69,0,0,0-.26.43L67,282a.57.57,0,0,0-.18.36,2.2,2.2,0,0,1-.19.3l-.16.21a.29.29,0,0,1-.18.28l-.12.18a2,2,0,0,1-.42.78l0,0c0,.15-.09.3-.14.46s-.11.31-.16.47l-.12.12-.06.14a.3.3,0,0,1,0,.1l-.17.56a.4.4,0,0,1-.2.29H64.7l-.16-.1-.08,0a.51.51,0,0,1-.52-.19.39.39,0,0,1-.08-.34s0-.08.06-.14a.17.17,0,0,0,.12-.22.6.6,0,0,1,.12-.36l0-.1,0-.13c0-.05,0-.1,0-.15l.32-.69s.06-.05.06-.12a.53.53,0,0,1,.1-.32l.24-.52a.59.59,0,0,0,.08-.49,1,1,0,0,1,.11-.42s0-.06.08-.06.15-.15.1-.24a.19.19,0,0,0,0-.08l0-.08a.3.3,0,0,0,.06-.31,1.22,1.22,0,0,1,.12-.42,1.91,1.91,0,0,1,0-.21,1.64,1.64,0,0,0,0-.23V280a.14.14,0,0,0-.06-.2l-.06-.06a1,1,0,0,1,0-.14h.12a.27.27,0,0,0,.24-.09s.07-.06.16-.06a.33.33,0,0,0,.3-.06,1.65,1.65,0,0,0,.32-.06.45.45,0,0,1,.23,0c.06,0,.15,0,.26.06l.18.08a.3.3,0,0,1,.22.29v.16a1.63,1.63,0,0,1-.1.66.9.9,0,0,1,0,.18h.18l.48-.28.12-.06.19-.08.34-.12a.59.59,0,0,1,.5-.16h.34a.81.81,0,0,0,.49.06.79.79,0,0,1,.58.28.51.51,0,0,1,.08.42,2.44,2.44,0,0,1-.06.39,1.66,1.66,0,0,0-.06.54l0,0v0a2.42,2.42,0,0,1-.32.62,2,2,0,0,1-.12.25,1.76,1.76,0,0,1-.12.2.58.58,0,0,0-.15.46.68.68,0,0,1-.22.5,2.25,2.25,0,0,1-.08.24.23.23,0,0,1,0,.1.58.58,0,0,0,0,.41.2.2,0,0,1,0,.08v.58a.49.49,0,0,0,0,.24.59.59,0,0,0,.63.36l.18-.06.16-.1a1.83,1.83,0,0,0,.28-.14,2.19,2.19,0,0,0,.2-.22l.18-.18.16-.14.37-.36.18-.22.26-.47a.16.16,0,0,0,.06-.08.15.15,0,0,1,0,.18l-.14.35,0,.06a2,2,0,0,0-.42.62.27.27,0,0,0-.08.22l-.17.36a1.49,1.49,0,0,1-.14.24.89.89,0,0,1-.48.33Z"/><path class="cls-13" d="M79.11,286.35l-.3,0-.16,0-.36-.1-.45-.25a.12.12,0,0,1-.12-.08.21.21,0,0,1-.12-.28.51.51,0,0,0-.12-.3l0-.12a2,2,0,0,0-.12-.62,2.11,2.11,0,0,0,0-.25c0-.08,0-.16,0-.26a.36.36,0,0,1,0-.32,1,1,0,0,0,0-.1v-.5a.89.89,0,0,0,.06-.2v-.21a.82.82,0,0,1,.08-.38.22.22,0,0,0,0-.22V282a3,3,0,0,0,0-.5,1.85,1.85,0,0,0-.11-.69s0-.09,0-.2a.8.8,0,0,0-.66.18l-.41.24a.79.79,0,0,0-.26.43l-.24.46a.68.68,0,0,0-.18.36,1.49,1.49,0,0,1-.18.3l-.16.21a.29.29,0,0,1-.18.28l-.12.18a2.1,2.1,0,0,1-.43.78l0,0a4.75,4.75,0,0,1-.14.46c0,.15-.11.31-.16.47l-.12.12a.35.35,0,0,1-.06.14.3.3,0,0,1,0,.1l-.16.56a.47.47,0,0,1-.2.29h-.12l-.16-.1-.08,0a.53.53,0,0,1-.53-.19.39.39,0,0,1-.08-.34s0-.08.06-.14a.16.16,0,0,0,.12-.22.6.6,0,0,1,.12-.36l0-.1a.65.65,0,0,0,0-.13.83.83,0,0,0,0-.15l.33-.69s.06-.05.06-.12a.47.47,0,0,1,.1-.32l.24-.52a.63.63,0,0,0,.08-.49,1,1,0,0,1,.1-.42s0-.06.08-.06.15-.15.1-.24a.19.19,0,0,0,0-.08l0-.08a.3.3,0,0,0,.06-.31,1.5,1.5,0,0,1,.12-.42,1.3,1.3,0,0,0,0-.21.86.86,0,0,0,0-.23V280a.14.14,0,0,0-.06-.2l-.06-.06a.57.57,0,0,0,0-.14h.12a.27.27,0,0,0,.24-.09s.07-.06.17-.06a.34.34,0,0,0,.3-.06l.32-.06a.41.41,0,0,1,.22,0c.07,0,.15,0,.26.06l.18.08a.29.29,0,0,1,.22.29v.16a1.63,1.63,0,0,1-.1.66.5.5,0,0,1,0,.18h.19l.48-.28.12-.06.18-.08.34-.12a.61.61,0,0,1,.51-.16h.34a.79.79,0,0,0,.48.06.77.77,0,0,1,.58.28.48.48,0,0,1,.08.42,2.44,2.44,0,0,1-.06.39,1.66,1.66,0,0,0-.06.54,0,0,0,0,1,0,0v0a2.14,2.14,0,0,1-.32.62,2,2,0,0,1-.12.25,1.76,1.76,0,0,1-.12.2.57.57,0,0,0-.14.46.68.68,0,0,1-.22.5,2.25,2.25,0,0,0-.08.24l0,.1a.49.49,0,0,0,0,.41l0,.08v.58a.33.33,0,0,0,0,.24.57.57,0,0,0,.62.36.48.48,0,0,0,.18-.06l.16-.1a1.92,1.92,0,0,0,.29-.14l.2-.22.18-.18.16-.14.36-.36a1.24,1.24,0,0,0,.18-.22L81,284a.16.16,0,0,0,.06-.08.15.15,0,0,1,0,.18l-.14.35,0,.06a2.42,2.42,0,0,0-.42.62.31.31,0,0,0-.08.22l-.16.36c0,.08-.09.16-.14.24a1,1,0,0,1-.49.33Z"/><path class="cls-13" d="M84.69,286.51l-.2,0h-.21a.75.75,0,0,1-.3-.08H83.9a.65.65,0,0,1-.38-.06l-.14-.06a.35.35,0,0,1-.32-.16,1.12,1.12,0,0,1-.51-.31l-.06-.06a1.28,1.28,0,0,1-.26-.26L82,285c0-.13-.09-.27-.14-.4s0-.16-.08-.24v-.77a1.29,1.29,0,0,1,.12-.6c0-.11,0-.22.08-.35a.37.37,0,0,1,.1-.18.91.91,0,0,0,.2-.42.54.54,0,0,1,.16-.24,1.27,1.27,0,0,0,.28-.54,1.13,1.13,0,0,1,.27-.45l.3-.38a.68.68,0,0,1,.28-.3l.2-.14.44-.08.14,0,.77-.3h.66a.49.49,0,0,1,.29.12.4.4,0,0,1,.06.3.28.28,0,0,0,.27.06l.23-.1a.41.41,0,0,1,.26,0l.08,0,.08,0a.3.3,0,0,1,.22.06,1.34,1.34,0,0,1,.51.46l.22.32a.64.64,0,0,1,.14.45.63.63,0,0,0,.08.34l0,.12a4.46,4.46,0,0,1-.06.54.52.52,0,0,1,0,.14v.12a.68.68,0,0,0,0,.19c0,.06,0,.12,0,.16l0,.14,0,.18,0,.12,0,.08a.46.46,0,0,1-.12.34l-.08.2-.08.14a1.08,1.08,0,0,0-.23.57.3.3,0,0,1,0,.1,3.13,3.13,0,0,1-.2.3l-.56.64a.32.32,0,0,1-.16.14l-.44.31-.53.26-.16,0a1,1,0,0,0-.44.1Zm-.67-.79a1.23,1.23,0,0,0,.71,0l.2-.06H85l.08,0a.93.93,0,0,0,.2-.1,1.4,1.4,0,0,0,.54-.54l.06,0,.13-.06.06-.1.18-.22.12-.14.38-.73a.64.64,0,0,0,.12-.48.31.31,0,0,1,0-.26.79.79,0,0,0,.08-.53v-.26c0-.12-.09-.24-.14-.36l0-.12a.36.36,0,0,0-.2-.26,2.12,2.12,0,0,1-.48-.35.29.29,0,0,0-.45-.08.25.25,0,0,1-.28,0l-.2-.18a.15.15,0,0,1,0-.18l.24-.26a.67.67,0,0,0-.48.14l-.16.14-.16.16-.16.18a3.38,3.38,0,0,0-.45.63.76.76,0,0,0-.15.23,1.19,1.19,0,0,1-.13.25,2.84,2.84,0,0,1-.22.34l0,.12a.5.5,0,0,1-.11.26.37.37,0,0,0-.1.23,1.42,1.42,0,0,1-.05.22.46.46,0,0,1-.14.24.08.08,0,0,1,0,.06v.26a2,2,0,0,0,0,.24.31.31,0,0,1,0,.08,1.12,1.12,0,0,1,0,.45v0l.12.16a.69.69,0,0,1,.12.22.41.41,0,0,0,.12.22l.14.22A.78.78,0,0,0,84,285.72Z"/><path class="cls-13" d="M91.83,286.43h-.16l-.16,0a.39.39,0,0,1-.36-.12l-.51-.26-.12-.11-.06,0a.9.9,0,0,0-.13-.41.55.55,0,0,1-.09-.31l0-.06a.52.52,0,0,0-.06-.16v-.3a.36.36,0,0,1,0-.39v-.08a.18.18,0,0,1,0-.2q.1-.07,0-.18a2.46,2.46,0,0,0,0-.26v-.28c0-.07,0-.14,0-.2v-.22a.86.86,0,0,0,.06-.23.25.25,0,0,0,0-.1v-.36a1.72,1.72,0,0,1,.06-.54c0-.06,0-.12,0-.18a.29.29,0,0,1,0-.25.05.05,0,0,0,0,0,.73.73,0,0,1,0-.36c0-.13,0-.27-.05-.41a2.71,2.71,0,0,0-.09-.41.11.11,0,0,1,0-.16l.22-.21.06-.06a.11.11,0,0,0,.08,0l.08,0a.16.16,0,0,1,.18,0c.19,0,.31,0,.37-.14a.49.49,0,0,1,.24,0c.19,0,.28.09.28.26v1.05a1.07,1.07,0,0,0-.06.42c0,.08,0,.16,0,.23l0,0v0a1,1,0,0,1-.06.36,1.69,1.69,0,0,1,0,.23l0,.23a.59.59,0,0,1,0,.14.58.58,0,0,1-.08.44.15.15,0,0,0-.06.13v.3a3,3,0,0,0-.08.32l0,.21c0,.07,0,.14,0,.21a.29.29,0,0,0,0,.28,1.18,1.18,0,0,0,0,.2v.21l0,.19c0,.06,0,.11,0,.17a.48.48,0,0,0,.14.48c0,.11.1.13.14.06l.28-.22a.71.71,0,0,0,.1-.14l.18-.22c.12-.14.24-.28.35-.43l.36-.48.06-.06.06-.1.16-.26.16-.28.08-.12c0-.07,0-.11,0-.12s.06,0,.13,0l.1,0a0,0,0,0,0,0-.06.61.61,0,0,1,.07-.28.2.2,0,0,0,0-.21v-.12a.23.23,0,0,0,.1,0,.52.52,0,0,0,.06-.16.82.82,0,0,1,0-.38l.12-.42v-.43a.9.9,0,0,0,0-.22.17.17,0,0,0,0-.18,1.15,1.15,0,0,0-.36-.28v0a.54.54,0,0,0,.19-.27.2.2,0,0,1,.2-.15.57.57,0,0,0,.3-.1.43.43,0,0,1,.34-.08h0a.4.4,0,0,1,.5.16.44.44,0,0,1,.12.3,2.21,2.21,0,0,1,.06.34.2.2,0,0,1,0,.2.62.62,0,0,1,0,.18.12.12,0,0,1,0,.16,1.3,1.3,0,0,0-.1.49c0,.1-.05.21-.08.32a1.32,1.32,0,0,1-.1.3.24.24,0,0,1,0,.08,5.12,5.12,0,0,1-.5.87l-.18.26a.11.11,0,0,1,0,.06,2.07,2.07,0,0,1-.3.5c-.13.18-.25.34-.39.5a3.47,3.47,0,0,1-.3.37l-.08.1-.06.14a.57.57,0,0,1-.24.32,1,1,0,0,0-.07.15c0,.05,0,.09-.07.13l-.24.3a2.63,2.63,0,0,1-.47.37l-.12.08A.21.21,0,0,0,91.83,286.43Z"/><path class="cls-13" d="M97.89,286.43h-.06l-.69-.18-.3-.14-.28-.17-.08-.06-.08-.08a.73.73,0,0,0-.08-.52,1.36,1.36,0,0,0,0-.2c0-.12,0-.25,0-.38s0-.2.07-.3,0-.23.07-.35,0-.08,0-.12a9.42,9.42,0,0,1,.48-1.1,2.07,2.07,0,0,0,.1-.33l.2-.3c.06-.15.11-.3.17-.46a.24.24,0,0,1,.08-.2,1,1,0,0,0,.18-.43.49.49,0,0,1,.14-.24,1,1,0,0,0,.16-.1.87.87,0,0,0,.08-.14,1,1,0,0,1,.36-.48l.28-.2a1,1,0,0,0,.41-.06l.1,0a.72.72,0,0,0,.4-.06.77.77,0,0,1,.52-.06l.12,0a1.24,1.24,0,0,1,.63-.17.27.27,0,0,1,.38.17.86.86,0,0,1,.1.16.44.44,0,0,0,.32.28.69.69,0,0,1,.26.28v.06a.09.09,0,0,1,0,.06.65.65,0,0,1-.4.3l-.44.24-.18-.12a.28.28,0,0,1-.11-.19.36.36,0,0,0-.2-.21.4.4,0,0,0-.34,0,1,1,0,0,0-.74.36,2.12,2.12,0,0,0-.42.51l-.06.08-.43.76a1.91,1.91,0,0,1-.32.51.21.21,0,0,1-.06.1.59.59,0,0,1,0,.14l-.06.14a2,2,0,0,1-.1.26,1.12,1.12,0,0,0-.16.5l-.06.28-.06.19a.5.5,0,0,1-.1.36,1.55,1.55,0,0,0,0,.21,2.32,2.32,0,0,0,0,.24.45.45,0,0,0,.11.27H98c.25-.15.5-.3.74-.46l.53-.48a3.05,3.05,0,0,0,.52-.61.23.23,0,0,0,.08-.16,1.6,1.6,0,0,0,.18-.68.47.47,0,0,0,0-.16l.08-.25a1.06,1.06,0,0,0,0-.26.75.75,0,0,0,0-.16.87.87,0,0,0,.1-.44v-.18l.2-.2.39,0,.36-.08.22,0,.28,0a.34.34,0,0,1,.32,0c.13.06.17.15.13.26l-.17.4a1.22,1.22,0,0,0-.16.52.11.11,0,0,1,0,.08,5.53,5.53,0,0,0-.24.79l-.22.76a2.48,2.48,0,0,0-.18.93.5.5,0,0,1,0,.12l.12,0a4.74,4.74,0,0,0,1-.66l.36-.33a.4.4,0,0,0,.22-.42.09.09,0,0,1,0-.1.1.1,0,0,1,.1,0c.15,0,.25.08.29.17l.13.25a1,1,0,0,1-.34.53l-.28.28a4.11,4.11,0,0,1-.5.42l-.16.3a2,2,0,0,1-.67.57l-.2.08-.2,0-.13,0h-.15l-.34-.1a1.29,1.29,0,0,1-.71-.45l-.18-.17c-.07-.06-.14-.05-.22,0a2.4,2.4,0,0,1-.24.22,1.1,1.1,0,0,1-.18.14l-.35.23-.1,0a.32.32,0,0,0-.22.06A.9.9,0,0,1,97.89,286.43Z"/><path class="cls-13" d="M107.81,286.43h-.56a.64.64,0,0,1-.33-.06l-.4-.1-.2-.08-.14-.08L106,286l-.14-.15a.31.31,0,0,0,0-.08.45.45,0,0,0-.08-.26l-.06-.16c0-.11,0-.17-.06-.2s-.09-.25-.14-.38a.5.5,0,0,0,0-.12.37.37,0,0,0,0-.29.4.4,0,0,1,0-.38v-.14c0-.12,0-.19.12-.2s.08-.07.08-.18a.58.58,0,0,1,.12-.42.31.31,0,0,0,0-.08v-.31c0-.14,0-.3.06-.46a1.36,1.36,0,0,0,.08-.44l0-.12a2.44,2.44,0,0,0,.1-.24.7.7,0,0,0,.12-.55.27.27,0,0,0-.08-.16.27.27,0,0,1-.32,0h-.08a.64.64,0,0,0-.36,0,1,1,0,0,0-.35,0,1.17,1.17,0,0,1-.6-.16.77.77,0,0,0-.36-.14l-.1-.06c-.1-.07-.1-.13,0-.2a.17.17,0,0,1,.14-.08h.18l.18.06.08,0a2.76,2.76,0,0,0,.68-.08l.37,0h.1l.2,0a.28.28,0,0,0,.2-.06l.14-.2a3,3,0,0,0,.06-.43.51.51,0,0,1,.14-.3c.1,0,.13-.08.1-.2a.68.68,0,0,1,.08-.6.57.57,0,0,0,0-.14.53.53,0,0,1,0-.33,3.11,3.11,0,0,0,.1-.46,2.17,2.17,0,0,0,.08-.3.16.16,0,0,0,0-.1.5.5,0,0,1,.13-.3.75.75,0,0,1,0-.16.14.14,0,0,1,.16-.15.23.23,0,0,0,.26-.2s0-.06.12-.06.15.07.2,0h.06a.17.17,0,0,0,.19.08l.21,0a2.11,2.11,0,0,0,.35,0s.06,0,.12,0a1.7,1.7,0,0,1,.4,0,.1.1,0,0,1,.1.08.25.25,0,0,1,.1.21c0,.06,0,.13-.12.2l-.2.14c-.11.13-.22.26-.34.38a.36.36,0,0,0-.1.28c0,.07,0,.14-.05.2a.66.66,0,0,0-.1.3,3.23,3.23,0,0,1-.14.47l-.12.34a4.1,4.1,0,0,1-.14.5.09.09,0,0,1-.06.06c0,.08,0,.16,0,.24l0,.13c0,.09,0,.14.12.14a.72.72,0,0,0,.4,0l.12,0h.37l.25,0,.21,0h.18l.2-.06a.15.15,0,0,0,.1,0h.41l.12,0h.08l.1.07a.14.14,0,0,1,0,.18.53.53,0,0,1-.2.22l-.15.11a.46.46,0,0,1-.16.07,1.65,1.65,0,0,1-.32.06l-.38.1a1.43,1.43,0,0,1-.42.1l-.32,0a.8.8,0,0,1-.55.08l-.11,0-.15,0a.31.31,0,0,0-.24.14l-.16.18a.55.55,0,0,0-.14.39.35.35,0,0,1-.06.28,3.45,3.45,0,0,1-.14.34l-.06.18c0,.09,0,.18,0,.26a.12.12,0,0,1,0,.16,3.58,3.58,0,0,1-.11.35.24.24,0,0,1-.1.18.79.79,0,0,1-.06.22v.16a.44.44,0,0,1,0,.16,1.69,1.69,0,0,1,0,.23.28.28,0,0,1-.11.21c-.09.06-.11.15-.06.28a.29.29,0,0,1,0,.33V285a.26.26,0,0,0,.06.28,1.16,1.16,0,0,0,.24.32.33.33,0,0,0,.27.1h.24a.33.33,0,0,0,.26-.08.43.43,0,0,0,.17-.06.57.57,0,0,0,.13-.08.68.68,0,0,1,.34-.26l.12-.08a1.29,1.29,0,0,1,.45-.26l.1-.06.18-.18.18-.2a.33.33,0,0,0,.12-.23.76.76,0,0,1,.14-.34.15.15,0,0,1,.12.16v.14c0,.12,0,.19.12.2s.13.15.06.27l-.16.24-.14.28-.16.26a.34.34,0,0,1-.12.06.51.51,0,0,0-.28.28c-.06.1-.12.14-.2.14s-.12.06-.18.17l-.21.22-.32.12s0,0-.08,0Z"/><path class="cls-13" d="M113,286.25a2.15,2.15,0,0,0-.34-.13,1,1,0,0,1-.42-.26l-.28-.18q-.27-.14-.12-.36v-.18a.27.27,0,0,1,0-.3.24.24,0,0,0,0-.28.22.22,0,0,1,0-.19,3.7,3.7,0,0,0,.07-.38,1.77,1.77,0,0,1,0-.2l.08-.2v-.38a1.29,1.29,0,0,1,.18-.53.43.43,0,0,1,.06-.38l.06-.26v-.1a.41.41,0,0,1,0-.52l0,0a.29.29,0,0,1,0-.31.36.36,0,0,0-.32-.18h-.2l-.19,0a.15.15,0,0,0,0-.1l.19-.18.2-.14a.39.39,0,0,0,.26-.2l.16-.12.44-.22a.16.16,0,0,1,.16,0,.15.15,0,0,0,.18,0c0-.06.09-.08.19-.08h.08c.13-.1.24-.09.32,0a.21.21,0,0,1,.12.21v.31l-.12.54v0c0,.07,0,.13,0,.18l-.08.17,0,0v0c0,.17-.06.34-.1.5a.82.82,0,0,1,0,.4s0,0,0,.08,0,.18-.06.2a.31.31,0,0,0,0,.13l0,.15a1.31,1.31,0,0,1-.05.15V283a.94.94,0,0,0-.08.36v.06a.52.52,0,0,1-.06.16v.18a.32.32,0,0,1,0,.14.73.73,0,0,0-.16.36,2.23,2.23,0,0,1,0,.23,1.67,1.67,0,0,1,0,.32s0,.07,0,.1a.91.91,0,0,0,0,.44.32.32,0,0,0,.41.14,2.86,2.86,0,0,0,.9-.5l.24-.26a1.86,1.86,0,0,0,.14-.2c.07,0,.09.06.06.14l-.12.32V285a.52.52,0,0,1-.14.54.17.17,0,0,1-.06.1.19.19,0,0,1-.14.18l-.37.21a1.46,1.46,0,0,1-.39.12l-.12,0A1.32,1.32,0,0,1,113,286.25Zm1.17-8.38c-.08,0-.15,0-.22-.12a.18.18,0,0,0-.18-.06l-.26,0a.64.64,0,0,0-.45-.16.29.29,0,0,1-.26-.12l-.26-.42a.52.52,0,0,0-.06-.16l.32,0,.55,0a.52.52,0,0,1,.42.16.39.39,0,0,0,.28.08l.22.06.28.14.38.2a.53.53,0,0,1,.12.3c0,.1-.07.14-.18.14h-.12a.28.28,0,0,1-.22,0A.56.56,0,0,0,114.15,277.87Z"/><path class="cls-13" d="M119,286.51l-.2,0h-.2a.67.67,0,0,1-.3-.08h-.09a.66.66,0,0,1-.38-.06l-.14-.06a.36.36,0,0,1-.32-.16,1,1,0,0,1-.5-.31l-.06-.06a1.12,1.12,0,0,1-.27-.26l-.24-.44a3.17,3.17,0,0,0-.14-.4l-.08-.24v-.77a1.29,1.29,0,0,1,.12-.6,3,3,0,0,0,.08-.35.37.37,0,0,1,.1-.18.82.82,0,0,0,.2-.42.56.56,0,0,1,.17-.24,1.55,1.55,0,0,0,.28-.54,1,1,0,0,1,.26-.45l.3-.38a.74.74,0,0,1,.28-.3l.2-.14.45-.08.14,0,.76-.3h.67a.49.49,0,0,1,.28.12.4.4,0,0,1,.06.3.28.28,0,0,0,.27.06l.23-.1a.42.42,0,0,1,.26,0l.08,0,.08,0a.33.33,0,0,1,.23.06,1.39,1.39,0,0,1,.5.46l.22.32a.64.64,0,0,1,.14.45.74.74,0,0,0,.08.34s0,.08,0,.12a4.46,4.46,0,0,1-.06.54.3.3,0,0,1,0,.14v.12l0,.19c0,.06,0,.12,0,.16l0,.14,0,.18,0,.12s0,.05,0,.08a.46.46,0,0,1-.12.34l-.08.2a.87.87,0,0,1-.08.14,1.06,1.06,0,0,0-.22.57l0,.1-.2.3-.57.64a.32.32,0,0,1-.16.14l-.44.31-.53.26-.16,0a1,1,0,0,0-.44.1Zm-.66-.79a1.19,1.19,0,0,0,.7,0,.76.76,0,0,0,.2-.06h.08l.08,0a.75.75,0,0,0,.2-.1,1.5,1.5,0,0,0,.55-.54l.06,0,.12-.06.06-.1a1.24,1.24,0,0,0,.18-.22l.12-.14.38-.73a.64.64,0,0,0,.12-.48.35.35,0,0,1,0-.26.74.74,0,0,0,.08-.53v-.26a2.67,2.67,0,0,0-.14-.36.56.56,0,0,0,0-.12.34.34,0,0,0-.2-.26,2.68,2.68,0,0,1-.48-.35A.28.28,0,0,0,120,281a.27.27,0,0,1-.29,0l-.2-.18a.15.15,0,0,1,0-.18l.24-.26a.71.71,0,0,0-.48.14l-.16.14-.16.16a1.45,1.45,0,0,1-.16.18,3.35,3.35,0,0,0-.44.63.51.51,0,0,0-.15.23,1.23,1.23,0,0,1-.14.25,2,2,0,0,1-.22.34.56.56,0,0,1,0,.12.5.5,0,0,1-.11.26.43.43,0,0,0-.1.23.79.79,0,0,1-.05.22.41.41,0,0,1-.14.24.08.08,0,0,1,0,.06v.26c0,.08,0,.16,0,.24a.31.31,0,0,1,0,.08,1,1,0,0,1,0,.45v0l.12.16a.44.44,0,0,1,.12.22.41.41,0,0,0,.12.22l.14.22A.76.76,0,0,0,118.36,285.72Z"/><path class="cls-13" d="M130.25,286.35l-.3,0-.16,0-.37-.1-.44-.25a.12.12,0,0,1-.12-.08.21.21,0,0,1-.12-.28.51.51,0,0,0-.12-.3l0-.12a2,2,0,0,0-.12-.62,2.11,2.11,0,0,0,0-.25,1.78,1.78,0,0,1,0-.26.31.31,0,0,1,0-.32.69.69,0,0,1,0-.1v-.5c0-.07,0-.14.06-.2v-.21a.82.82,0,0,1,.08-.38.22.22,0,0,0,0-.22V282c0-.11,0-.27,0-.5a1.85,1.85,0,0,0-.11-.69s0-.09,0-.2a.84.84,0,0,0-.67.18l-.4.24a.73.73,0,0,0-.26.43l-.24.46a.57.57,0,0,0-.18.36q-.09.17-.18.3l-.16.21a.3.3,0,0,1-.19.28l-.12.18a2,2,0,0,1-.42.78l0,0c0,.15-.09.3-.14.46s-.11.31-.16.47l-.12.12-.06.14a.3.3,0,0,1,0,.1l-.16.56a.47.47,0,0,1-.2.29h-.13l-.16-.1-.08,0a.52.52,0,0,1-.52-.19.39.39,0,0,1-.08-.34s0-.08.06-.14a.16.16,0,0,0,.12-.22.6.6,0,0,1,.12-.36l0-.1,0-.13c0-.05,0-.1,0-.15.11-.23.22-.46.32-.69q.06,0,.06-.12a.53.53,0,0,1,.1-.32l.25-.52a.63.63,0,0,0,.08-.49,1,1,0,0,1,.1-.42s0-.06.08-.06.15-.15.1-.24a.19.19,0,0,0,0-.08l0-.08a.3.3,0,0,0,.06-.31,1.22,1.22,0,0,1,.12-.42c0-.06,0-.14,0-.21a1.64,1.64,0,0,0,0-.23V280a.14.14,0,0,0-.06-.2l-.06-.06s0-.09,0-.14h.12a.27.27,0,0,0,.24-.09s.07-.06.16-.06a.33.33,0,0,0,.3-.06,1.91,1.91,0,0,0,.33-.06.41.41,0,0,1,.22,0c.07,0,.15,0,.26.06l.18.08a.3.3,0,0,1,.22.29v.16a1.63,1.63,0,0,1-.1.66.9.9,0,0,1,0,.18h.18l.49-.28.12-.06.18-.08.34-.12a.59.59,0,0,1,.5-.16h.34a.81.81,0,0,0,.49.06.79.79,0,0,1,.58.28.48.48,0,0,1,.08.42,2.44,2.44,0,0,1-.06.39,1.66,1.66,0,0,0-.06.54l0,0v0a2.42,2.42,0,0,1-.32.62,2,2,0,0,1-.12.25,1.76,1.76,0,0,1-.12.2.57.57,0,0,0-.14.46.72.72,0,0,1-.22.5l-.09.24a.62.62,0,0,1,0,.1.49.49,0,0,0,0,.41l0,.08v.58a.49.49,0,0,0,0,.24.59.59,0,0,0,.63.36.48.48,0,0,0,.18-.06l.16-.1a1.83,1.83,0,0,0,.28-.14,1.42,1.42,0,0,0,.2-.22l.19-.18.16-.14.36-.36a1.24,1.24,0,0,0,.18-.22l.26-.47a.16.16,0,0,0,.06-.08.15.15,0,0,1,0,.18l-.14.35,0,.06a2.42,2.42,0,0,0-.42.62.27.27,0,0,0-.08.22c-.06.12-.11.24-.16.36s-.09.16-.14.24a1,1,0,0,1-.49.33Z"/><path class="cls-13" d="M140,286.43a.69.69,0,0,0-.48-.14l-.21-.23-.24-.22v-.06a.76.76,0,0,0,.21-.56.61.61,0,0,1,.08-.44.3.3,0,0,0,0-.1c0-.23,0-.46.08-.69,0-.05,0-.11,0-.18s.1-.27.14-.4,0-.24,0-.36l.06-.14c.07-.26.13-.52.2-.79s.05-.29.08-.44a.79.79,0,0,0,.06-.22.86.86,0,0,0,.08-.45.17.17,0,0,1,.06-.22.67.67,0,0,0,.08-.29v-.29l.08-.28a.72.72,0,0,0,0-.41,1,1,0,0,1,0-.6.32.32,0,0,0,0-.14,3.05,3.05,0,0,1,.14-.68.7.7,0,0,0,.08-.37.48.48,0,0,1,.06-.3.86.86,0,0,0,.06-.5.16.16,0,0,0,0-.1,1.5,1.5,0,0,1,.71-.61.47.47,0,0,1,.28-.08.54.54,0,0,0,.46-.08l.49-.2.28,0,.16,0,.7-.18.17,0h.64a.15.15,0,0,1,.06,0l.14.16.14.1a1.57,1.57,0,0,0,.28.1,1.3,1.3,0,0,1,.81.59.78.78,0,0,1,0,.16l.06.42-.08.36-.08.24a.68.68,0,0,0-.08.47,1.33,1.33,0,0,0-.41.68,1.3,1.3,0,0,1-.14.26l-.24.24-.08.12a1,1,0,0,1-.26.43,7.58,7.58,0,0,1-1.25,1l-.12.06a1.57,1.57,0,0,1-.28.1l-.24.13a.42.42,0,0,1-.34,0l-.21,0a.83.83,0,0,1-.64-.23,1.22,1.22,0,0,1-.24-.1c-.08,0-.14,0-.16.1v0a4,4,0,0,1-.2.91v.1a2.3,2.3,0,0,0-.08.62.65.65,0,0,0,0,.13,1.73,1.73,0,0,0-.14.52.59.59,0,0,1,0,.14l-.09.56a.2.2,0,0,1,0,.08,1.08,1.08,0,0,0-.1.37,1.77,1.77,0,0,1,0,.2l-.08.2c0,.13,0,.26-.08.38a.44.44,0,0,1,0,.16c0,.22-.11.43-.16.65A.53.53,0,0,1,140,286.43Zm2.54-5.9a.4.4,0,0,0,.3-.1l.14-.12.7-.52a1.56,1.56,0,0,0,.71-.93,1.86,1.86,0,0,0,0-.34.27.27,0,0,0,0-.3v-.08a.74.74,0,0,0,.06-.41v-.16a1.24,1.24,0,0,1,0-.16.28.28,0,0,0,0-.09,1.3,1.3,0,0,1,0-.13v-.56c0-.26-.11-.41-.32-.45a2.13,2.13,0,0,1-.35.14c-.2.11-.41.21-.62.31a1.55,1.55,0,0,0-.5.38c-.15,0-.26,0-.32,0a.21.21,0,0,0-.21,0l-.12.2,0,.2-.08.36q-.07.28-.18.57v0a.38.38,0,0,1,0,.32,1.33,1.33,0,0,1-.06.3.52.52,0,0,1,0,.14,1.65,1.65,0,0,1-.06.32,2.28,2.28,0,0,1-.06.39.5.5,0,0,1,0,.12.24.24,0,0,0,0,.26s.12.07.28.1c0,.12.1.18.26.18h.24Z"/><path class="cls-13" d="M147.2,286.43h-.06l-.69-.18-.3-.14-.28-.17-.08-.06-.08-.08a.73.73,0,0,0-.08-.52,1.36,1.36,0,0,0,0-.2c0-.12,0-.25,0-.38s0-.2.07-.3,0-.23.07-.35a.56.56,0,0,1,0-.12,9.42,9.42,0,0,1,.48-1.1c0-.11.07-.22.1-.33l.2-.3c0-.15.11-.3.16-.46a.28.28,0,0,1,.08-.2.77.77,0,0,0,.18-.43.72.72,0,0,1,.14-.24.75.75,0,0,0,.17-.1l.08-.14a.86.86,0,0,1,.36-.48l.28-.2a.93.93,0,0,0,.4-.06l.1,0a.74.74,0,0,0,.41-.06.77.77,0,0,1,.52-.06l.12,0a1.23,1.23,0,0,1,.62-.17.28.28,0,0,1,.39.17.86.86,0,0,1,.1.16.44.44,0,0,0,.32.28.69.69,0,0,1,.26.28v.06a.15.15,0,0,1,0,.06.68.68,0,0,1-.4.3l-.45.24-.18-.12a.32.32,0,0,1-.11-.19.34.34,0,0,0-.19-.21.4.4,0,0,0-.34,0,1,1,0,0,0-.74.36,1.94,1.94,0,0,0-.43.51l-.06.08-.42.76a1.91,1.91,0,0,1-.32.51l-.06.1a.59.59,0,0,1,0,.14l-.06.14a2,2,0,0,1-.1.26,1.12,1.12,0,0,0-.16.5,2.29,2.29,0,0,1-.07.28.6.6,0,0,1-.06.19.45.45,0,0,1-.1.36c0,.06,0,.14,0,.21a1.66,1.66,0,0,1,0,.24.62.62,0,0,0,.11.27h.23c.25-.15.5-.3.74-.46l.52-.48a2.8,2.8,0,0,0,.53-.61.23.23,0,0,0,.08-.16,1.76,1.76,0,0,0,.18-.68,1,1,0,0,0,0-.16l.08-.25a2,2,0,0,0,0-.26c0-.05,0-.1,0-.16a.87.87,0,0,0,.1-.44v-.18l.2-.2.38,0,.37-.08.22,0,.28,0a.35.35,0,0,1,.32,0,.2.2,0,0,1,.12.26l-.16.4a1.1,1.1,0,0,0-.16.52.19.19,0,0,1,0,.08,3.78,3.78,0,0,0-.24.79l-.22.76a2.48,2.48,0,0,0-.18.93.5.5,0,0,1,0,.12l.12,0a4.68,4.68,0,0,0,1-.66l.37-.33a.4.4,0,0,0,.22-.42s0-.07,0-.1a.1.1,0,0,1,.1,0,.4.4,0,0,1,.29.17l.13.25a1.06,1.06,0,0,1-.34.53l-.28.28a3.57,3.57,0,0,1-.51.42,2.11,2.11,0,0,1-.16.3,1.85,1.85,0,0,1-.66.57l-.2.08-.2,0-.14,0h-.15l-.34-.1a1.3,1.3,0,0,1-.7-.45l-.18-.17c-.07-.06-.14-.05-.23,0a2.4,2.4,0,0,1-.24.22.62.62,0,0,1-.18.14l-.34.23-.1,0a.3.3,0,0,0-.22.06A.94.94,0,0,1,147.2,286.43Z"/><path class="cls-13" d="M154.62,286.41a.37.37,0,0,0-.06-.1q0-.12-.18-.12h-.2l-.08-.1A.11.11,0,0,0,154,286a.44.44,0,0,1-.06-.1.31.31,0,0,0-.12-.16l-.1-.16a.08.08,0,0,1,.07-.11c.06,0,.09-.06.09-.17l.06-.12a.14.14,0,0,0,0-.16.12.12,0,0,1,0-.14.27.27,0,0,0,0-.12.38.38,0,0,1,.2-.43.28.28,0,0,0,.1-.09,1,1,0,0,0,.08-.11.15.15,0,0,0,0-.18l0-.12s0-.08,0-.13a.76.76,0,0,0,0-.15v-.06c0-.11,0-.17.08-.2a.29.29,0,0,0,.13-.19.17.17,0,0,0-.07-.17.14.14,0,0,1,.13-.09c.06,0,.08-.05.06-.13s0-.15-.07-.23a.15.15,0,0,0,0-.1l.08-.1a.14.14,0,0,0,.06-.18.35.35,0,0,0,.06-.14l0-.1a.56.56,0,0,1-.12-.38.55.55,0,0,0,0-.18v-.08a2.58,2.58,0,0,0,.14-.39.15.15,0,0,0,0-.1.49.49,0,0,0,0-.12.15.15,0,0,0,0-.18l-.09-.22c-.05-.09-.1-.11-.16,0l-.12.12-.06,0-.06,0a.64.64,0,0,1,.28-.32.86.86,0,0,0,.18-.14.14.14,0,0,1,.21,0c.1.09.18.1.24,0a.48.48,0,0,1,.32-.06h.14l.12.1c.09.12.13.21.1.28v.24c0,.12,0,.24,0,.36v.18c0,.07,0,.13,0,.18a.05.05,0,0,1,0,0v0c0,.11,0,.22,0,.33a.3.3,0,0,1,0,.1v.08l.06.06.22-.24.12-.18,0,0,.08-.07c.07,0,.1,0,.1-.12a.31.31,0,0,1,.07-.16,1.07,1.07,0,0,0,.14-.16l.26-.26.06-.1a.79.79,0,0,1,.32-.26.71.71,0,0,0,.1-.14l.16-.16a.05.05,0,0,0,.06-.06c0-.07.07-.1.13-.09h.29a1.73,1.73,0,0,1,.51,0H159l.1,0,.2.24a.5.5,0,0,1,0,.12v.56a.5.5,0,0,1,0,.12.77.77,0,0,1-.1.18c0,.06,0,.11,0,.16a.21.21,0,0,1-.16.23l-.11.05-.15.05h-.12l-.08,0a.2.2,0,0,0-.25,0,.24.24,0,0,1-.1-.1.38.38,0,0,1-.08-.43l0-.12v-.24a.08.08,0,0,0-.06-.08l-.06,0-.46.44-.3.43-.36.54-.06.08a.5.5,0,0,1-.19.3,2.27,2.27,0,0,1-.22.32l-.16.31-.16.26a2.12,2.12,0,0,1-.24.5.77.77,0,0,1-.1.18c0,.1-.06.18-.09.26a2.25,2.25,0,0,1-.11.22c0,.13-.09.25-.14.37l0,.1a1.45,1.45,0,0,0-.24.5v.06a.28.28,0,0,1-.11.24.5.5,0,0,0-.1.55l-.13.23A.13.13,0,0,1,154.62,286.41Z"/><path class="cls-13" d="M160.92,286.39h-.28l-.14-.12-.1-.1s-.08-.05-.12,0,0,0-.06,0a.54.54,0,0,1-.25-.27s0-.09,0-.16v-.46a.76.76,0,0,0,0-.11.2.2,0,0,0,0-.11.65.65,0,0,1,.19-.44h0l0,0a.57.57,0,0,1,.22-.37,1.64,1.64,0,0,1-.16-.26.17.17,0,0,1,0-.28s.06-.09.14-.12a.24.24,0,0,0,.1-.36.34.34,0,0,1,0-.28l.12-.29c.05-.09.11-.18.16-.28l0,0a1.19,1.19,0,0,1,.06-.44l0-.28.08-.08c.15,0,.2-.14.14-.31V281l.12-.22a2.76,2.76,0,0,0,.06-.4,1.05,1.05,0,0,0,.06-.24c.12-.34.25-.68.37-1,.05-.2.1-.4.14-.6l.06-.28a1,1,0,0,0,.12-.45c0-.16.08-.33.11-.5l.09-.52c0-.06,0-.11,0-.16a.42.42,0,0,0,0-.37V276l.12-.16a.33.33,0,0,0,.1-.28,3.29,3.29,0,0,0,.05-.44c0-.15,0-.3,0-.45a.56.56,0,0,1,0-.34l.12-.12A.26.26,0,0,0,163,274a.15.15,0,0,1,.18-.1l.35.1a.44.44,0,0,0,.16.06,4.51,4.51,0,0,1,.68.16c.11,0,.15.1.12.16l-.2.28a.35.35,0,0,0-.12.23.3.3,0,0,1,0,.1l0,.16a1.1,1.1,0,0,1,0,.18.08.08,0,0,1,0,.06c0,.16-.11.32-.16.48l0,.06a1.53,1.53,0,0,0-.08.57,2.68,2.68,0,0,0-.07.27c0,.08-.05.18-.07.27s-.06.19-.08.28a.26.26,0,0,1,0,.24c0,.14-.08.26-.12.38a.36.36,0,0,1,0,.11.47.47,0,0,1-.08.28l-.06.38a.6.6,0,0,0-.09.46,1.19,1.19,0,0,1-.08.2.75.75,0,0,1-.08.18.46.46,0,0,1,0,.37l0,0,0,0a1.08,1.08,0,0,1-.06.52.79.79,0,0,1-.06.22c.08.08.14.1.16,0a3.07,3.07,0,0,1,.47-.48l.18-.08a5.27,5.27,0,0,1,.8-.36l.14,0a.48.48,0,0,0,.35-.06.21.21,0,0,1,.24,0,.5.5,0,0,0,.28.1l.54.1a.24.24,0,0,1,.2.08,1.26,1.26,0,0,0,.26.13.69.69,0,0,1,.25.19.27.27,0,0,1,0,.28c-.1.11-.19.22-.29.32l-.12.16a.43.43,0,0,1-.3.23l-.14.08a1.94,1.94,0,0,0-.46.44l-.18.14a.12.12,0,0,0-.12.06.61.61,0,0,1-.45.38,1.19,1.19,0,0,0-.3.18.17.17,0,0,1-.12.06,2.57,2.57,0,0,0-.5.35l-.57.48a.14.14,0,0,0,0,.22l0,.1a9.16,9.16,0,0,0,.71.83,3.58,3.58,0,0,1,.6.56.4.4,0,0,0,.38.08h.25a1.86,1.86,0,0,0,.34-.06l.62-.22a.23.23,0,0,0,.2-.14l.12-.14a1.42,1.42,0,0,0,.26-.24q.12-.17.21-.15c.09.09.08.31,0,.67s-.23.56-.33.58a.19.19,0,0,1,0,.08s0,0-.05.06h0l-.28.16a.73.73,0,0,1-.37.16h-.45a1,1,0,0,1-.61-.07l-.16-.06a1.91,1.91,0,0,1-.62-.32,2.11,2.11,0,0,1-.54-.4l-.15-.06-.4-.32-.24-.18-.14-.12-.1-.15a2.53,2.53,0,0,0-.42-.5q-.09,0-.06.12a.43.43,0,0,1,0,.32l0,.13a1,1,0,0,1,0,.16l0,.06a.52.52,0,0,1-.13.34c0,.07,0,.11,0,.14a.77.77,0,0,1-.08.44,1.78,1.78,0,0,1-.38.75C161.11,286.43,161,286.45,160.92,286.39Zm1.51-4.11h.12a.68.68,0,0,0,.2,0c.19,0,.31,0,.36-.1l.35-.3.32-.32,0-.06.4-.71c.07-.16,0-.29-.16-.4a.2.2,0,0,0-.16,0l-.12.1a4.34,4.34,0,0,0-.61.5s-.09,0-.12.1a.52.52,0,0,1-.24.29.69.69,0,0,0-.21.39,2.23,2.23,0,0,1-.09.39Z"/><path class="cls-13" d="M177.77,286.51l-.21,0h-.2a.75.75,0,0,1-.3-.08H177a.65.65,0,0,1-.38-.06l-.14-.06a.35.35,0,0,1-.32-.16,1.07,1.07,0,0,1-.51-.31l-.06-.06a1.07,1.07,0,0,1-.26-.26l-.24-.44c0-.13-.09-.27-.14-.4l-.08-.24v-.77a1.08,1.08,0,0,1,.12-.6c0-.11.05-.22.08-.35a.37.37,0,0,1,.1-.18.91.91,0,0,0,.2-.42.54.54,0,0,1,.16-.24,1.27,1.27,0,0,0,.28-.54,1,1,0,0,1,.27-.45l.3-.38a.68.68,0,0,1,.28-.3l.2-.14.44-.08.14,0,.77-.3h.66a.43.43,0,0,1,.28.12q.09.07.06.3a.3.3,0,0,0,.28.06l.23-.1a.41.41,0,0,1,.26,0l.08,0,.08,0a.3.3,0,0,1,.22.06,1.31,1.31,0,0,1,.5.46l.23.32a.64.64,0,0,1,.14.45.63.63,0,0,0,.08.34.56.56,0,0,0,0,.12l-.06.54a.52.52,0,0,1,0,.14v.12a.68.68,0,0,0,0,.19c0,.06,0,.12,0,.16l0,.14,0,.18,0,.12a.3.3,0,0,0,0,.08.46.46,0,0,1-.12.34l-.09.2a.47.47,0,0,1-.08.14,1.14,1.14,0,0,0-.22.57.3.3,0,0,1,0,.1c-.07.1-.13.21-.2.3l-.56.64a.32.32,0,0,1-.16.14l-.45.31-.52.26-.16,0a1,1,0,0,0-.44.1Zm-.67-.79a1.23,1.23,0,0,0,.71,0l.2-.06h.08l.08,0a.93.93,0,0,0,.2-.1,1.4,1.4,0,0,0,.54-.54l.06,0,.12-.06.06-.1a2,2,0,0,0,.19-.22l.12-.14.38-.73a.64.64,0,0,0,.12-.48.31.31,0,0,1,0-.26.79.79,0,0,0,.08-.53v-.26c0-.12-.09-.24-.14-.36s0-.08,0-.12a.38.38,0,0,0-.2-.26,2.43,2.43,0,0,1-.49-.35c-.1-.17-.25-.2-.44-.08a.25.25,0,0,1-.28,0l-.2-.18a.15.15,0,0,1,0-.18l.24-.26a.67.67,0,0,0-.48.14l-.16.14-.16.16a1.49,1.49,0,0,1-.17.18,3.88,3.88,0,0,0-.44.63.51.51,0,0,0-.15.23,1.19,1.19,0,0,1-.13.25,2.84,2.84,0,0,1-.22.34.56.56,0,0,0,0,.12.6.6,0,0,1-.11.26.37.37,0,0,0-.1.23,1.42,1.42,0,0,1-.05.22.46.46,0,0,1-.14.24.08.08,0,0,1,0,.06v.26a2,2,0,0,0,0,.24.31.31,0,0,1,0,.08,1.12,1.12,0,0,1,0,.45v0l.12.16a.69.69,0,0,1,.12.22.31.31,0,0,0,.12.22l.14.22A.78.78,0,0,0,177.1,285.72Z"/><path class="cls-13" d="M183,288.42l-.19,0a.27.27,0,0,1-.17-.07.12.12,0,0,1,0-.18.69.69,0,0,1,.2-.34s.06-.06.06-.14.05-.15.16-.21.06,0,.06-.08a1.33,1.33,0,0,0,.06-.3l-.06-.12.06-.08a.28.28,0,0,0,.08-.2s0-.08,0-.13a.77.77,0,0,0,0-.15.47.47,0,0,1,0-.38v0a.08.08,0,0,0,0-.06,1,1,0,0,1,.06-.4v-.06c0-.13.07-.27.1-.42a.72.72,0,0,1,.08-.4v0c0-.2,0-.41,0-.61s.06-.19.08-.28v-.14a.3.3,0,0,1,.05-.25.58.58,0,0,0,.09-.33.13.13,0,0,0,0-.08,1.55,1.55,0,0,0,0-.21.11.11,0,0,0,0-.08.8.8,0,0,0,0-.18.56.56,0,0,1,.06-.32.33.33,0,0,0,0-.15l0-.19c0-.14.09-.27.13-.4a.5.5,0,0,0,0-.12.26.26,0,0,0,0-.21l0-.15a.31.31,0,0,1,0-.13,1.18,1.18,0,0,1-.07-.2c0-.07-.07-.07-.14,0l-.22,0-.38,0h-.13l-.17,0-.14,0-.26-.12a.81.81,0,0,1-.35-.16c-.09,0-.09-.09,0-.16a.25.25,0,0,1,.27,0h.41l.19,0,.12,0h.2l.19-.05a.37.37,0,0,1,.21,0l.13,0,.2,0c.16,0,.24-.08.24-.22v-.29a1.24,1.24,0,0,1,0-.16l.12-.2a1.05,1.05,0,0,0,.06-.24.59.59,0,0,0,0-.14.43.43,0,0,0,.06-.26.31.31,0,0,0,0-.08l0-.08A.79.79,0,0,0,185,278v-.21c0-.06,0-.13,0-.2s.07-.27.1-.4.11-.25.16-.38a1.1,1.1,0,0,0,.06-.26v-.17a.37.37,0,0,1,.1-.24.09.09,0,0,0,.06,0c0-.09.13-.12.27-.1a.22.22,0,0,0,.22,0l.16,0h.36l.22,0a.12.12,0,0,0,.08,0h.08a.43.43,0,0,1,.3.08l.15,0h.24l.08.08a.58.58,0,0,1,0,.1.24.24,0,0,1-.1.21l0,0a.67.67,0,0,1-.35,0,.34.34,0,0,0-.34,0,.62.62,0,0,0-.28.28l-.18.4a1.59,1.59,0,0,1-.08.18l-.14.38s0,.08,0,.1l-.2.51v0a1,1,0,0,1-.08.38,2.75,2.75,0,0,1-.1.34,1.09,1.09,0,0,1-.05.14l-.06.14c0,.08,0,.14.11.17a.34.34,0,0,1,.28,0h.06a1.72,1.72,0,0,1,.64,0h0a.56.56,0,0,0,.3.06.18.18,0,0,1,.16.12l0,.08a.12.12,0,0,1,0,.16.3.3,0,0,1-.14.2l-.1,0-.22,0-.38.08a1.4,1.4,0,0,1-.28.06h-.1l-.12,0-.14,0h-.17a.71.71,0,0,1-.22.06.43.43,0,0,0-.14.24l0,.34a.2.2,0,0,1,0,.11l0,.12v.18a.32.32,0,0,1,0,.3,1.4,1.4,0,0,1-.1.16.24.24,0,0,0,0,.29.47.47,0,0,1,0,.35l-.08.25a.3.3,0,0,1,0,.1V283a.64.64,0,0,1-.06.18v.24a.76.76,0,0,1-.06.2v.18c0,.08,0,.16,0,.24a1,1,0,0,1,0,.17c0,.06,0,.12,0,.18l0,0a3,3,0,0,1-.06.42,1,1,0,0,0,0,.14.37.37,0,0,0-.08.26,2,2,0,0,0,0,.24v.12c0,.06,0,.12,0,.2l-.08.08a.5.5,0,0,0,0,.13,2.46,2.46,0,0,1,0,.26l-.1,0h-.12c-.06,0-.07.06,0,.1a1.11,1.11,0,0,1,0,.19.47.47,0,0,1,0,.17,1.13,1.13,0,0,1-.1.46s0,0,0,0a2.58,2.58,0,0,1-.06.37l0,.14a.13.13,0,0,1,0,.08.23.23,0,0,1-.14.24l0,0c-.06,0-.14.05-.22.16a.22.22,0,0,1-.2.08l-.13,0Z"/><path class="cls-13" d="M197.39,286.37c-.24-.11-.49-.22-.75-.32a8.29,8.29,0,0,1-.84-.43l-.12-.14-.41-.58-.12-.28-.06-.18a.46.46,0,0,1,0-.31c.1-.17,0-.31-.16-.4a.39.39,0,0,1-.08-.56l.08-.12a.15.15,0,0,0,.05-.17,1.19,1.19,0,0,1-.05-.22,2.48,2.48,0,0,0,0-.72.57.57,0,0,1,.18-.54.53.53,0,0,0,.12-.35c0-.06,0-.14.05-.23s.05-.17.07-.27v0a.82.82,0,0,0,.14-.31.76.76,0,0,1,.11-.29.3.3,0,0,0,.06-.24.31.31,0,0,0,0-.08.94.94,0,0,0,.06-.47.57.57,0,0,1,.2-.46.59.59,0,0,0,.16-.36s0-.09,0-.14a1.37,1.37,0,0,0,.18-.49,2.06,2.06,0,0,0,.2-.54,1.55,1.55,0,0,1,0-.23c0-.08.05-.15.07-.23l.16-.14.16-.17a.42.42,0,0,1,.31-.12l.14,0a6,6,0,0,0,.58-.26.34.34,0,0,1,.22,0,.84.84,0,0,0,.44-.1,1.29,1.29,0,0,1,.61-.16l.28,0,.52.12h.08a1.59,1.59,0,0,1,.57.13,3.19,3.19,0,0,0,.48.19l.38.2.41.19.13.12a.75.75,0,0,1,.07.12v.16a.16.16,0,0,1-.18.12,2.25,2.25,0,0,1-.69,0,1.42,1.42,0,0,0-.44-.06l-.14,0-.49.2H200l-.18-.06a.35.35,0,0,0-.38,0,1.46,1.46,0,0,0-.42.32,3,3,0,0,1-.22.28.87.87,0,0,0-.31.29,1,1,0,0,1-.32.32.9.9,0,0,0-.34.36,3.37,3.37,0,0,1-.1.34.08.08,0,0,1,0,.06l-.2.28-.2.31-.06.1a2,2,0,0,1-.18.46,1.59,1.59,0,0,1-.07.2,1.33,1.33,0,0,1-.06.3.66.66,0,0,1-.06.2l-.18.41a.29.29,0,0,0,0,.32.25.25,0,0,1,0,.12,3.5,3.5,0,0,1-.14.46c0,.07,0,.13,0,.18v2l.12.42a1.57,1.57,0,0,0,.51.72l.08,0a1.13,1.13,0,0,0,.86.12.35.35,0,0,0,.14-.06,6.89,6.89,0,0,0,1.53-.88l.22-.2c.14-.11.27-.22.41-.35,0,.14,0,.27,0,.39l-.21.2-.2.24c-.12.15-.25.29-.38.44l0,0-.38.36a1.26,1.26,0,0,1-.36.21,1.32,1.32,0,0,0-.39.2A2.48,2.48,0,0,1,197.39,286.37Z"/><path class="cls-13" d="M202.56,286.75l-.18-.16a1.33,1.33,0,0,1-.38-.18l-.13-.1a.22.22,0,0,1-.06-.26,1.63,1.63,0,0,1,.29-.59l0,0v0c0-.09.07-.19.1-.28a.56.56,0,0,0,.12-.28.26.26,0,0,1,.1-.2c.07-.12.13-.25.2-.39l.1-.12a2.22,2.22,0,0,0,.18-.38.52.52,0,0,0,.06-.16l.48-.76a.43.43,0,0,0,.11-.27l0,0,0,0,.28-.5,0-.08,0-.1.14-.32a.43.43,0,0,0,.14-.24.38.38,0,0,0,.06-.13.45.45,0,0,0,.12-.26c.08-.12.15-.24.22-.36l.08-.18.17-.25a.68.68,0,0,0,.11-.33.11.11,0,0,1,.12-.12c.11,0,.17-.07.17-.15a.6.6,0,0,1,.14-.46l.26-.28.08,0a.19.19,0,0,0,.16-.08.15.15,0,0,0,0-.18.19.19,0,0,0,0-.08l0-.08a.3.3,0,0,1,.06-.22c.09-.06.11-.16,0-.31v0l.08-.16a.26.26,0,0,0,.12-.24.7.7,0,0,0,.12-.32v0c.11-.18.21-.35.3-.52a.62.62,0,0,0,.23-.35v0a.05.05,0,0,0,0,0,.39.39,0,0,0,.2-.18.76.76,0,0,1,.42.06.12.12,0,0,0,.16,0,.39.39,0,0,1,.35,0,.48.48,0,0,0,.42,0,.46.46,0,0,1,.3,0,2.76,2.76,0,0,0,.4.06.21.21,0,0,1,.17.11l.13.2a.31.31,0,0,1,0,.22v.3a1.24,1.24,0,0,1,0,.18h0a1.32,1.32,0,0,1,0,.28,1.4,1.4,0,0,1,.06.28.25.25,0,0,1,0,.12c0,.07,0,.12,0,.14a1.7,1.7,0,0,1,0,.59.16.16,0,0,1,0,.1,2.25,2.25,0,0,1-.06.36.66.66,0,0,0,0,.2.11.11,0,0,1,0,.08l0,.08v.16c0,.1,0,.19,0,.29a.38.38,0,0,0-.06.35.41.41,0,0,1,0,.31,1,1,0,0,1,0,.1c0,.13,0,.26-.08.38a.05.05,0,0,1,0,0l0,0a.37.37,0,0,0-.08.22.3.3,0,0,1-.06.29c0,.08,0,.15,0,.22v.66c0,.22,0,.42-.06.63a.31.31,0,0,1,0,.08v1a.93.93,0,0,1,0,.14.61.61,0,0,1,.06.3v1.05a.38.38,0,0,1,.06.32v.06c0,.16-.09.33-.14.49a.11.11,0,0,1-.12.12.21.21,0,0,0-.26.1.17.17,0,0,1-.27-.06l-.12,0a.88.88,0,0,1-.36-.34,1.3,1.3,0,0,0-.22-.31l-.44-.4-.08,0-.06-.08a.05.05,0,0,1-.06-.06l-.33-.4a.11.11,0,0,0,0-.08v-.22c0-.1,0-.13.12-.11l.23.07a4.68,4.68,0,0,1,.5.28l.26,0,.08-.1.06-.14c0-.06,0-.11,0-.17a.22.22,0,0,1,0-.16.65.65,0,0,0,0-.2,2.7,2.7,0,0,0,0-.28.25.25,0,0,0,0-.12v-1.35c0-.13,0-.17-.14-.1l-.26.1a4.6,4.6,0,0,1-.52.06H207l-.31,0h-.3a.93.93,0,0,1-.36-.06l-.14,0h-.2l-.2,0-.12.07-.12.05a.61.61,0,0,0-.43.24,1.15,1.15,0,0,1-.22.22.6.6,0,0,0-.24.41h0a1.35,1.35,0,0,0-.24.48.56.56,0,0,0-.16.34l-.18.4a.37.37,0,0,0-.1.37l-.06.18a1.71,1.71,0,0,0-.23.5l-.08.16a.37.37,0,0,0-.1.24v.06a.44.44,0,0,0-.1.31l0,0a5,5,0,0,1-.27.52C202.68,286.86,202.61,286.87,202.56,286.75Zm5.17-5.37c.07.06.14,0,.22-.06s.07-.06,0-.15v-.44c0-.13,0-.27,0-.42v-.1a.43.43,0,0,1-.06-.26v-.81a.93.93,0,0,1-.06-.4,0,0,0,0,0,0,0l0,0a.44.44,0,0,0,0-.16v-.36c0-.07,0-.12-.08-.16l-.08.06-.5.76a.48.48,0,0,1-.2.22,1,1,0,0,0-.26.38l-.09.21a3.57,3.57,0,0,1-.3.38,2,2,0,0,0-.29.43,2.21,2.21,0,0,1-.33.47,2.18,2.18,0,0,1-.12.22.15.15,0,0,0,.16.13H206l.24,0h.06l.24,0h.25l.68.06Z"/><path class="cls-13" d="M213.21,286.41a2.57,2.57,0,0,1-.65-.1,1.15,1.15,0,0,1-.76-.55.87.87,0,0,0-.14-.52V285c.06-.08.06-.14,0-.16l-.17-.24a.56.56,0,0,0,0-.12v-.13a.16.16,0,0,0,.06-.08h.09a.64.64,0,0,0,.27.33l.35.2a.87.87,0,0,0,.5.24c.1,0,.17.07.22,0a1.29,1.29,0,0,1,.51-.08.5.5,0,0,0,.38-.06.75.75,0,0,0,.68-.52l.69-1.11a.67.67,0,0,0,.14-.55v-.34a1.09,1.09,0,0,0-.06-.56,2.72,2.72,0,0,1,0-.3l-.4-.41a1,1,0,0,0-.43-.24l-.2-.08a1.27,1.27,0,0,1-.82-.62c-.06,0-.08-.06-.08-.1a1.06,1.06,0,0,1-.41-.73,1.52,1.52,0,0,1,0-.6,2.32,2.32,0,0,0,.06-.38,2.75,2.75,0,0,1,.18-.63,2,2,0,0,1,.49-.82,3.45,3.45,0,0,0,.14-.34.8.8,0,0,1,.24-.39l.48-.62a.79.79,0,0,1,.12-.15c.06-.05.13,0,.23,0l.12.1a.91.91,0,0,0,.56.36,1.49,1.49,0,0,0,.3-.18c.11,0,.17.09.18.14a1.38,1.38,0,0,0,.35.38c.16.13.32.24.48.35l.14.14.4.74a.21.21,0,0,1,0,.24.22.22,0,0,1-.24.08,1.86,1.86,0,0,1-.64-.18,1.5,1.5,0,0,1-.29-.06,1.28,1.28,0,0,1-.78-.18.75.75,0,0,0-.87.18l-.08.08s0,0,0,0a.45.45,0,0,1-.28.39.91.91,0,0,0-.24.24,4.1,4.1,0,0,0-.24.56,1.4,1.4,0,0,1-.1.16.56.56,0,0,0,0,.44,2.17,2.17,0,0,0,0,.25.47.47,0,0,0,.24.32,6.68,6.68,0,0,0,1.33.68,3.1,3.1,0,0,1,.7.42,2,2,0,0,1,.61.59,1.74,1.74,0,0,1,.36.5l.06.24v.87a1.87,1.87,0,0,1-.3.78c-.07.16-.14.32-.22.47a.65.65,0,0,1-.35.34,1.14,1.14,0,0,0-.5.44,1.1,1.1,0,0,1-.48.4c-.19.14-.39.27-.59.39l-.12.08a1,1,0,0,0-.6.14A3.54,3.54,0,0,1,213.21,286.41Z"/><path d="M189,237.43c-.3,0-.54.95-.74,2.84l.59,7.47c0,1.19-.69,1.84-2.09,1.94a15.65,15.65,0,0,1-4.48,1.49h-1l-1.94-.3h-.15v.3q0,2.54,4.33,2.84h.9l3.43-.45.75.45q0,4.47-1.8,6.86.75,5.08,2.09,5.08l.45-.3a17.6,17.6,0,0,0,4.48-6.57c.8,0,1.44-2.09,1.94-6.27v-.15h-.45a10.8,10.8,0,0,1-3.73,5.38h-.74l-.45-.45v-.45l1.64-5.67a9.2,9.2,0,0,0,1.64-3.88l-1.19-.9q-.45-1.94-3-9.26Zm19-1.79c-2.1,0-4.33,1.05-6.72,3.14v.3c0,.29.3.49.89.59q3.88-1.78,5.38-1.79h.3l.59.75v.3q-2.83,7-2.83,8.51l.44.74,3.29-.59h1q3.44,1,3.44,6v.15l-.3,2.39q-1.5,6.12-3.88,6.12H208.6a1.19,1.19,0,0,1-1.34-1.35v-.15l1-2.83c0-1.79-.84-2.69-2.53-2.69l-.3.45.44.89a3.26,3.26,0,0,1-.74,1.5q-1,0-1-1.2l.45-1.34v-.15l-.6-.75a3,3,0,0,0-2.24-2.83h-.14c-1,0-2.34,1.94-4,5.82.8,2.39,1.3,3.58,1.5,3.58h.3l.29-.15a9.34,9.34,0,0,1,2.54-3.13h.6a1.66,1.66,0,0,1,.9,1.64v.75a7.92,7.92,0,0,1-3.14,3.73h-.45l-2.09-.15v.3l.15.75c1,1.49,1.94,2.24,2.84,2.24V267h.3c2.68-2.79,4.18-4.18,4.48-4.18h.14a8.39,8.39,0,0,0,3.74,1.64q3.73-.75,4.78-2.24c.69,0,1.69-2.39,3-7.17q0-4-5.07-8.21c-2.19-.3-3.29-1-3.29-1.94l1-6.57C210.1,236.54,209.4,235.64,208,235.64Zm-39.57,6.87-.45.15a23.85,23.85,0,0,0-8.66,5.22c-2.09.9-3.13,1.55-3.13,2,0,.79,1.59,1.19,4.77,1.19l.6.6v.45a7.33,7.33,0,0,1-.89,2.38c-.3,1.6-.75,2.39-1.35,2.39h-.89a8,8,0,0,0-5.08,2.09c-2.89,1.4-4.33,2.44-4.33,3.14,0,.4.45.84,1.34,1.34h.15a28,28,0,0,1,5.38-1.94l.6.15a6.48,6.48,0,0,0,2.83,1.2,9.6,9.6,0,0,0,3.88-1.5c2.49-2.49,4-3.73,4.48-3.73h.6a11.19,11.19,0,0,1,2.69.75,3.12,3.12,0,0,0,1.34-.9v-.15l-.15-.45a3.87,3.87,0,0,0-2.09-3.58l-2.69.3h-.14c-.8,0-1.35-.65-1.65-1.94v-.45q3.28-1.93,3.29-3.14a11.69,11.69,0,0,0,1.79-2.83A10.76,10.76,0,0,0,168.44,242.51Zm-52.26,7.76a1.1,1.1,0,0,0-.89,1v1.34l.15,3h-.15v.15c.1,0,.2.3.3.89l-.3,5.23.59,2.09c1.1,1.69,1.9,2.54,2.39,2.54h.15c1.6,0,2.64-1.79,3.14-5.38l.89-7.46-.15-.45h-.59v.15l-.15.15-1.79,6.57H119V260l-.15-4,.15-.3,1-2.09v-.15Q120.06,251.33,116.18,250.27Zm11-1.49c-.3.1-.75.8-1.34,2.09.2,0,.3.65.3,1.94a2.45,2.45,0,0,1-.3,1.35c.2,0,.3.49.3,1.49l-.15,1.19.15.6-.45,4c.1,1.69.89,2.54,2.39,2.54a9.24,9.24,0,0,0,1.94-.6q.45-1.49,4.93-1.64l1,.15,1.79-.15h.6l.6.15c1.49-.5,2.24-1.05,2.24-1.64q0-1.5-1.65-1.5l-8.36,1.2h-.59c-.4,0-.7-.8-.9-2.39l.15-3.88-.6-1.79c-1.19-1.7-1.79-2.74-1.79-3.14Zm10.45-6.42a14.85,14.85,0,0,1-6,1l-2.24-.15c-1.19,0-1.79.1-1.79.29,0,1.3,1,2.39,3,3.29v-.15c4.08,0,6.71-1,7.91-3v-.44A.8.8,0,0,0,137.68,242.36Zm-19.56-2.24h-.59q-1.5,0-2.09,4.93v1.34a1.27,1.27,0,0,0,.74,1.05h.15l2.54-2.09h.9c1.59-.2,2.39-.7,2.39-1.5Q122.16,241.17,118.12,240.12Zm-29.56,22.1v-.3q1.05-5.67,3.88-6.42l.6-.15c2,0,3.14,1,3.43,3.14l1,6.86q0,.45-.75,1h-.44a2.59,2.59,0,0,1-1.8-.9c-1-.59-1.49-1.14-1.49-1.64v-.15c1-.7,1.44-1.19,1.34-1.49-.19-.7-.74-1-1.64-.9l-1.19.15-.15-.15-2.09,1.35A1.88,1.88,0,0,1,88.56,262.22Zm4.63-7.92c-.9.2-1.34.35-1.34.45-.9.1-2.14.95-3.74,2.54q-3.44,1.2-5.82,9v.45a5.08,5.08,0,0,0,4.33,1l1-.45,1.19-2.68h.75a6.16,6.16,0,0,0,3,3,12.27,12.27,0,0,0,5.38.3l.89-.3q1.5-.45.6-3.73l-.3-1.19.15-.15-.15-.15-.6-3.29Q96.78,253.41,93.19,254.3Zm8.51-12.24h-.45c-2.78,1.59-4.48,2.39-5.07,2.39L94.83,244c-.3,0-.5.25-.59.75l.14.6q0,3.14,2.54,3.88a1.44,1.44,0,0,0,1.35-.9q.74-4.92,2.39-4.92h.59l.45.44v1.65l.6.15c1.89,0,3.08-.6,3.58-1.8v-.3C105.88,243.06,104.49,242.56,101.7,242.06ZM84.08,233.4a1.56,1.56,0,0,0-.59.75l.44,2.09a43.13,43.13,0,0,0-2.39,4.63q.75,3.13,1,4.92l1.64-1.19h.9a1.05,1.05,0,0,1,1,.75v.44l-.3.6q-8.5,5.09-9.55,5.08t-1-.9c.4-.4,1.3-1.14,2.69-2.24a7.58,7.58,0,0,0,2.84-1.94q-.9,0-4.48,2.24c-2.29.7-3.44,1.64-3.44,2.84.2,1.79.85,2.69,2,2.69l4.62-1.95c2.39-1.69,3.89-2.53,4.48-2.53h.15a1.05,1.05,0,0,1,.75,1v.15q0,1-2.84,6.57l.15.3L84.68,256q3-4.78,1.94-4l.75.15q3.59,2.24,4.18,2.23c.69,0,1-1.29,1-3.88h-.15v-.3H92l-.9.6h-.6c-.59-.1-1.59-.35-3-.74a3.68,3.68,0,0,1,.89-1.95,2.32,2.32,0,0,1,1.5-1.94c2.19-.69,3.28-1.29,3.28-1.79v-.15c0-.3-.25-.55-.75-.74a10.71,10.71,0,0,0-3.58,1.34c-.8,0-1.19-.35-1.19-1.05v-.15l1.19-.89c2.19-1,3.38-1.74,3.58-2.24v-.15a1.34,1.34,0,0,0-1.19-.75l-1.94.3c-1.69,1.2-2.74,1.79-3.14,1.79-.69,0-1-.44-1-1.34v-.6l.74-2.68c-.49-2.39-1-3.59-1.64-3.59ZM48.7,249.68c.59-.45,1.64-.6,1.19-1.65,0-.59-.89-.59-1.34-.59-1-.15-1-.9-1.79-.9-1.2,0-1.2.15-1.35,1.34,0,.75-.74,1.2-1.34,1.5-.9.74-1.94.6-3.14.6-.44,0-2.09.29-2.09-.15-.15-.3.6-.9.75-1.05a9.6,9.6,0,0,1,1-1.49c.15-.15.75-.6.75-.9a5,5,0,0,1,.9-.89c.3-.45.74-.9,1-1.35s1.2-1.49,1.64-1.49c.75,0,.75-1,.75-1.49.3-.9,1.49-1,1.79-1.65,0-.15,2.84-.89,1.65-1.49-.6-.15-.9-1.19-1.35-1.49a2.21,2.21,0,0,0-1.34-.6,1.75,1.75,0,0,0-1.05.3c-.89.6-.59,1.94-.74,2.84a6.84,6.84,0,0,1-1.5,2.09,16.9,16.9,0,0,0-1.64,1.64,5.34,5.34,0,0,1-1.64,2.09c-.6.15-1.35,1.49-1.64,1.79s-1.5,2.24-1.8,2.24-.59.75-.74.75c-.45.59-.6.59-.75,1A11.07,11.07,0,0,0,35,253c.6.15,1,.3,1.49-.15.15,0,.3-.45.45-.74a6,6,0,0,1,1.64,0,36.27,36.27,0,0,1,4,0c1,.14.89.29,1.19,1.19a6.31,6.31,0,0,1,.3,1.64c.15,1.2-.3,2.54-1.49,2.69-.45.15-1.35.75-1.65.15a8.47,8.47,0,0,1,.15-1.94v-1.5c0-.14-.3.15-.3.15s-.89,1.2-.89,1.2c0,.45-1.64,1.64-2.09,1.64-.15,0-.9-.15-.9,0v2.39c-.15,1-.3,3.58.9,3.73.45.15,1-.3,1.34-.45a5.81,5.81,0,0,0,1-.74c.3-.15.3-.15.44-.9,0-.45,0-.45.3-.6a5.76,5.76,0,0,1,1.35-.74c.45-.15.59-.75,1.19-.3.45.15.6.9.75,1.34s.3.6.3,1.5a2.13,2.13,0,0,0,.3,1,2,2,0,0,0,1,1.2c.3.15,1.79.29,1.79-.45a14.53,14.53,0,0,0-.3-3.59c-.15-.89-.74-2.09-.89-3.13,0-1.64,1.19-3.14,2.24-4.18.3-.45,1.34-2.24,0-1.94-1.05,0-.75,1.34-1.5,1.64-.74.15-.89.15-.89-.6,0-.15.45-1.49.74-1.49S48.25,249.83,48.7,249.68ZM58,244.9c0,.75-.29,1.64-.29,2.39a24,24,0,0,1-.15,3.28c0,.45.29,3-.9,3a2,2,0,0,0-1.79.6c-.15.14-.6.74-.75.74-1,.3.3-1.94.45-2.09.15-.3.75-1.79,1.19-1.79s1.2-1.94,1.2-2.09a2.51,2.51,0,0,0-.6-2.09c-.15-.15-.6-.3-.6-.6s0-.3,0-.45a11.58,11.58,0,0,1,.9-1.94C57.51,242.21,57.51,244.3,58,244.9Zm6.87,7.46a.86.86,0,0,0,0-1c.15-.3-.3-.75-.3-1s-1-.74-1.19-.74c-.3-.15-.6-.9-.75-1.35-.15-1.34.15-2.83,0-4,.15-1.49.6-2.54.3-4,0-.3-.15-1.49-.6-1.49s-.74-.15-.74-.6c0-1-.75-1.49-1.5-.9-.14.15-1.19.6-1.19.9,0,0-.9.3-1.05.6-.74.6-.29,2.39-2.09,2.09-.74-.15-.89-1.05-1.49-1.05-.3,0-.75-.44-1.19.3-.3.45,0,1.2.44,1.64a3.13,3.13,0,0,1,.6,3c-.3.3-.89.6-1.19.9s-.15,1-.45,1.19a9.19,9.19,0,0,1,.6.9,4.69,4.69,0,0,0,.3,1,5.86,5.86,0,0,1,.14,2.24,2.89,2.89,0,0,0-.59.9c-.15.15-.45.59-.6.74s-.9,1.2-.9,1.2c-.44,0-.89,1.94-.89,2.24a14.87,14.87,0,0,0-.45,2.54c0,1.34,2.09.44,2.39,0s.45-.6.75-.9c.59-.45,1.19-.3,1.49-.45s2.24-1.94,2.54-1.19a22,22,0,0,1,.15,4.48v3a41.69,41.69,0,0,0,0,4.33,27.57,27.57,0,0,1,.15,3.44,20.85,20.85,0,0,1,.15,3c0,.45.59-.3.59-.45a18.47,18.47,0,0,0,.3-3.13c0-.3.3-1.05.3-1.49s.45-.9.45-1.2a35.13,35.13,0,0,1,.74-3.73,26.46,26.46,0,0,1,.9-2.54,10,10,0,0,0,.75-2.84c0-.59-.15-4.48.74-4.48a8,8,0,0,0,1.65-.74A2.43,2.43,0,0,0,64.82,252.36Zm-46.58,1.2c0-.45,0-.75.45-.9C19.13,252.66,19.13,253.41,18.24,253.56Zm3.88-8.21c1.2.3-2.54,4.33-3.13,4.33-1.65.59-.45-2.54-.45-3S21.52,244.75,22.12,245.35Zm5.82-.15c.9-2.24-3-2.09-3.88-2.09-1.19,0-1.64.59-2.54.59s-1.94.6-3,.6c0-2.09-.15-3.58-.15-4.93s-.9-.89-1.94-1.34c-.6,0-1-.3-1-1.19-.45-.9-.89-1.35-2.39-1.35a16.23,16.23,0,0,1-1.49,1.35V238c0,1.05.45.45.45,1.05a3.13,3.13,0,0,1,1,1.79c.15,1.19-.44,2.39-.44,3.58v1.94c0,.9-.45.9-1.35,1.49a16.77,16.77,0,0,1-2.09,1.65c0,.45-1.64,1.34-1.64,1.79l-1,.6c-.44.59-.44,1-1,1a1,1,0,0,1-1.05.75c-.29,0-1.49,0-1.49-.45,0-.75-.3-1.94-.3-2.39C2,250,2,249.08,1.37,248c-.45.15-.45.45-1,1.2a3.89,3.89,0,0,0-.3,2.24,11.53,11.53,0,0,0,.45,4.18,5.77,5.77,0,0,0,.6,1.34c.45,1.05.45,1.35,1,1.64a2,2,0,0,0,3.29,0c.6,0,.6,0,.6-.29s.44-.3.44-1A3.17,3.17,0,0,0,6,255.5c0-1.05,1.49-1.05,1.94-1.05s.89-1.19,1.34-1.49a2.26,2.26,0,0,1,2.54-.15c.45.3,0,1.94,0,2.54v1.79c0,1.05-1.94,1.35-3,1.2-.45,0-.45-.3-.89-.3a4.16,4.16,0,0,0,.15,1.19c0,1.2.89,1.2,1.34,1.94.6-.59,2.54-2.09,2.54-.59,0,1.94.15,3.43.15,5.37,0,.9.74,2.54.74,3.88a7.5,7.5,0,0,0,.9,3.59,4.74,4.74,0,0,0,.6-2.39c0-1.2-.15-2.09.45-2.84.29-1.79.74-3.14,1-4.78,0-.89,1-.89,1-1.79v-1.94a2.34,2.34,0,0,1,.44-1.19c.45-.6.9-1.35,1.35-1.95.44,0,1-.59,1-.59,1.05-.45,1.5,0,1.94-.45.6,0,0-.3.6-.9.3-.44.75,0,1.19-.44,0-.75,1.35-1.2,1.35-1.2a3.47,3.47,0,0,0-1.35-.3c-.44,0-3.73.75-3.73.75v-1.2A1.76,1.76,0,0,0,20,251a13.33,13.33,0,0,0,2.09-1.34c.3-.45.75-.45,1.2-.9a3,3,0,0,1,1.64-1c.45,0,1-1.05,1.34-1.05C26.75,246.24,27.94,245.5,27.94,245.2Z"/></g></g></svg>