<svg xmlns="http://www.w3.org/2000/svg" viewBox="0 0 887.46 244.06"><defs><style>.cls-1{fill:#fff;}</style></defs><title>资源 1</title><g id="图层_2" data-name="图层 2"><g id="图层_1-2" data-name="图层 1"><path class="cls-1" d="M555.07,28c-10.7-1.3-21.5-2.6-32.2-4-1.4-.2-4,1.1-4.1-1.3,0-2.1,2.3-3.2,4.5-3.1a116.92,116.92,0,0,1,11.9.8,7.05,7.05,0,0,0,6-1.6c1-.9,2.1-1.9,1.7-3.4s-2-1.5-3.3-1.6c-4.9-.3-9.8-.6-15.1-.9,1.2-2.2,2.2-3.7,2.9-5.3s1.6-3.6-.2-5c-2-1.6-3.3.3-4.7,1.3-2.4,1.7-3.4,4.5-4.9,6.9-1,1.5-1.8,2.3-3.5,1.8-4.4-1.2-8.3-.6-13,.6-6.7,1.7-14.5-.7-22.5-1.4,2.7-3.3,6.1-5.2,7-9.5a18.34,18.34,0,0,0-10.4,6.5,8.06,8.06,0,0,1-8.3,3.3c-6.6-.9-11.8.9-14.7,7.3-.5,1.2-2,2.1-.7,3.5,1.1,1.1,2.5.7,3.7.1a21.27,21.27,0,0,1,12.2-1.7,56,56,0,0,0-13.9,16.9c-1.1,1.9-1.7,3.8-.6,5.6,1.2,2.1,3.1,1.2,4.8.4,4.4-2,9.2-1.2,13.7-2.1,1.1-.2,2.2,0,2.5,1.1.3,1.5-.9,2-2,2.3-.8.2-1.7.2-2.5.4-6.3,1.6-12.6,3.1-18.4,6.1-2.2,1.2-3.2,2.2-1.3,5,2.5,3.5,4.9,4.1,8.9,3.1,4.6-1.1,8.9-3.6,13.8-3.4.7,1.4-.7,1.9-.7,2.8.1,3.6.2,7.3,2.5,10.4a1.42,1.42,0,0,0,2.2.1c2.9-2.4,3.4-5.8,2.9-9.1-.7-4.9,1.6-6.8,5.8-7.2a12.94,12.94,0,0,0,7.5-3.6,3.76,3.76,0,0,0,1.3-4.1c-.6-1.9-2.2-1.5-3.8-1.5-3,.2-6,.2-9,.3-.9,0-1.8-.1-1.8-1.2a1.58,1.58,0,0,1,1.7-1.5c1.5,0,3,.3,4.4.4,4.3,0,9.2.8,11.1-4.4,1.6-4.3,5.4-4.4,8.7-5.8.7-.3,1.8-.5,2,.7a2.34,2.34,0,0,1-.7,1.7c-1.9,1.8-4,3.4-5.9,5.3-2.5,2.5-3.1,7.2-.9,8.3a33.19,33.19,0,0,1,15.5,17.1c1.2,2.8,3.4,5.6,7,3.6a6,6,0,0,0,2.6-8.2c-1.1-2.2-.5-3.6,1.1-4.7,3.1-2.2,5.4-5.4,9-7.1a8.19,8.19,0,0,0,4.5-5.7c.4-1.7.2-2.9-2-3-7.7-.5-15.1-4.1-23.2-2.6-1,.2-2.7.5-2.7-1.2,0-1.3.6-2.8,2.1-3a21.16,21.16,0,0,1,5,.2c8.6,1.1,17.2,2.1,25.5,4.4,5.5,1.5,9.1-1.9,12.9-4.8a3.56,3.56,0,0,0,1.1-3.7C557.77,28.23,556.47,28.13,555.07,28Zm-80.4-5.4c0,.5-.1,1-.1,1.5-.1,10.4-.1,10.4-11.3,10.8,3.2-4.7,6-8.9,8.9-13.1a2.15,2.15,0,0,1,1.5-1C474.57,20.83,474.77,21.73,474.67,22.63Zm48.6,23.5c1,.3,2.5.4,2.7,1.8.2,1.1-1,1.6-1.7,2.2-4.7,4.1-6.3,3.8-13.1-2.9C515.37,45.83,519.27,44.93,523.27,46.13Zm-12.2-22.2c-5.3.2-10.5,1.7-15.7,2.6-2.6.4-4.3,1.6-4.8,4.2-.2,1.3-.8,2.2-2.2,2.2-2.3.1-4.8,2.2-6.6.4-1.4-1.5.6-3.6,1.2-5.5.4-1.5.9-2.9.3-4.4-1.3-3.1.7-2.8,2.6-2.7,8.3.8,16.6,1.4,24.8-.5,1.1-.3,2.6-.4,2.8,1.2S512.57,23.93,511.07,23.93Z"/><path class="cls-1" d="M539.47,147.63c-9.1-.9-18.2-1.8-27.3-2.8-1.2-.1-3,.6-3.4-1.1-.4-1.5,1-2.2,2.1-3a6.5,6.5,0,0,1,4.3-.9c2.8.3,5.6.7,8.4,1,6,.7,9.2-2.3,8.3-7.9a1.36,1.36,0,0,1,.6-1.5c4.2-3.6,1.3-4.9-2-6-3.1-1.1-6.2-2.3-8.5-4.7,3-3.5,6.7-4.5,10.9-4.9,2.3-.2,4.9-1.5,4.8-4.2-.1-2.4-2.6-3.2-4.7-3.8a13.32,13.32,0,0,0-1.9-.5c-6.5-.6-12.9-2.3-19.7-.7-5.6,1.3-11.6,1.1-17.4,1.4-1.9.1-3.9.3-5.6-1.3-3.2-3-7.3-2.6-10.8-1.1-6.2,2.7-12.2,6-18.3,8.9a7.57,7.57,0,0,0-4.5,6.7c-.1,2.8,2.8,3.8,5.2,4.6a3.38,3.38,0,0,1,1.1.7c-2.4,1.9-4.6,3.5-6.8,5.3-2.6,2.1-3.7,4.7-2.3,7.9,1.5,3.5,4.3,2.9,7.2,2.4h0c2.3-2.7,6.9-3.5,7-8.1-3.4-.3-2.2-1.6-.4-2.5,5.3-2.8,9.5-7.2,14.4-10.6,1.6-1.5,3.4-3,4.9-4.7,1.9-1.9,3.2-.2,4.7.5.8.3,1.8.6,1.3,1.5a3.32,3.32,0,0,1-3.8,1.5,5.27,5.27,0,0,0-5.9,2.3c.9,1.1,2.9,1.9.4,3.7s-4.7,4.2-8.1,4.2c-2.8,0-3.7,2.4-5.2,4,.1,6.2-5.3,7.3-9.2,9.8-2.2.8-4.4,1.5-6.5,2.4-1.7.7-4.1,1.3-3.9,3.3.3,3.2,3.1,5.1,5.6,6.6,1.9,1.2,3.3-.3,4.6-1.8,2.7-3.1,6.1-5.7,7.3-9.9a2.15,2.15,0,0,1,2.2-1.7c1.3.1,1.3,1.4,1.5,2.3a27.4,27.4,0,0,1-.3,11.4c-.6,2-.6,4.9,2.3,5a3.73,3.73,0,0,0,3.9-4.7c-.9-4.1,2.3-6.8,2.9-10,1.2-6.1,5.1-3.7,8.3-4a3.47,3.47,0,0,0,2.2-1c2-2.3,4.7-2.2,7.4-2.3,1.5-.1,3.5-1,3.7,1.7.2,2.4-.7,3.6-3.4,3.8-5,.3-9.6,2.4-14.4,3.9-3.6,1.2-4.7,3.9-3.2,7.5,1.6,3.8,4.3,3.1,7,1.6a24.84,24.84,0,0,1,12.5-3,96,96,0,0,1,28.6,4,13.8,13.8,0,0,0,14.8-4.1c1.2-1.4,2.5-2.7,1.7-4.8C543.17,148,541.37,147.83,539.47,147.63ZM481.57,114c-.8,1.6-2.6,3.2-4.2,3-3.2-.5-6.6.3-9.8-1.5,2.2-2.5,5.1-3.7,7.7-5.3,1.6-.9,2.9-1.4,4.3.3C480.47,111.53,482.37,112.33,481.57,114Zm38.6,15c.7,1.4,2.4,1.5,3.7,2.3-4.9,1.8-5.3,1.7-5.5-1.4-1.4-2.1-4.6-1.8-5.7-5C515.87,125.43,518.47,126.33,520.17,129Zm-7.6-13.2c-.6,3.5-2,4.3-3.9,5C508,117.83,510.47,117.83,512.57,115.83Zm-6.3-2c-1.4,2.4-2.8,3.8-6.1,3.7C502,115.33,503.27,113.63,506.27,113.83Zm-23.8,18.8c4.5-4.1,7.6-7.2,12.7-3.5,2.1,1.5,4.7,2.6,7.3.7-.5-3.5-4.8-3.7-6.2-7.3,3.3,1.5,6.1,2.8,8.2,5.2,1.9,1.1,3.7,2.1,6.9,4C501.17,131.33,492.47,133.43,482.47,132.63Z"/><path class="cls-1" d="M867.07,158.63a101.06,101.06,0,0,1-21.9-14.4c1.6-1.1,2.8-.1,4.1,0,4.9.2,9.7,1.9,14.4-1.4,2.9-2.1,2.9-3.6.5-5.8-1.6-1.4-3.3-2.3-5.4-1.7a19.37,19.37,0,0,1-10.4-.6c-2.6-.7-7.9-.3-7.3-2.1,1.1-3.1,5-.4,7.7.1,3.2.6,6.2-.7,6.7-3.4s-2.7-3.8-5.3-4.1-5-.3-7.5-.4c-1.7-.1-2.3-1-2.2-2.6,0-1-.2-2.5,1.2-2.1,3.3,1,7.3-.8,10.1,2.7,2.6,3.1,4.8,2.6,6.7-1.1,1.3-2.5,2.6-4.9,1-7.9-1-1.8.1-3.2,1.9-4,1.4-.6,3-1.3,1.9-3.2s-2.8-1.7-4.4-.8-3.9,2.1-4.1,3.4c-.7,4.6-3.9,4-6.8,3.6a118.44,118.44,0,0,0-40.7,1.6c-2.3.5-4.8,1.7-5.3-2s2.5-3.2,4.5-3.6c10.3-2,20.5-.3,30.8.6,4.7.4,9.4,2.5,14.2.6.9-.4,1.9-.9,1.8-2.1s-1.1-1.1-1.8-1.2c-17.1-2.3-34.2-5.7-51.4.1-7.3,2.5-7.6,2.6-4.8,9.5,3.7,9.2,3.9,18.1-2.6,26.4-3.6,4.6-7.3,9.1-10.9,13.6-1.2,1.5-4.3,2.9-1,5,2.5,1.7,5.3,3.1,7.5-1,1.4-2.6,2.9-5.3,5.9-6.5,2.9-8.1,9.1-11.7,17.3-12.6,2.6-.3,3.6.6,2.6,3-1.3,2.9-2.9,5.6-6.7,6-2.3.2-4.6.9-6.9,1.1-5.2.5-6.3,2.1-5,7.6,1.1.4,2.1,1.2,3.2,1.2,8-.1,16-.1,23.9-.5a15.66,15.66,0,0,0,11.8-5.6,12.13,12.13,0,0,0,.1-1.8c-.3-2.2-2.1-2.6-4.7-2.1-1.7.3-3.4,1.5-5.3.5a5.56,5.56,0,0,1,4.5-5.3c2.6-.7,3.9,1.2,5.1,3.1a26.5,26.5,0,0,0,2.1,2.6c4,4.2,7.9,8.4,11.9,12.5,4.7,4.8,9.6,8.7,17,6.5,3.1-.9,6.5-1.3,7.1-5.2C873.07,160.73,869.67,159.93,867.07,158.63Zm-63.6-23.1c1.9-2.4,1.9-2.4,10.6-3.2C812.87,134.23,812.87,134.23,803.47,135.53Zm5.3-8.6c-1.3.3-2.6.6-3.1-1.3-.4-1.7,0-2.6,1.7-3.5,3.5-1.7,5.7-.9,7.5,3C812.57,125.83,810.67,126.53,808.77,126.93Zm9.6,23.5c-.1.3-1.1.5-1.7.5-.2,0-.6-.8-.5-1a92,92,0,0,0,4-8.4c.5-1.1,3.5-1,5.4-1.4a10.54,10.54,0,0,0,.7,1.1C823.27,144,819.87,146.43,818.37,150.43Zm13.8-17.5h-10.6c3.3-3.3,7.1-2.7,10.7-2.9,1-.1,1.5.7,1.6,1.5A1.51,1.51,0,0,1,832.17,132.93Zm-.3-8.8c-1.3-.1-2.6,0-3.5,0a15.84,15.84,0,0,0-3.4.3c-2.6.8-3.9-.6-4.1-2.8-.3-2.7,2.1-1.4,3.2-1.6a68.2,68.2,0,0,1,7.9-.7c1.5-.1,3-.2,3,2.1S833.87,124.23,831.87,124.13Z"/><path class="cls-1" d="M576.17,51.83a26.52,26.52,0,0,0,11-8.2c.7,6.9-.4,12.7,1,18.4.4,1.6.9,2.9,2.8,2.9a3.25,3.25,0,0,0,3.3-2.5,9.41,9.41,0,0,0,.3-4.4c-.8-5,0-10-.3-15-.1-1.1-.7-2.8,1.4-3.2,1.1-.2,10.5,4.9,10.5,6.1.2,3.2,2.2,3.2,4.6,2.9a32,32,0,0,0,11.3-3.7c4.3-2.5,6.1.9,7.7,3.7,2,3.3-1.4,3.9-3.2,4.7-5.7,2.8-11.8,4.5-18.3,3.7-4.1-.5-6.6,2.4-7.1,5.6-.7,3.6,3,4.7,5.8,4.6,6.4-.1,12.7-1,18-4.8,8.2-5.9,16-12.1,26.5-14,6.4-1.2,7.8-7.1,3.9-12.2-1-1.3-2.1-2.6-3-4-4.3-6.6-5.3-6.8-12.3-2.6-8.8,5.3-18.1,9.8-28.7,10.2-1.1,0-2.7.7-2.8-.9-.2-3.5-3.1-3.9-5.4-5.2-1.6-.9-4-1.1-4-3.8,9.3-1.2,16.5-6.9,24.6-10.8,1,1.6,2,3.3,3.3,5.4-4.7,1.9-8.8,3.6-13,5.2-3,1.1-3,3.3-2.3,5.7.8,2.9,3,2.8,5.2,1.8,11.5-5,23-10.1,34.5-15.2a20.94,20.94,0,0,0,6.7-5.1,2.65,2.65,0,0,0,.7-3.1c-2.6-6.7-16.9-11.3-23.1-7.6-10.8,6.5-21.8,12.5-34,16-1.9.6-4.1.8-5.6-.7s-.2-3,.2-4.6c1-4.4,3.3-6.3,7.9-5.2,1.3.3,2.9-.9,4.3-.9,3.1.1,4.3-1.4,4-4.2-.4-3.2-2.7-3.2-5.2-3.1-3.8.2-7.6.2-11.5.2-5.8,0-11.6.1-17.2,2.4a7.87,7.87,0,0,0-4.8,4.8c-.6,1.5-.9,2.8.2,4.2a3.46,3.46,0,0,0,4,1.1c3.2-.9,6.5-1.8,9.8-2.8.2,7.2.2,7.2-6.4,9.5-3.9,1.3-8.2,1.7-11,5.3-1.2,1.6-2.5,3.3-1,5.4s3.5,1.5,5.5,1c1.4-.4,2.8-1.1,4.2-1.5s2.6-1.9,4.5-.8a41.18,41.18,0,0,1-15,10c-4.2,1.7-4.5,3.8-1.7,7.3C569.67,52.43,572.57,53.33,576.17,51.83Zm62-15.5c1.4-.8,3.3-2.6,4.3.3.8,2.3,2.6,3.7,3.9,5.5-6.7,4.1-8.5,3.7-11-2.7C634.47,37.13,636.87,37,638.17,36.33Zm8.4-19.7c.3.3.6,1.1.5,1.2-1.5,1.8-3.9,1.4-5.8,2.3-1.1.5-2.3,1-2.9-.5-.9-2.5-3.2-3.7-5.4-5.6C638,12.13,644.17,13.53,646.57,16.63Z"/><path class="cls-1" d="M307.57,148.63c-1.2-.1-2.3-.3-3.5-.5-20.3-3.2-40.6-7.2-61.4-4.4-2.7.4-5.4,1.8-8.8.8,6-9.8,5.8-20.4,5.1-31.1-.2-2.8,1-3.3,3.4-3.6a144.17,144.17,0,0,0,17.3-2.5c6.5-1.5,13.2-3.2,19.2,2.1-1.1,2.3-3.7,3.1-5.5,4.7-2.6,2.3-4.9,2.7-8.3.9-3.7-2-8.1-2.8-12.3-4-2.9-.8-5.7,0-6.5,2.9-.8,3.1,1.5,5,4.5,5.5a19.4,19.4,0,0,1,9.2,4.5,22.4,22.4,0,0,1-14.1,6.6c-3.7.4-6,2.7-5.3,5.7.8,3.2,4.1,3.7,7.4,2.7,4.1-1.2,7.6-3.4,11.1-5.7,8.1-5.2,8.1-5.4,14.7,1.4a23.49,23.49,0,0,1,2.4,3.7c2.9,5,10.3,6.8,15.2,3.8,3.7-2.3,4-5.6.5-8.4-4.7-3.9-9.3-8.1-14.4-11.4-1.5-1-2.9-1.8-1.3-4.3,5.3-8.3,12.7-11.2,22.1-9.1a9.85,9.85,0,0,0,5.9-.4c2.4-.8,5-1.9,4.8-4.9s-3.1-3.1-5.4-3.2c-13.3-.9-26.5-2-39.8-2.5a121.9,121.9,0,0,0-30.7,2.7c-5.2,1.1-6.4,4.1-4.1,8.9,1,2.1,2.9,3.9,3.3,6.1,2.4,11.9,1.8,23.2-7.5,32.4-2.8,2.8-3.7,6.3-1.8,9.5,2.1,3.6,5.8,2.4,9,1.4s6.5-2.6,10-3.1a113,113,0,0,1,53.5,4.8,14.75,14.75,0,0,0,15.5-3.7c1.9-2,1.8-4.1,1.2-6.5S309.27,148.83,307.57,148.63Z"/><path class="cls-1" d="M783.27,47.43c-.9-2.3-3.1-2.1-5.1-2.3-5.6-.5-11.3.6-16.8-1.3-4.9,0-9.9.9-14.8-.4,4.9-.6,9.8-1.5,14.8-.5,2.1-1.4,2.7-2.9,2.4-5.7-.4-3.8-2.9-7.9.4-11.8,1.1-1.2-.3-2.5-1.5-3.2a40.9,40.9,0,0,0-4.6-2.1c3.6-.8,6.5.4,9.5.2,1.9-.1,4.1-.4,4.3-2.6s-1.9-2.7-3.8-3a26.6,26.6,0,0,0-6.9-.2c-1.4.2-3.9-.1-1.9-2.8,1-1.3,2.8-2.5,1-4.2-2.1-1.9-3.6.1-4.5,1.4-2.9,4.4-7,5-11.7,4.3a16.77,16.77,0,0,0-5,.1c-3.4.6-6.3,1.2-6.3-3.9a2.36,2.36,0,0,0-2.8-2.3c-1.9.5-1.8,2-1,3.6.6,1.1,1.4,2.9-.9,2.9-5.2-.1-10.2,1.5-15.4,1-2.9-.3-3.8-1.5-3.4-4.1.2-1.1.2-2.3.4-3.5.3-2.6-1-4.4-3.4-4.6s-3.4,1.7-3.8,3.8a10.07,10.07,0,0,0-.1,3c.4,4-1.7,5.1-5.4,5a17.34,17.34,0,0,0-11.8,3.3c-1.6,1.2-2.4,2.8-1.7,4.8a3.71,3.71,0,0,0,3.9,2.5c2.8,0,5.7-.1,8.5,0,1.7.1,4.2-1.2,4.8,1.1s-1.7,3.2-3.3,4.4c-5.5,4.4-12.3,4.8-18.6,6.6-3.1.9-3.7,1.8-1.3,4.2a29.19,29.19,0,0,1,2.1,2.8c4.1,5.3,10,5.1,14-.5,2-2.8,4-5.7,7.6-8.1a110,110,0,0,1-3.2,21.1c-.8,3.6.4,6.8,3.8,7.6s5.7-1.8,6.5-4.9c.6-2.5.8-5.6-.5-7.8-3.2-5.4-.6-10.1.5-15.1,2.3.3,2.5,2.1,3.7,3,2.7,2,6,3.6,8.4.8s1.1-5.9-1.8-8.2c-1.5-1.2-3.3-1.5-4.9-2.3-2.1-1.1-4.6-3-3.5-5.2,1.5-3.1,5.5-3.1,8.5-2.8,2,.2,4.8-.8,6.4,2.9,2.1,4.8,1.3,8.3-1.2,12.4s-1.6,5.6,3.4,6.2c2.9-.3,5.8-.7,8.7-1a6.47,6.47,0,0,1-.9.8h0c-2.4,1.8-5.1,1.6-7.8,1.2-4,1.2-8.2.8-12.3,1.2-3.1.3-4.4,2.4-3.9,5.2.6,3.2,3,2.9,5.5,2.2a41.45,41.45,0,0,1,13.6-1.9c-3.5,3.4-7.8,4.1-12.4,4.4-2.3.1-3.8,1-3.4,3.7.4,2.5,1.9,3.4,4.2,3,6.8-1.2,13.4-3.2,18.3-8.3,3.5-3.7,7.3-4,11.7-3.2,6.3,1.3,12.7,2.4,18.8,4.7,4.5,1.7,9.5,2.4,13.6-1.4C782.67,52,784.27,50.13,783.27,47.43Zm-35.7-29.6a.93.93,0,0,1,.8,1.4,2,2,0,0,1-1.5.8c-4.2,0-8.5.4-12.3-2.1C739,16.43,743.27,18,747.57,17.83Zm.8,9.1a61.5,61.5,0,0,0,7.4.6c1,0,1.7,0,1.6,1.1a1.12,1.12,0,0,1-1.4,1c-7.1-.4-14.2-1-21.5-.9C738.87,26.43,743.57,26.33,748.37,26.93Zm-17.8,10.5a4.87,4.87,0,0,0-.1-1.2c8.5-1.7,16.9-2.4,25.3,1.2Z"/><path class="cls-1" d="M317.47,57.83c-9.1-1.8-18-4.4-26.1-9.3-2.4-1.5-1.9-2.1-.1-3.8a73.94,73.94,0,0,0,7.9-8.9c2.2-2.9,1.8-5.3-2.3-6l-6.9-1.2c-1.5-.3-3-.5-2.8-2.6.2-1.8,1.4-2.1,2.9-2a52,52,0,0,1,6.9.6,15.86,15.86,0,0,0,7.8-.5c2.2-.8,3.6-1.9,3.1-4.3s-1.6-3.9-4.4-3.8c-3.2.1-6.4-.3-9.5,0-4.6.5-6.6-1.2-6.5-6,0-2.5-.1-6.4-3.2-6.5s-4.1,3.8-5.1,6.6a.9.9,0,0,0-.1.5c0,2.9.3,5.9-4.1,5.7-3.1-.1-4.9,3.7-7.9,3a47.09,47.09,0,0,0-12.4-.8c-4.5.2-6.5-1.1-5.8-5.8.2-1.6-.4-3.3-.7-4.9-.5-2.7-1.9-4.8-4.9-4.8s-4.6,2.1-4.7,4.9c-.1,7.4-4.7,9.9-11,10.8a7.27,7.27,0,0,0-2.9.7c-2.5,1.4-4.3,3.6-3.6,6.5s3.5,3.3,6.1,2.8,5.2-1.3,7.8-1.8c1.6-.3,3.6-.8,4.1,1.6s-1.1,3.3-3.2,3.6a38.27,38.27,0,0,0-10.5,3c-2.1,1-2.9,2.2-2.2,4.7,1.2,4.9,4,4.2,7.6,2.9,2.5-1,6.1-3.5,7.6-1,1.7,2.7.5,6.8-2,9.7a11.32,11.32,0,0,1-3.3,2.9,67.18,67.18,0,0,1-8.8,3.5c-1.7.6-4.3.2-3.4,2.9.7,2.3,1.4,5.9,5,5.1,5.7-1.4,11.7-2,15.2-8.1a19.48,19.48,0,0,0,2.8-11.9c-.4-4.6,1.3-7,5.9-6.9a8.29,8.29,0,0,0,5.4-2.3c1.6-1.3,3.2-2.6,2.2-5-.9-2.2-2.8-1.9-4.7-1.8-2.4.2-4.7.3-7.7.5,2.8-6.2,7.4-4.3,11.2-4.3,2.1,0,4.2,1.2,6.3.1,4.5-2.2,9.5-1.9,14.3-2.4,1.2-.1,2.6,0,2.6,1.6s-.3,3-2.3,3.2l-7.5.6c-4,.3-6.5,2.1-6.6,6.6,9.2.5,18.4-1.6,27.4,1.5-4.7,5.1-9.6,7.2-15.5,2.6-3.3-2.5-6.9-1.8-10.5-1.7-1.5.1-3.1.7-3.4,2.4s1.2,2.3,2.3,2.9c3.3,1.6,6.6,3.1,10.5,5-7.6,4.5-14.6,7-22.5,6.7-3-.1-4.6.8-4.4,4.3.2,3.7,2.1,4.4,5.3,4.1a46,46,0,0,0,16.2-4.4c12.3-5.8,12.4-5.7,23.4,1.6a33.09,33.09,0,0,1,5,4.1,15.78,15.78,0,0,0,21.6-.1c1.3-1.2,3.6-2.2,3.1-4.1C321.87,58.43,319.57,58.23,317.47,57.83Z"/><path class="cls-1" d="M117.17,61.13A22,22,0,0,0,125,58c3.1-2.1,6.3-3.9,10.1-6.3,0,3,.1,5.3,0,7.5-.1,1.8-.7,4.1,1.9,4.3s3.4-2,3.7-4a72.42,72.42,0,0,0,.1-8.2c2.8,2.4,5,4.4,7.2,6.3,2.4,2.1,4.6,1.3,6.5-.8,2.1-2.3.1-3.9-1.1-5.6s-3.5-.9-5.8-2.9c3.2-.5,6.1-1.8,7.4-.1,3,3.7,4.8,1.1,6.3-.7,1.9-2.3,5.3-3.3,4.8-7.8-.2-1.7,4-2.8,6.9-2.5s4.9,1.3,5.2,4.3a40.12,40.12,0,0,1,.2,6c-.3,5.6-.5,11.3-2.1,16.8-.7,2.5-.4,4.9,2.3,5.8s3.2-1.6,4.1-3.4,1.6-3.6.9-5.7c-2.2-6.3-.5-12.5.5-18.7.3-1.8,1.3-2.7,3-2.5s3.6.6,5.4.7c7.1.6,14.1.9,19.3-5.3.9-1,1.9-2,1.3-3.5s-2-1.6-3.4-1.7c-3.3-.2-6.6-.5-10-.6-8.8-.4-17.5-2.6-26.3-1.6-4.2.4-6.7.6-8.4-4.3-2.2-6-2-6.7,4.4-7.4,6.8-.7,13.6-.3,20.4-.7,3.4-.2,6.1-2.7,5.6-5.8-.6-3.5-4.3-1.9-6.3-1.3-7.8,2.4-15.7,2.3-23.7,2.1-1.5,0-3-.3-4.4.5-8.1,4.6-11.1,4.2-17-2.7-2.3-2.7-4-2.8-6.6-.6-3.8,3.4-7.3,7.2-13,7.2-3.2,0-5.3,2.4-5,5.1.3,3.4,3.6,1.7,5.7,2,1.4.2,3.8-1.2,3.9,1.6.1,2.1-.3,4.4-3.4,4.5a24.38,24.38,0,0,0-5.4.9c-2.6.8-4.5,2.8-4,5.5.6,3.2,3.3,1.8,5.3,1.5,3-.4,5.9-1,8.9-1.1,1.2,0,3.6-1.5,3.7,1.6.1,2.4-.7,3.5-3.3,3.8-4.3.6-8.5,1.8-12.7,2.5-2.7.5-4.4,2.2-4.3,4.7.1,3,2.8,2.1,4.6,2.2,2.5.1,5,0,7.6,0-3,2.9-6.6,3.5-10.1,4-3.1.4-3.8,2.5-3.4,5.1C113.07,61.23,114.77,61.63,117.17,61.13Zm39-39.4c2.7-.5,4.9,1,4.8,3.1-.2,2.7-3.5,1.4-5.3,1.8-2.3.5-2.4-1.8-2.6-3.4C152.87,20.53,155,21.93,156.17,21.73ZM152,34h0c2.1.1,4.3,0,6.4.1,1.2,0,3.1-2.2,3.4.7.2,1.9.8,4.8-2.4,5.1-4.8.5-9.6.6-14.4.9-1.7.1-2.5-.9-1.9-2.5.5-1.4-1.2-4.1,2-4.2C147.37,34,149.67,34,152,34Zm-15.2-10.8c1-2,3-1.7,4.3-.9,1.9,1.2,6.2-1,5.8,2.8-.3,3.2-4,.4-5.5,1.5a7.77,7.77,0,0,1-1.3.1c-1.4-.1-3.1,1.1-4.2-.3C135.17,25.43,136.27,24.23,136.77,23.23Z"/><path class="cls-1" d="M438.27,157.83a50.47,50.47,0,0,1-8.7-6.7c-6-6.2-8.7-14.4-13.5-21.3-2.2-3.2-2.2-4.7,1.2-6.4,1.3-.6,2.9-1.7,2.1-3.5-.9-2-3.2-1.7-4.4-.8-4.3,2.8-5.7,0-7.5-3.2,3.4-.8,5.9,1.8,9,1.1,2.4-.5,4.8-.5,5-3.7.2-3.4-2.2-4-4.9-4.3-1-.1-3.1.9-2.6-1.4.4-2-.3-2.9-1.8-3.4a3.55,3.55,0,0,0-4.4,1.4c-2.3,3.8-5.1,2.4-7.6.7-2.2-1.5-4-3.5-6.1-5.2-3.2-2.7-5.7-2.4-6.8,1.5-.9,2.9-2.2,3.5-4.8,3.5a40.55,40.55,0,0,0-6.9.8c-4.4.8-8.7,1.1-12.1,4.9-3,3.4-7.9,1.8-9-2.5-.3-1.3-.7-2.6-.9-3.9s-.6-2.8-2.3-2.8a2.57,2.57,0,0,0-2.5,3.1c1.6,7.5-3.1,9.3-8.8,10.4a12.3,12.3,0,0,0-4.1,1.7c-2.2,1.5-2.5,3.9-1.8,6.3s2.8,2.4,4.9,2c3.3-.7,6.7-1.5,10.1-2.2-.5,8.2-.5,8.1-6.7,11.2-1.6.8-3.3,1.7-4.8,2.6-3.6,2.2-3.5,5.5-1.9,8.7,1.7,3.5,4,1.6,6.7.9,8.9-2.3,15.4-9.5,24.3-11.6,6.8-1.6,13.8-2.6,20.7-.4,4.6,1.4,6.6.3,6.4-4.4a17.41,17.41,0,0,1,2.3-10c.6-1,1-2.1,2.6-1.3,3.3,1.7,5,7.6,3.2,10.9-1.7,3-3.4,6.1-4.9,9.2-.7,1.5-1.6,3.7,0,4.6,1.8,1,3.4-.9,4.4-2.3a9.36,9.36,0,0,0,1.1-3.7,7.27,7.27,0,0,1,3.5-5.4c3.3,7.6,6.4,14.9,9.6,22.2,4.1,9.3,13.6,12.5,22.5,7.6C440.47,161.43,441.37,159.83,438.27,157.83Zm-72-28.1c-1.1,2-2.5,2.1-4.5.9-.9-.5-2.3,0-3.4-.1-1.8-.3-4.9,2.2-5-2.2-.1-4.9,1.9-7.8,5.2-7.7,3.2.6,6.5-.3,8.2,3.6C367.87,126.53,367.27,128,366.27,129.73Zm26.1-11.8c-1.9,10.1-9.3,10.6-17.3,10-1-.1-2.6.8-2.5-1.2a2.14,2.14,0,0,1,2.5-1.9c3,.1,5.9.1,8.9.2,2.8,0,3.9-2,5.1-4,1.1-1.8.7-3.1-1.2-4h0c-3.1-.2-6.2-.4-9.3-.7a2.31,2.31,0,0,1-2.2-2.3c-.2-1.7,1-1.8,2.2-1.8a33.28,33.28,0,0,1,14,1.9C396.07,115.33,395.07,116.83,392.37,117.93Z"/><path class="cls-1" d="M181.37,109.23c1.5-.3,3.1-.7,3.2-2.6s-1.4-2.6-2.9-2.9c-4.7-1.1-9.4-2.2-14.1-3-4.4-.8-8.8-1.9-13.2.1.3,2.8,2.4,2.7,4.4,2.9,4.4.5,8.7,1.1,14,1.7-9.6,5.3-14.8,5.8-28.3,3.2,2.1-3.9,6.6-4.8,9.2-7.8-2.3-2.6-4.6-.7-6.8.2-10.6,4.3-20.5,10.4-31.9,12.7-2,.4-3.1,1.8-4.5,3-.9.8-1.7,1.7-1.2,3s1.9,1.3,3,1c4.3-1,8.7-1.5,13-3.1,6.4-2.3,12.8-7.7,20.3-2.7.7.5,1.8.8,1.9,1.4.2,1.2-1.1,1.3-1.9,1.8-3.7,1.8-7.3,3.8-11.1,5.7-5.5,2.7-11.1,5.6-17.6,3.2-2.4-.9-4.4-.7-5.1,2.1s.4,4.3,3.1,5.3c5.3,1.8,10.3,2.1,15.2-1.1,1.2-.8,3-2.8,4.2-.8,1.7,2.6,4.2,2.6,6.6,2.7,3.9.2,3.1,1.7,1.5,3.9-5,7-12.3,9.9-20.5,11-4,.5-4.5,2.3-3.2,5.8,1.2,3,3.1,4.3,6.2,3.6,11.7-2.9,22.6-7,27.5-19.6,1.3-3.4,3.4-4.5,7.4-3.9,3.4.5,7.1,1.6,10.7.2a4.15,4.15,0,0,0,1.1-2.2c.2-1.4-.8-2.6-2.2-3.7a7.49,7.49,0,0,0-3.2-1.3c-4.9-.7-9.7-1.4-10-7.9-3.1.2-4.5,4.4-8.2,3.2,3.6-1.3,5-7.2,10.4-4.4a60.58,60.58,0,0,1,17.3,8c1.5,1,1.7,1.5.3,2.9a18.53,18.53,0,0,0-4.6,7.6c-1.2,5.1-.9,10.6-3.7,15.4-.9,1.6-2.3,4.1-.1,5.3s5.4,2.7,7.8.2c1.8-1.9,5-3.8,2.5-7.1-3.8-5.2-2.5-10.8-1.6-16.3.5-3.2,4.6-5.5,6.4-3.8,2,1.8,4.7,2.5,6.7,4.2,9.7,8.4,19.5,3.2,24.4-6.9-15.6-4.3-31.3-8.5-46.6-15.4C171.87,110.63,176.67,110.13,181.37,109.23Z"/><path class="cls-1" d="M346,56.93a39.55,39.55,0,0,0,25.1-13.8c3.6-4.2,6.6-8.9,9.8-13.4.2,5.9.3,11.5-1.3,17.1a40.49,40.49,0,0,0-1.3,18.3c.4,2.2,1.8,5.1,4.1,3.2,2.9-2.4,6.1-5,6-10.1-.2-9.5-.4-19.1,1.2-29.6,6.4,8.1,12.8,14.9,17.9,22.8,4.2,6.4,10.3,10.9,18.3,11.6a9.52,9.52,0,0,0,9.6-5.8c2-4.3-3.5-3.2-4.9-5.2a5.41,5.41,0,0,0-2.5-1.6c-14.7-5.3-23.6-17.5-34.1-28.2,7.8.4,15.5-.8,22.9,1.8,3.9,1.4,6.2-1.6,8.3-4.1,1.1-1.3,1.6-3.2.4-4.6-2.2-2.5-5.1-2.7-8.2-1.6a19,19,0,0,1-8.8,1.1c-1.5-.2-2.6-.6-2.2-2.5,1.2-6-1.7-4-4.5-2.3a29.61,29.61,0,0,0-4.1,2.8c-1.6,1.6-3.4,1.4-5.1.8-2.3-.8-1.2-2.7-1.2-4.3a32.92,32.92,0,0,0,.2-5.4,4.09,4.09,0,0,0-2.8-3.8c-2-.6-2.9,1-4.1,2.2-1.7,1.7-1.7,3.9-1.8,6,0,3.7-1.6,5.2-5.5,4.7-7.5-1-15,.1-22.4,1.3-2.9.5-5.9,1.3-5.1,5.3.8,3.7,3.6,3,6.3,2.5a68.74,68.74,0,0,1,20.8-.7c-6,9.1-12.6,16.5-22.9,19.9-3.4,1.1-6.8,2.6-10.4,3.3-3.4.7-6.3,2.6-5.7,6.3C339,54.63,342.47,57.43,346,56.93Z"/><path class="cls-1" d="M633,153.63c-.9-3.9-.6-8-2.5-11.6a5,5,0,0,1,1.3-6c1.6-1.5,2.7,1,4.1,1.6a45,45,0,0,1,8.9,5.4c5.1,3.8,10.6,3.7,15.9.8,1.7-.9,4.5-1.6,3.9-4.5-.5-2.4-2.6-3.5-4.8-3.7-13.3-1.7-24.6-8.8-37-14.2,10-8.1,10-8.1,21.7-7.7a12.3,12.3,0,0,0,6.2-1.7c.9-.5,1.9-.9,1.6-2.2a2.23,2.23,0,0,0-2.1-1.8,16.68,16.68,0,0,0-5-.5c-5.8.7-11.7,0-17.5.2a7.63,7.63,0,0,1-5.5-1.8c-4.8-4.2-8.2-4.1-13.1.1-1.1,1-1.9,2.2-3.7,2.1a50.17,50.17,0,0,0-16.8,1.8c-1.6.5-2.8-.5-4.1-1.3a12.85,12.85,0,0,0-15.9,1.6c-1.1,1-2.8,1.7-2,3.5s2.4,2.2,4.1,2.2c3.2-.1,6.2.9,9.2,1.8a17.22,17.22,0,0,0,10.3.5c4.8-1.4,7.6-1.1,12.3.9.3.1.6.3.9.4,1.6.9,4.4.8,4.4,2.6,0,2.4-3.1,1.7-4.7,2.7a15.71,15.71,0,0,1-2.3.9c-11.6,3.5-23.4,6.5-32.8,14.8-2.1,1.8-4.1,3.6-3.6,6.6a4.15,4.15,0,0,0,3.5,3.8c3,.5,5-1.1,6.7-3.4,4.2-5.7,10.4-8.7,16.5-11.6,2.3-1.1,6.4-3.1,7.6-1,1.9,3.3.5,7.5-2.2,10.6a15,15,0,0,1-5.2,3.7,30.84,30.84,0,0,0-5.5,3.3,4.52,4.52,0,0,0-1.5,5.4c.8,2.2,3,2.6,5,2.5,8.9-.7,16.7-11.1,15.2-20.1-1.1-6.3,4-13.7,10.2-14.2,2.5-.2,5.9.9,6,4,.3,6.3,2.5,12.3,1.9,18.6a24.09,24.09,0,0,0,.5,6.5c.6,3.4,3,4.3,6,3.6C632,158.33,633.77,156.83,633,153.63Zm-26.9-40c6.4-.1,11.6,1.7,17.6-.1C617.87,119.43,616.37,119.43,606.07,113.63Z"/><path class="cls-1" d="M62.67,55.63c-.6-2.3-.9-4.5.7-6.7,3.5-5,3.4-5.1-2.6-6.4l-2.4-.6c-6.6,1-13.2,2.5-20,1.8a3.89,3.89,0,0,1-1.5.2c-2.2-.3-5.7,3-6.2.1-.3-2.2,4.1-.8,6.3-1.3,7.1-.7,14.1-1.3,21.2-2,1.9-1.8,1.8-4.5,1.6-6.5-.2-3.6.9-6,3.7-7.9.8-.5,2.5-1,1.2-2.5-.9-1-2.1-.6-3.2,0-2.3,1.3-3.9,3.4-5.9,5.5-.8-1.7-1.1-3.4-2.4-4.4h-21c3.9-3.6,15.8-4.1,21-.6,3-.3,6.1-1,5.3-4.8a4.23,4.23,0,0,0-6-2.9c-5.3,2.8-10.6.8-16.3,1.4,5.9-7.4,7.7-8,15.4-5,3.2,1.2,6.5,2.6,9.6,4.1,2.2,1.1,4.1,1.1,6-.5a3.89,3.89,0,0,0,1.6-4.4c-.8-2.2-2.7-2.7-4.8-2.9a16.12,16.12,0,0,1-10.6-4.8c-3.7-3.7-5.7-4.7-9.5-1.7-4.9,3.8-10.2,6.9-14.7,11.1-2.1,1.9-4.5,4.4-7.7,4.2-4.3-.2-7.3,1.9-10.3,4.2-1.5,1-4.7,1.6-3.9,4.7s3.9,3.9,6.6,4.6c1.7.5,3.6.1,5.4-.2,3.5-.5,7.1-.6,10.6-.8-3.2,1.9-7.4,2-9,5.5-.9,2,2.5,1,3.3,2.4-2.3,1.4-7.2,1.9-5.8,4.6,2.4,4.8-1.5,4.2-3.2,5.2-2.3,1.2-5.1,1.4-6.8,3.8-1.4,2-3.2,3.6-.9,6s4.3,1.5,6.4-.5c3.9-3.9,7.7-8,12.6-11.2a6.82,6.82,0,0,0,.2,1.8c3,3.3,2.5,5.8-.9,8.7-1.6,1.4-2.6,4.2-.8,6.3,1.9,2.3,4.9,2.5,7.4,1.4,4.1-1.8,8.3-1.8,12.7-1.7,4.6.1,9.1.6,13.8-.6C63.27,61.13,63.67,59.23,62.67,55.63Zm-15.1-25.4c-3,.7-6,1.5-9,.3C41.57,29.93,44.57,28.53,47.57,30.23Zm-13.3,7.1a5.48,5.48,0,0,1,1.8-1.6c3.9-1.5,7.9-.8,12.2-.7-1.9,2-11.9,4.4-13.4,3.4C34.57,38.23,34.17,37.43,34.27,37.33Zm20.5,16.9c-2.8.2-5.6.3-8.4.5v-.2c-2.6.2-5.3.4-7.9.5-.9,0-2.2.5-2.5-.8s.8-2.1,2.1-2.2c3.8-.1,7.6-.1,11.4-.2,1.8,0,3.6-.1,5.5,0,1.1.1,3-1.3,3,.9C58,54.53,56.07,54.23,54.77,54.23Z"/><path class="cls-1" d="M105.67,151.63c-6.9-3.9-14.2-7.2-20.2-12.7-1.2-1.1-3.7-2.1-1.7-4.3,3.2-3.5,4-8.4,7.4-11.8,1.8-1.7,1-3.2-.5-4.7s-2.9-3.4-5-1.6c-2.7,2.3-6,2.8-9.2,3.6-4,2.4-8.2,4.3-13.3,3.9,4-1.7,8-3.4,12-5.2a141.58,141.58,0,0,0,15.8-8.5c2.2-1.3,3.6-2.8,3.2-5.6s-1.9-4.2-4.7-4.9c-9.9-2.5-19.8-1.7-29.6.2a9.17,9.17,0,0,0-6.5,4.9c-1.2,2.7,1.4,4.4,3.3,6.1a5.8,5.8,0,0,1-.4,8.6c-3,2.2-4,4.1,0,6.2,1.6.9.8,2.4.7,3.6a89.47,89.47,0,0,1-3.9,20.5c-1,3-1.3,6.1,3.2,5.8,7.2-.5,14.4-1.6,19.2-7.8,2.2-2.9,3.3-2.1,5.1.2,2.2,2.9,4.7,5.6,7.2,8.3,3.5,3.9,13,5.9,17.6,3.7a6.61,6.61,0,0,0,4.2-5.2C110,152.13,107.27,152.53,105.67,151.63Zm-36.7-41c2.5.2,4.7-1.5,7.7-.4-4.3,3.4-9,5.2-13.5,7.5C62.27,111.23,63.07,110.13,69,110.63Zm2.2,32.1a5.24,5.24,0,0,1-1,1.1c-2.4,1.4-4.7,4.5-7.2,3.5-2.3-.9-.5-4.4-.7-6.8-.2-2.8,0-5.6,0-9.2,4.1,2.4,6.3,5.7,9.1,8.4C72.47,140.93,72.07,141.83,71.17,142.73Zm6.6-10.6c-3.1,2.1-4.6-2.2-7.7-2.5,1.8-2.3,3.4-3.4,5.1-3.5,2-.1,4.7-2.7,5.7-.3C81.67,127.83,79.57,130.83,77.77,132.13Z"/><path class="cls-1" d="M884.17,62.93c-18.8-7-26.5-23.9-35.9-39,7.7,0,15.1.1,22.5,0,3.5,0,5.9-2.3,6-5.4.1-3.6-3.1-3.7-5.9-3.6a72,72,0,0,1-14.6-.6c.2-2.3,3.4-3.5,1.4-5.3-1.4-1.2-3.4.5-5.1,1-.3.1-.5.4-.8.6-6.3,4.9-9.3,4.3-12.6-2.9-1.2-2.6-3.2-3.8-6-3.3-2.3.4-4.6,1.7-4.1,4.2,1.1,5.3-2.3,4.1-5.1,4.2-8.2.3-16.6-.9-24.6,2.3-2,.8-3.7,1.9-3.2,4.4s2.6,3.2,5,2.9c10.4-1.2,20.9-.6,31.4-.9a5.55,5.55,0,0,1,5.5,3.4c3.4,6.1,6.3,12.4,10,18.3,5.3,8.7,9.3,18.4,17.3,25.4,5.4,4.7,14.3,4.9,19.6.1C888.47,65.63,888.37,64.53,884.17,62.93Z"/><path class="cls-1" d="M707.47,128.63c1.1-2.2,2.5-3.4,4.9-3.6,4-.4,7.9-.7,11.9-1.1h0c4.2-1,8.1.5,12.1,1.3,6,1.1,12.4.2,18,3,5.3,2.6,9.8,1.6,14.6-1.2,3.6-2.1,2.7-4,.6-6.3-1.4-1.6-3.4-1.8-5.5-2.1-6.6-.9-13.2-2-19.7-3.1-1.1-.2-3.5.3-2.4-2.4.5-1.4,1.3-3.2-.2-4.1s-3.1.5-4.6,1.3c-2.5,1.4-4,4.5-7.6,4.4q-6-.3-12,0c-2.9.1-3.4-.8-1.7-3,2.1-2.7,3-5.9,4.2-9,.5-1.3.5-2.7-1.1-3.4-1.4-.5-2.1.4-2.9,1.3a20.28,20.28,0,0,0-3.8,6.9c-.8,2.6-.8,6.2-3.5,7.4-3.9,1.6-8.2,2.1-12.8,3.3,1.5-3.4,2.8-6,3.9-8.8a4.26,4.26,0,0,0-.7-5.1,3.17,3.17,0,0,0-3.6-1c-2,.8-3.4,2.4-3.1,4.6.4,3.3-1.1,5.6-3,8.1a33.73,33.73,0,0,1-7.2,7.4c-3.2,2.2-1.8,5.3-.1,7.9s3.6,2.1,5.8.4c3.8-3,8.6-2.9,13.3-4.4-5.7,10.3-10.6,14.1-21.1,16.8-2.5.6-4.7,2-4.6,5.1.1,2.8,1.3,4.6,4.3,5.2,3.9.8,6.9-.1,10.1-2.5C698.07,145.63,703.07,137.33,707.47,128.63Z"/><path class="cls-1" d="M43,99.33H28.57v.4c-4.2,0-8.3-.1-12.5,0-3,.1-5.1,2-4,4.9,1.6,4.3.4,8.5.7,12.6a35.86,35.86,0,0,1-5.3,22.2c-2.6,4.4-4.5,9.2-6.9,13.8-1.2,2.3-.4,3.9,1.5,5a3,3,0,0,0,4.4-.9c2-3.2,4.9-6.3,5.6-9.9,2.3-11.2,9.6-14.7,19.9-14.7a3.4,3.4,0,0,0,1-.1c6.4-.4,7,.1,6.9,6.3-.1,4.3-.7,8.6-.6,12.9.1,3.3,2.6,4.5,5.6,4.2,3.2-.3,4.2-2.5,3.4-5.4-.9-3.4-.4-7-.9-10.4-.9-5.9.3-11.7-1-17.7-.9-4.3-1.9-9.8,2.2-14.6C52.07,104.13,48.57,99.33,43,99.33Zm-22.3,25.4c6-4.5,12.2-4.7,18.4-1.1C33,125.53,27.47,123.23,20.67,124.73Zm16.4-11.9h-6.4v-.1l-8.4.6c-1.2.1-2.4,0-2.7-1.5a2.28,2.28,0,0,1,1.9-2.6,49.09,49.09,0,0,1,16.2-1.1c1.4.1,1.6,1.4,1.7,2.6A2,2,0,0,1,37.07,112.83Z"/><path class="cls-1" d="M769,157.23c-1.6-.4-3.2-.8-4.7-1.3-10.2-3.5-16.7-12.5-26.1-17.2-2.4-1.2-1.5-2.4.6-3.3s4.3-.9,5.9-2.6c.9-.9,2.3-1.7,2-3.2-.4-1.7-2-1.4-3.3-1.6-2.9-.4-5.9-.9-8.8-1.3a34.69,34.69,0,0,0-10.2-1c-3.1,1.5-6.6.8-9.8,1.3a7.2,7.2,0,0,0-5.8,4.9c-.7,2.5,2.3,2.8,3.8,3.9a52.35,52.35,0,0,0,5.1,3c1.5.7,2.5,1.7.6,2.7-5.5,3-10.3,7.5-17.1,7.5-2.1,0-4.1.1-5,2.3-.8,1.9.2,3.7,1.2,5.2,1.4,2.3,3.4,1.1,5.4.7a46.13,46.13,0,0,0,20.1-10.4c2.7-2.3,4.9-2.5,7.9-.4a56.41,56.41,0,0,1,15.3,15.5c2.6,4,6.2,5.1,10.5,5.7,4.6.6,8.4-1.7,12.5-2.7,1.9-.5,4.4-.2,4.4-2.9S771.27,157.83,769,157.23Zm-44.7-23.8a2.13,2.13,0,0,1-.4-1.2c2.5-1.5,5.1-.4,8.2-.3C729.37,134.83,726.77,134.13,724.27,133.43Z"/><path class="cls-1" d="M70.67,37.93c1.4.8,2.2-.5,2.7-1.4,1.1-1.8,2.5-3.7,2.8-5.8.8-5,3.2-6.9,8.2-5.5a9.9,9.9,0,0,0,3,.2v-.1c1.8,0,3.7.1,5.5,0,4.5-.2,6.7,1.8,6.7,6.3,0,4.2.6,8.3.4,12.5-.3,7.2-3.8,10.9-10.9,11.6-3.3.3-6.6.4-9.9-.8-3.7-1.5-6,.5-6.7,3.8-.8,3.5,2.2,4.8,4.8,5.1,17.1,1.6,29.2-5.8,28.2-25-.3-6.4-1.1-12.8,1.1-19.2,1.2-3.5,1.8-7.5-.7-11.1-.6-.9-1-2.7-2.4-1.5-2.1,1.7-5.4,2.9-5.5,6.1-.2,3.9-2.6,4-5.4,4.1A101.83,101.83,0,0,1,75.17,16c-1.9-.3-3.8-.3-4.8,1.7-.9,1.6-.8,3.4.8,4.5,4.4,3.2,2.6,6.4.3,9.7a12.83,12.83,0,0,0-1.7,3A2.4,2.4,0,0,0,70.67,37.93Z"/><path class="cls-1" d="M809.77,42c-3.4,1.3-6.9,2.4-10.3,3.8a5,5,0,0,0-3.2,6.1c.6,3,3.1,3.1,5.6,2.8a19.94,19.94,0,0,0,7.7-2c3.8-2.2,7.8-2.7,12-2.7s7.7-.5,10.7-4.5c2.4-3.3,1.3-4.4-1.4-5.3-2.2-.6-4.6-.4-6.9-.5-1.1,0-2.1-.3-2.1-1.5s1.1-1.5,2.2-1.5a33.79,33.79,0,0,0,4.5,0c4-.5,5.2-4,6.3-6.9.9-2.2-1.8-3.4-3.8-3.6-9.8-1.3-19.2.3-28.3,3.7-2.8,1.1-3.8,3.8-3,6.7s3.1,3.7,5.9,3.3c2.4-.3,4.7-1.6,7.8-.9C812.57,41.13,811.17,41.53,809.77,42Z"/><path class="cls-1" d="M673.17,214.93c-3.1,0-5.5,2.4-8.9,2.5-8.1.3-8.1.7-5.5-7.1.9-2.6,1.6-5-2.4-5.4-.1.1-.2.3-.3.4-1.5.8-1.2,3.7-3,3.4-2-.3-1.1-1.8,0-2.7.6-.5,1.5-.7,2-1.2s.3-1.2.4-1.8c-1.5-.9-3.1-1.4-2.1-4,.8-2.1.7-4.5,1.7-6.6a1.66,1.66,0,0,0-.6-2.2,1.42,1.42,0,0,0-2.2.4c-1.3,2.8-4.9,5-2.3,8.8a2.55,2.55,0,0,1,0,3.2c-.9,1.1-2.1,1.4-3.2-.1-.7-.9-1.6-.3-2.1.4-2.2,3.1-5.3,5-8.5,6.7-.8.4-1.4,1.1-1,2s1.4.6,2.2.3c1.6-.6,2.9-2.3,4.8-2,3,11.4-7.9,9.8-13.7,13.7,3.8,2,6.8.1,9.8.2,1.7.1,2.8-.2,2.3,2.4-.9,4.5,1.3,6.3,5.7,5.4,2.2-.4,4.4-.7,7.1-1.2-1,5.1-6.9,5.2-7.9,10.2,6.1-2.2,12.4-3.2,16.6-8.4,2.8-3.4.9-7.4-3.4-7.9-1.8-.2-3.8.2-5.6-1.7,2.1-1.2,4.1-1.1,6.1-1.3,4.8-.5,9.6-.8,14.4-1.4,1.6-.2,4.4.3,4.3-2.2C677.77,214.73,675.07,214.93,673.17,214.93Z"/><path class="cls-1" d="M724.57,201.93c-2.6-.4-3.1-.9-1.9-3.3,1.4-2.7,2.3-5.6.8-8.6-.5-1-1.3-2-2.7-1.5-1.1.4-1.3,1.3-1.1,2.4.6,3.3-.9,6.1-2.1,9-1.5,3.9-5.5,1.9-8,3.7-1.6,1.1-.9-2.5-1.7-3.7-.7-1-1.2-2.2-2.5-2-1.8.3-.9,1.8-.9,2.8v10.7c-2.2-4.1-5.4-3.8-8.9-2.3-.5.2-1.2-.4-1.9-.5a6.25,6.25,0,0,0-5,1.8c-.7.7-1.8,1.3-1.2,2.4s1.6,1,2.6.8c.7-.2,1.4-1,2.3-.1-.3,2.4-2.6,3.7-3.3,5.9-.3,1-.6,1.9.3,2.7,1.1,1,1.8.1,2.5-.5s.9-1.4,2.3-1.1a9.63,9.63,0,0,1,0,1.7c-.2,2.3-.1,4.4,2.1,5.7a2.14,2.14,0,0,0,2.8-.3c1.9-1.8,1.2-3.9.6-6s2.7-7.2,4.9-7.5c1-.2,2.4-.1,2.4,1.1.1,3.3,4.1,5.1,2.6,9.2-.8,2.1,2.6,4.9.8,7.9-.3.5,1,1.2,1.8,1.3a53.22,53.22,0,0,0,6.9.4c1.3-.1,3.5-.3,3.2-2.2s-2.2-.5-3.4-.7a25,25,0,0,0-3.2-.3c.6-2.1,1.8-3.4.4-5.9-2-3.7.3-6.3,4.7-6.7a16.18,16.18,0,0,0,5.7-1.6c3.7-2,8.1-4,7.5-8.9C733.37,202.53,728.37,202.43,724.57,201.93Zm3.2,9.5c-2.9,2.9-8.9,3.9-13.8,2.3.9-2,2.5-2.5,4.1-3,1.3-.4,2.1-1.2,1.1-2.6-1.5-2.1-.2-3.3,1.4-3.7,3-.8,6.1-.3,8.2,2.1C730.37,208.33,729.07,210.13,727.77,211.43Z"/><path class="cls-1" d="M387.07,141a66.26,66.26,0,0,1-18.9,2.9c-4.5-1.3-9,1-13.5,3.1-3.5,1.7-5,4.8-3.7,8.2,1.5,3.8,4.4,2.6,7.5,1.3,5.5-2.4,10.8-5.2,17.3-5.3,5.1,0,11.3.5,14.4-5.7.6-1.2,2.6-1.9,1.4-3.7S388.77,140.53,387.07,141Z"/><path class="cls-1" d="M595.17,222.93c-5.1-.3-5.5-5-8-7.7-1.9-2-1.4-3.5.1-5.5,4.5-5.9,9.2-11.7,15.2-16.2,1.1-.8,2.2-1.9,1.3-3.4s-2.5-1.4-3.9-.5c-.8.5-1.6,1.2-2.4,1.8-9.8,7.9-16,18.9-24,28.4-1.1,1.3-1.4,2.8.1,3.9a2.63,2.63,0,0,0,3.9-.8c1.9-2.5,3.7-5.1,6-8.3a37.45,37.45,0,0,0,8.9,13.3c.9.9,1.8,2.1,3.3,1.7.8-.2,1.5-1.2,1.1-1.9C596.07,226,597.47,223,595.17,222.93Z"/><path class="cls-1" d="M619.07,202c-7.4-2.9-13.8-.7-20.5,3.7,2.4,1.5,3.7.3,5-.1a26.3,26.3,0,0,1,11.8-.8c4.1.6,5.9,3.6,4.8,7.2a15.67,15.67,0,0,1-14.8,10.8h-5c-.8,0-1.7-.1-2.1.9s.4,2,1,2c3.8.1,8,2.8,11.1.9,5.5-3.5,10.7-7.8,13.1-14.5C625.07,207.73,623.47,203.73,619.07,202Z"/><path class="cls-1" d="M744.27,55.33a17.15,17.15,0,0,1,8.8,6.9,8.69,8.69,0,0,0,7.3,3.7,7,7,0,0,0,6.6-4.5c.9-2.6-1.9-3.9-3.7-4.5-6-1.9-12.1-3.3-18.2-4.7-1-.2-2.6-.5-2.8,1.1C742.17,54.43,743.37,54.93,744.27,55.33Z"/><path class="cls-1" d="M568.07,132.63c5.9-.4,11.8-1,17-4.4a2.67,2.67,0,0,0,1.5-2.4c-.1-1.5-1.4-1.7-2.5-1.9-2.9-.5-5.9-.9-8.6-1.4a67.47,67.47,0,0,0-7.2,1.2c-2.7.7-3.4,3.1-3.3,5.5C565.07,130.93,566.27,132.73,568.07,132.63Z"/><path class="cls-1" d="M447.07,205c-1.8-.6-7.6,5.6-7.3,7.7.3,2.6,2.5,3.2,4.4,3.8,3.9.2,8.9-3.4,8.7-6.3C452.67,206.73,449.57,205.93,447.07,205Zm-.9,8.1c-1.1.1-2.7.2-2.6-1.4s1.9-2.1,3.2-2.6a1.67,1.67,0,0,1,2.3,1.2A3,3,0,0,1,446.17,213.13Z"/><path class="cls-1" d="M404.27,206.93c-3.7.2-5.7,2.5-6.1,6-.3,2.9,1.8,4.4,4.4,4.1,3.6-.5,7.9-1.8,8.4-5.8C411.57,206.83,407,208,404.27,206.93Zm2.9,4.9c-1.2,1.6-2.9,1.6-5.5,1.4,1.9-2.1,3.2-3.3,5.2-2.6A2.38,2.38,0,0,1,407.17,211.83Z"/><path class="cls-1" d="M595.47,214.13c-.4,1.3-.6,2.8.8,3.5a71.87,71.87,0,0,0,8.6,3.7,3,3,0,0,0,3.3-1.6c.7-1.4-.6-2.1-1.4-2.8-2.5-2.3-5.8-3.1-8.7-4.1C596.67,212.63,595.77,213,595.47,214.13Z"/><path class="cls-1" d="M386.87,214.63c-3.9,1-7.8,1.3-11.7-.1a2.38,2.38,0,0,0-3.5,1.7c-.4,1.7.8,2.4,2.1,2.8s2.5.6,4.1,1c3.2-.8,6.6-1.5,9.9-2.4.9-.3,1.9-1,1.6-2.2C389,214,387.77,214.43,386.87,214.63Z"/><path class="cls-1" d="M692.27,200.23c.6,3.1,2.2,5.5,5.3,5.8,2.4-.2,4.2-.6,4.2-3s-4.2-6.1-6.6-5.9C693.27,197.23,691.87,198.23,692.27,200.23Z"/><path class="cls-1" d="M386.07,208.63c1,.5,2.2-.3,2.4-2a11,11,0,0,0-7.3-4.2c-1.6-.2-3.3.9-3,2.6C379.17,209.33,383.47,207.23,386.07,208.63Z"/><path class="cls-1" d="M426.17,209.43a19.42,19.42,0,0,0-2.4.2c-1.4.3-2.7.8-2.6,2.4s1.6,1.8,2.9,1.9a27.58,27.58,0,0,0,2.9,0c1.7-.5,5.6,1.1,5.4-2.4C432.17,208.53,428.57,209.43,426.17,209.43Z"/><path class="cls-1" d="M663.37,189.83c-2.7,1.9-5.6,3.6-7.5,7.6,4.4-.7,6.4-3.8,9.2-5.4a1.73,1.73,0,0,0,.4-1.7A1.37,1.37,0,0,0,663.37,189.83Z"/><path class="cls-1" d="M502.67,202.13a58.42,58.42,0,0,0-6.8,4.1c-1.5,1.1-2.4,1.6-3.1-.7-.5-1.5-2.2-3-3-.6a15.06,15.06,0,0,0-.6,4.8c-.5.4-3.6,2.8-4.4,3.2.6-.1,2.8-.5,4.8-1a4.05,4.05,0,0,0,.5.9,9.36,9.36,0,0,0,8.3,3.6c1.4-.2,2.8-.8,2.9-2.3s-1.4-2-2.7-2.3-2.7.5-4.1-1.5c3.3-1.9,6.4-3.7,9.6-5.4,1.1-.6,2.4-1,1.7-2.4S503.67,201.53,502.67,202.13Z"/><path class="cls-1" d="M484.57,213a.31.31,0,0,0,.2-.1C484.57,213,484.47,213,484.57,213Z"/><path class="cls-1" d="M534,195.63a1.72,1.72,0,0,0-1.6-2.1c-1-.1-1.4.6-1.6,1.5-.5,3.1-2.7,5.2-4.3,7.7a56.17,56.17,0,0,0-8.5,23.1c-.3,1.9-.3,4.7,2.2,4.7s3.2-3,2.6-5c-1.8-6.1,1.5-11.1,3.7-16.5-1,2.3.5,4.4.6,4.7a3.69,3.69,0,0,1,1.3.2c1.7.4,3.3.8,4.4,2.3a.57.57,0,0,1-.4.8c-1,0-1.8.2-2.7-.4-.1-.1-.7-.6-.9-.6-1,.1,1,3.2,1.3,4,.1.2,1.6,2.6,3.5,1.9a2.06,2.06,0,0,0,1.2-2.5C533.17,211.43,533.27,203.53,534,195.63Zm-5.3,8.6a8,8,0,0,1,2.2-2.3c.5-.4,1.2-.1.9.5a7.46,7.46,0,0,1-2.6,2.7C528.67,205.53,528.27,204.83,528.67,204.23Zm3.4,6.9c-.4.7-1.1.6-1.7.2a12.69,12.69,0,0,1-1.7-1.1c-.6-.6,0-1.4.6-1.1h.1a.37.37,0,0,1,.3.1h.8a2.28,2.28,0,0,1,1.1.3A1.38,1.38,0,0,1,532.07,211.13Z"/><path class="cls-1" d="M760.77,204.43c-3.1.2-6.3,0-9.5,0v.1c-3,0-6,.2-9-.1-3.4-.3-5.1,1.2-5,4.4.1,5.3.5,10.6.8,15.8.1,1.8,1.5,2.4,3.2,2.4,6.6,0,13.3,0,19.9-.1,2.8,0,4.8-1.7,4.2-4.3-1.1-4.7,0-9.2.1-13.7C765.67,205.63,764.17,204.23,760.77,204.43Zm-19.5,10.9a.91.91,0,0,1,0-1.2l.2-.2a.76.76,0,0,1,.4-.2h.5a.32.32,0,0,1,.3.3,1.15,1.15,0,0,1-.1,1,.52.52,0,0,1-.7.3C741.77,215.53,741.47,215.53,741.27,215.33Zm1.7,3.6v.5a.5.5,0,0,1-1,0v-.5A.5.5,0,1,1,743,218.93Zm0,2.4a2.35,2.35,0,0,0-.2.8.52.52,0,0,1-1-.3,2.35,2.35,0,0,0,.2-.8C742.27,220.43,743.17,220.63,743,221.33Zm3.4-1.2a3.72,3.72,0,0,1-.2-1.8.51.51,0,0,1,.9-.3.46.46,0,0,1,.4.5,7.57,7.57,0,0,1-.1,1.5h0A.51.51,0,0,1,746.37,220.13Zm0-4.8c0-.4.1-.9.1-1.3.1-.6,1.1-.6,1,0,0,.4-.1.9-.1,1.3C747.27,215.93,746.27,215.93,746.37,215.33Zm1.3,7.9a.5.5,0,0,1-1,0v-1.1a.5.5,0,0,1,1,0Zm-7.6-14.9a21.92,21.92,0,0,1,9.2,0C745.87,210.13,743.67,209.93,740.07,208.33Zm20.1-1.2h0c.3-.1.5-.1.7.2a1.18,1.18,0,0,1,.1,1,.49.49,0,0,1-.9.1.76.76,0,0,1-.2-.4A.51.51,0,0,1,760.17,207.13Zm-4.9,1.1.1-.1c.1-.1.2-.2.3-.2l.1-.1c.2-.2.8-.2.8.2a5.28,5.28,0,0,1,.1,1.3.5.5,0,0,1-1,0v-.1h0a1,1,0,0,1-.9-.2C754.17,208.73,754.67,207.93,755.27,208.23Zm-1.9-1.1a.5.5,0,0,1,0,1A.5.5,0,1,1,753.37,207.13Zm-.5,5.2v-.2a.56.56,0,0,1,1.1.1v.1a.45.45,0,0,1-.7.4A.43.43,0,0,1,752.87,212.33Zm3.7,10.5a1.59,1.59,0,0,1-2.4.4,2.38,2.38,0,0,1-.6-1.1.76.76,0,0,1-.2-.5,1.09,1.09,0,0,1,.4-.9.35.35,0,0,1,.1-.2c.2-.3.4-.3.6-.2a1.09,1.09,0,0,1,.5-.1.66.66,0,0,1,.5.4c0,.2.1.3.1.5h.1C756.67,221,757.07,222,756.57,222.83Zm-1.3-5.3c2.8-1,4.8-2.6,5.6-6.8C761.77,217.43,761.27,217.93,755.27,217.53Z"/><path class="cls-1" d="M472.07,222.13c1.4-4.9-3.7-9.7.7-14.1.2-.2-.2-1.5-.6-1.7-6.1-3.7-2.1-6.4.8-9.3s-5.3-4.2-1.4-7.7c.2-.2-.4-1.2-1.2-1.3a2.53,2.53,0,0,0-2.8,1.7c-.9,3.3-7.1,6.1-1.2,10.2.2.1,0,.9-.1,1.4-.3,2.9-1.6,4.5-4.8,4.2-1.4-.1-2.8.1-3.4,1.6-.6,1.7.7,2.3,2,2.8a3.13,3.13,0,0,1,1.1.8c1.1,2.1,2.2,4.1,3.4,6.2l-.5,4.3,2.6-.7a95.35,95.35,0,0,1,7.2,14.7c.5,1.5,1.1,3.1,0,4.3a4,4,0,0,1-4.2.7,24.54,24.54,0,0,1-12.8-9.1c-1.2-1.5-1.9-3.5-4.4-3.2,1,6.6,9.9,15.2,16.5,16,2.9.3,5.8.3,7.7-2.3s.5-5-.3-7.5C475.17,229.83,471,225.93,472.07,222.13Zm-3.5-28.3c-.2-.4.1-.9.4-1.2s1.1-.2,1.6-.2.5.4.4.7-.7.8-.7.9c-.2.1-.3.2-.5.2C469.37,194.33,468.77,194.33,468.57,193.83Z"/></g></g></svg>