<svg class="icon" viewBox="0 0 1024 1024" version="1.1" xmlns="http://www.w3.org/2000/svg" p-id="4713" height="128" width="128"><path d="M441.135022 684.241876c3.676739 3.676739 11.030218 7.353478 14.706957 11.030218 18.383696 11.030218 29.414937 7.353478 36.768415 3.676739 11.030218-14.706957 22.061458-29.414937 33.091676-44.121893l0 0c3.676739-7.353478 11.030218-11.030218 18.383696-14.706957l0 0c3.676739-3.676739 11.030218-7.353478 18.383696-7.353478l3.676739 0c7.353478 0 14.706957 0 22.061458 0l0 0c7.353478 3.676739 11.030218 7.353478 18.383696 11.030218l0 0c40.445154 29.414937 77.213569 58.82885 117.658723 88.243787 0 3.676739 0 3.676739 0 3.676739 7.353478 3.676739 11.030218 11.030218 14.706957 18.383696l0 0c3.676739 7.353478 3.676739 14.706957 7.353478 22.061458 0 7.353478-3.676739 18.383696-7.353478 25.738198l0 0c0 7.353478-7.353478 14.706957-11.030218 18.383696-7.353478 7.353478-18.383696 14.706957-29.414937 22.061458l0 0c-11.030218 7.353478-25.738198 11.030218-40.445154 18.383696-62.506613 18.383696-128.688941 14.706957-194.872293-7.353478-7.353478 0-14.706957-3.676739-22.061458-7.353478l0-51.475372c11.030218 7.353478 25.738198 11.030218 36.768415 14.706957 55.152111 18.383696 113.981984 22.061458 165.457356 7.353478 11.030218-3.676739 22.061458-11.030218 29.414937-14.706957l0 0c11.030218-3.676739 14.706957-11.030218 22.061458-14.706957 0-3.676739 0-3.676739 3.676739-3.676739l0 0 0 0c0-3.676739 0-3.676739 0-3.676739 0-3.676739 0-3.676739 0-7.353478l0 0 0 0c-3.676739 0-3.676739 0-3.676739 0s0 0 0-3.676739c-40.445154-29.414937-77.213569-58.82885-117.658723-88.243787l0 0 0 0c0 0 0 0-3.676739 0l0 0c0-3.676739 0-3.676739-3.676739-3.676739l0 0c0 3.676739-3.676739 3.676739-3.676739 3.676739l0 0 0 0c0 0 0 0-3.676739 3.676739l0 0 0 0c-11.030218 14.706957-22.061458 29.414937-33.091676 47.798633-3.676739 3.676739-7.353478 3.676739-7.353478 7.353478 0 0-36.768415 25.738198-80.890308 0L441.133999 684.241876zM275.677667 287.143812c29.414937 36.768415 58.82885 77.213569 88.243787 113.981984l3.676739 3.676739c3.676739 3.676739 7.353478 11.030218 7.353478 18.383696 3.676739 7.353478 3.676739 14.706957 0 22.061458 0 7.353478-3.676739 14.706957-7.353478 22.061458l0 0c-3.676739 7.353478-7.353478 11.030218-14.706957 14.706957l0 3.676739c-14.706957 11.030218-29.414937 18.383696-44.121893 29.414937-3.676739 7.353478-7.353478 22.061458 7.353478 36.768415 18.383696 29.414937 40.445154 55.152111 62.506613 77.213569l0 0 0 0c18.383696 22.061458 40.445154 36.768415 62.506613 55.152111l0 55.152111c-3.676739 0-7.353478-3.676739-11.030218-7.353478-33.091676-22.061458-58.82885-44.121893-84.567048-69.860091l0 0c-25.738198-25.738198-47.798633-51.475372-69.860091-80.890308-33.091676-51.475372-3.676739-91.920526-3.676739-91.920526l0 0c0-3.676739 3.676739-7.353478 3.676739-7.353478 18.383696-11.030218 33.091676-22.061458 47.798633-36.768415l3.676739 0c0 0 0 0 0-3.676739 0 0 0 0 3.676739 0 0 0 0 0 0-3.676739l0-3.676739c0 0 0 0-3.676739-3.676739l0 0c-29.414937-36.768415-58.82885-77.213569-88.243787-113.981984l0 0c0-3.676739-3.676739-3.676739-3.676739-3.676739l0 0-3.676739 0c-3.676739 0-3.676739 0-3.676739 0l0 0c-3.676739 0-3.676739 0-3.676739 0-7.353478 7.353478-11.030218 14.706957-14.706957 22.061458l0 0c-7.353478 7.353478-11.030218 18.383696-14.706957 29.414937-18.383696 51.475372-14.706957 110.305245 3.676739 165.457356 22.061458 62.506613 58.82885 121.335463 110.305245 172.810834 36.768415 36.768415 84.567048 69.860091 132.36568 91.920526l0 51.475372c-62.506613-22.061458-117.658723-62.506613-165.457356-110.305245-55.152111-55.152111-99.274004-121.335463-121.335463-191.195553-22.061458-62.506613-25.738198-132.36568-3.676739-194.872293 3.676739-14.706957 11.030218-29.414937 18.383696-40.445154l0 0 0 0c3.676739-11.030218 11.030218-18.383696 18.383696-25.738198 7.353478-7.353478 14.706957-11.030218 22.061458-14.706957l0 0c7.353478-3.676739 14.706957-3.676739 22.061458-3.676739C253.616208 265.082354 260.969687 272.436856 275.677667 287.143812L275.677667 287.143812zM658.06775 379.064338 658.06775 379.064338c-22.061458-22.061458-47.798633-44.121893-77.213569-58.82885l0 47.798633c18.383696 11.030218 33.091676 22.061458 47.798633 40.445154l0 0c51.475372 47.798633 84.567048 117.658723 84.567048 194.872293 0 14.706957 7.353478 22.061458 18.383696 22.061458 11.030218 0 22.061458-7.353478 22.061458-22.061458C753.665015 515.107781 716.8966 437.894212 658.06775 379.064338L658.06775 379.064338 658.06775 379.064338zM580.854181 217.283722l0-44.121893c66.183352 22.061458 125.012202 62.506613 172.810834 110.305245 84.567048 80.890308 132.36568 194.872293 132.36568 319.884494l0 0c0 14.706957-7.353478 22.061458-18.383696 22.061458-11.030218 0-22.061458-7.353478-22.061458-22.061458l0 0c0-113.981984-44.121893-216.932728-121.335463-290.469558C683.805948 268.759093 636.006292 239.34518 580.854181 217.283722zM580.854181 320.235488c-44.121893-22.061458-95.597265-36.768415-147.07366-36.768415l0 0-3.676739 0-3.676739 0c-11.030218 0-18.383696 11.030218-18.383696 22.061458 0 11.030218 7.353478 18.383696 18.383696 18.383696l7.353478 0 0 0c51.475372 0 102.951767 14.706957 147.07366 44.121893L580.854181 320.235488 580.854181 320.235488zM580.854181 173.161828l0 44.121893c-47.798633-18.383696-95.597265-29.414937-150.750399-29.414937l0 0-3.676739 0c-11.030218 0-18.383696-7.353478-18.383696-18.383696s7.353478-18.383696 18.383696-18.383696l3.676739 0 0 0 0 0C485.256916 151.101393 533.055548 158.454872 580.854181 173.161828z" p-id="4714"></path></svg>