<svg class="icon" viewBox="0 0 1024 1024" version="1.1" xmlns="http://www.w3.org/2000/svg" p-id="5444" height="128" width="128"><path d="M116.363636 698.181818h837.818182a46.545455 46.545455 0 0 1 46.545455 46.545455v116.363636a46.545455 46.545455 0 0 1-46.545455 46.545455H116.363636a46.545455 46.545455 0 0 1-46.545454-46.545455v-116.363636a46.545455 46.545455 0 0 1 46.545454-46.545455zM861.090909 162.909091h93.090909a46.545455 46.545455 0 0 1 46.545455 46.545454v651.636364a46.545455 46.545455 0 0 1-46.545455 46.545455h-93.090909a46.545455 46.545455 0 0 1-46.545454-46.545455V209.454545a46.545455 46.545455 0 0 1 46.545454-46.545454z" fill="#E5E5E5" p-id="5445"></path><path d="M907.636364 837.818182H69.818182a46.545455 46.545455 0 0 1-46.545455-46.545455V164.212364a21.713455 21.713455 0 0 1 0.465455-5.864728A46.359273 46.359273 0 0 1 69.818182 116.363636h837.818182a46.545455 46.545455 0 0 1 46.545454 46.545455v628.363636a46.545455 46.545455 0 0 1-46.545454 46.545455zM69.818182 791.272727h837.818182V218.949818L504.669091 621.917091a23.272727 23.272727 0 0 1-32.768 0 21.899636 21.899636 0 0 1-1.768727-2.653091l-400.290909-400.290909V791.272727z m418.909091-218.949818L898.141091 162.909091H79.313455z" fill="#1C1C1C" p-id="5446"></path></svg>