<?xml version="1.0" encoding="UTF-8"?>
<svg width="423px" height="81px" viewBox="0 0 423 81" version="1.1" xmlns="http://www.w3.org/2000/svg" xmlns:xlink="http://www.w3.org/1999/xlink">
    <title>编组</title>
    <defs>
        <polygon id="path-1" points="0 0.1822 422.109 0.1822 422.109 79.5923358 0 79.5923358"></polygon>
    </defs>
    <g id="页面-1" stroke="none" stroke-width="1" fill="none" fill-rule="evenodd">
        <g id="编组" transform="translate(0.000000, 0.818000)">
            <mask id="mask-2" fill="white">
                <use xlink:href="#path-1"></use>
            </mask>
            <g id="Clip-54"></g>
            <path d="M54.2532,23.0822 C55.9922,18.7332 48.4562,19.0232 46.7172,19.0232 C44.3982,19.0232 43.5282,20.1832 41.7882,20.1832 C40.0492,20.1832 38.0212,21.3432 35.9912,21.3432 C35.9912,17.2842 35.7012,14.3862 35.7012,11.7762 C35.7012,8.8782 33.9622,10.0372 31.9332,9.1682 C30.7742,9.1682 29.9032,8.5882 29.9032,6.8492 C29.0342,5.1092 28.1642,4.2392 25.2662,4.2392 C25.2662,4.2392 23.2362,6.2692 22.3672,6.8492 L22.3672,9.1682 C22.3672,11.1962 23.2362,10.0372 23.2362,11.1962 C24.1072,12.0662 25.2662,13.5162 25.2662,14.6752 C25.5562,16.9942 24.3962,19.3132 24.3962,21.6332 L24.3962,25.4002 C24.3962,27.1402 23.5262,27.1402 21.7872,28.3002 C20.9172,28.8792 19.7582,30.3292 17.7292,31.4882 C17.7292,32.3572 14.5402,34.0972 14.5402,34.9672 L12.5112,36.1262 C11.6422,37.2862 11.6422,38.1552 10.4822,38.1552 C10.4822,38.7352 9.6122,39.6042 8.4522,39.6042 C7.8732,39.6042 5.5542,39.6042 5.5542,38.7352 C5.5542,37.2862 4.9742,34.9672 4.9742,34.0972 C3.8152,32.3572 3.8152,30.6182 2.6552,28.5902 C1.7852,28.8792 1.7852,29.4592 0.6262,30.9082 C-0.2438,32.6472 0.0462,33.5182 0.0462,35.2572 C0.0462,38.4452 0.0462,41.3442 0.9162,43.3732 C0.9162,43.9532 2.0752,45.9822 2.0752,45.9822 C2.9452,48.0122 2.9452,48.5912 4.1052,49.1712 C5.8442,51.4902 8.7422,51.4902 10.4822,49.1712 C11.6422,49.1712 11.6422,49.1712 11.6422,48.5912 C11.6422,48.0122 12.5112,48.0122 12.5112,46.5612 C12.5112,45.6922 12.5112,44.5332 11.6422,43.0832 C11.6422,41.0552 14.5402,41.0552 15.4092,41.0552 C16.2792,41.0552 17.1492,38.7352 18.0192,38.1552 C20.0482,36.9962 21.2072,36.9962 22.9462,37.8652 C23.8162,38.4452 22.9462,41.6342 22.9462,42.7942 L22.9462,46.2722 C22.9462,48.3012 19.1782,48.8812 17.1492,48.5912 C16.2792,48.5912 16.2792,48.0122 15.4092,48.0122 C15.4092,48.5912 15.4092,49.1712 15.6992,50.3302 C15.6992,52.6492 17.4392,52.6492 18.3092,54.0992 C19.4682,52.9392 23.2362,50.0402 23.2362,52.9392 C23.2362,56.7082 23.5262,59.6062 23.5262,63.3752 C23.5262,65.1142 24.9762,68.3032 24.9762,70.9122 C24.9762,73.2302 25.5562,75.8402 26.7152,77.8692 C27.5852,76.9992 27.8742,74.1012 27.8742,73.2302 C27.8742,70.9122 27.5852,69.1732 28.7442,67.7232 C29.3242,64.2442 30.1932,61.6362 30.7742,58.4472 C30.7742,56.7082 32.8032,56.7082 32.8032,54.9692 L32.8032,51.2002 C32.8032,50.0402 33.6722,48.8812 33.6722,48.8812 C34.5422,47.7222 35.4112,46.2722 36.2812,45.1122 C37.1502,45.1122 38.3102,43.9532 38.3102,43.9532 C40.3392,43.0832 41.2092,43.9532 42.0782,43.0832 C43.2382,43.0832 42.0782,42.5042 43.2382,41.3442 C43.8172,40.4752 44.6882,41.3442 45.5572,40.4752 C45.5572,39.0252 48.1662,38.1552 48.1662,38.1552 C47.0072,37.5752 45.5572,37.5752 45.5572,37.5752 C44.6882,37.5752 38.3102,39.0252 38.3102,39.0252 L38.3102,36.7062 C38.8902,35.5472 38.8902,35.5472 38.8902,34.3872 C40.3392,33.5182 42.0782,32.6472 42.9482,31.7782 C43.5282,30.9082 44.3982,30.9082 45.2682,30.0392 C46.7172,28.5902 47.8762,28.0102 48.4562,28.0102 C49.3252,28.0102 50.4852,25.9802 51.0652,25.9802 C51.9352,25.1112 54.2532,23.6612 54.2532,23.0822 L54.2532,23.0822 Z M42.9482,23.3722 C45.2682,23.9512 38.0212,31.7782 36.8602,31.7782 C33.6722,32.9372 35.9912,26.8512 35.9912,25.9802 C35.9912,25.1112 41.7882,22.2122 42.9482,23.3722 L42.9482,23.3722 Z M35.4112,39.3152 C35.4112,38.4452 35.4112,37.8652 36.2812,37.5752 C37.1502,37.5752 37.1502,39.0252 35.4112,39.3152 L35.4112,39.3152 Z M125.8542,36.9962 C126.4332,35.8362 126.1442,35.5472 125.8542,34.9672 C126.1442,34.3872 125.2742,33.5182 125.2742,32.9372 C125.2742,32.6472 123.2442,31.4882 122.9542,31.4882 C122.3752,31.1982 121.7952,29.7492 121.5052,28.8792 C121.2152,26.2702 121.7952,23.3722 121.5052,21.0532 C121.7952,18.1542 122.6652,16.1252 122.0852,13.2262 C122.0852,12.6462 121.7952,10.3272 120.9262,10.3272 C120.0562,10.3272 119.4762,10.0372 119.4762,9.1682 C119.4762,7.1392 118.0262,6.2692 116.5772,7.4292 C116.2872,7.7182 114.2582,8.5882 114.2582,9.1682 C114.2582,9.1682 112.5192,9.7472 112.2292,10.3272 C110.7792,11.4862 111.6492,14.9652 108.1712,14.3862 C106.7222,14.0962 106.4322,12.3562 105.2722,12.3562 C104.6922,12.3562 103.8222,11.4862 102.9532,12.9362 C102.3732,13.8062 102.9532,15.2552 103.8222,16.1252 C105.2722,17.5742 105.5622,20.1832 104.9822,21.9222 C104.4022,22.5022 103.2432,23.0822 102.6632,23.6612 C102.0832,24.5312 102.3732,25.6902 101.7932,25.9802 C102.3732,26.5612 102.6632,27.4302 102.9532,27.7202 C102.9532,28.5902 103.5322,29.4592 103.5322,29.7492 C103.8222,31.1982 104.1122,32.6472 103.8222,34.0972 C103.8222,34.0972 102.9532,34.9672 102.6632,35.8362 C102.3732,36.1262 101.7932,36.9962 101.5042,37.2862 C101.2142,37.2862 99.7652,39.6042 99.7652,39.6042 C98.8952,39.6042 98.0252,43.3732 98.0252,43.9532 C97.4452,45.4022 97.4452,47.4322 97.1552,48.8812 C97.1552,51.4902 101.2142,49.7512 101.7932,48.8812 C102.3732,48.3012 102.6632,47.7222 103.2432,47.1422 C104.4022,46.2722 105.5622,46.5612 106.1422,46.2722 C107.0112,45.9822 110.4892,42.5042 111.0692,43.9532 C111.6492,46.2722 111.3592,50.0402 111.3592,52.6492 L111.3592,58.4472 C111.0692,61.0562 111.3592,64.2442 111.3592,66.8532 C111.3592,69.4622 111.9402,71.2012 111.6492,73.5202 C111.9402,75.5502 111.9402,77.5792 111.9402,79.3182 C111.9402,80.1872 113.0992,78.7382 113.0992,78.4482 C113.3892,76.9992 113.6792,74.3912 113.6792,72.3612 C113.6792,71.7812 114.2582,70.3322 114.2582,69.4622 C114.2582,68.5932 115.1282,67.7232 115.1282,67.1442 C115.1282,65.1142 116.2872,61.9262 116.5772,59.8962 C117.1572,58.1572 117.4472,56.9972 118.3162,54.9692 C119.1872,53.5192 119.4762,50.9102 119.7662,49.4612 C119.7662,48.3012 119.4762,40.7652 121.2152,40.7652 C121.7952,40.7652 123.8242,39.6042 124.4042,39.3152 C124.9832,38.7352 125.5642,38.1552 125.8542,36.9962 L125.8542,36.9962 Z M112.5192,22.5022 C112.5192,23.9512 111.9402,25.6902 111.9402,27.1402 C111.9402,29.1692 111.9402,31.4882 111.6492,33.5182 C111.6492,34.3872 112.2292,39.3152 109.9102,39.3152 C108.1712,39.3152 107.8812,39.3152 106.4322,40.4752 C106.1422,40.7652 105.2722,41.9242 104.9822,41.9242 C102.9532,42.5042 105.5622,38.1552 105.8522,37.8652 C106.1422,37.2862 107.3012,34.3872 108.1712,34.3872 C109.0402,34.3872 110.4892,30.6182 110.4892,30.3292 C110.7792,28.5902 110.2002,27.4302 109.3302,26.2702 C109.0402,25.9802 108.1712,25.6902 108.1712,25.1112 C107.8812,24.8212 108.1712,24.5312 108.1712,24.2412 C108.4612,23.0822 109.3302,21.6332 109.9102,20.4732 C111.6492,17.2842 111.6492,21.3432 112.5192,22.5022 L112.5192,22.5022 Z M94.5472,31.7782 C95.7062,30.9082 97.7352,30.6182 96.8652,28.5902 C96.8652,27.4302 95.1262,27.4302 94.2572,27.4302 C92.2282,27.1402 92.2282,25.6902 90.7782,25.6902 C88.4592,25.6902 88.4592,25.9802 88.1692,28.3002 C88.1692,29.7492 86.7202,30.6182 85.5612,31.1982 C83.8212,32.6472 81.7922,32.3572 79.4732,32.3572 C78.6042,32.3572 75.4142,32.9372 75.4142,32.0682 C75.1252,31.4882 76.5742,30.3292 76.8642,30.0392 C77.4432,29.1692 78.0242,28.0102 78.8932,27.1402 C79.1832,26.8512 80.3432,25.9802 80.3432,25.4002 C80.3432,25.4002 81.5022,23.9512 82.0822,23.6612 C82.6612,22.7922 83.5312,21.9222 84.1102,21.0532 C84.6902,20.4732 86.4302,18.1542 87.3002,18.1542 C88.7492,18.1542 88.7492,16.1252 88.7492,15.2552 C89.3282,13.5162 91.6482,13.2262 92.2282,12.0662 C92.2282,11.7762 97.7352,10.3272 95.4162,9.1682 C94.2572,8.8782 93.6772,6.8492 92.8082,6.2692 C92.2282,5.6892 91.0682,5.1092 90.1982,5.1092 C89.0392,5.1092 88.7492,5.3992 88.1692,5.6892 C86.4302,6.8492 87.0102,9.4572 86.7202,11.1962 C86.4302,12.3562 84.6902,14.3862 83.8212,15.2552 C82.9512,16.1252 81.5022,17.2842 80.6322,18.4432 C80.3432,19.3132 78.6042,21.9222 77.4432,22.5022 C76.2842,22.7922 74.8352,25.4002 74.2552,25.9802 C73.6752,26.5612 71.3572,30.3292 70.7762,30.3292 C70.4862,30.3292 69.6172,31.7782 69.3272,31.7782 C68.4572,32.9372 68.1682,32.9372 67.8782,33.8082 C67.8782,34.3872 67.5882,38.1552 67.8782,38.1552 C69.0372,38.4452 69.9072,38.7352 70.7762,37.8652 C71.0662,37.8652 71.3572,36.9962 71.6472,36.4162 C72.5162,36.1262 73.9652,36.4162 74.8352,36.4162 C77.1532,36.4162 80.0532,36.1262 82.6612,36.4162 C84.6902,36.7062 84.4002,36.9962 84.9812,38.7352 C85.2712,39.3152 85.5612,41.3442 85.5612,41.9242 C85.8502,44.2432 84.9812,46.8522 82.6612,47.1422 C81.7922,47.4322 80.0532,48.5912 79.4732,47.4322 C79.1832,46.8522 79.7632,44.2432 79.7632,43.6632 L79.7632,40.7652 C79.7632,40.4752 79.1832,41.0552 79.1832,41.0552 C78.8932,41.0552 77.4432,43.3732 77.4432,43.3732 C77.4432,44.2432 74.2552,46.5612 73.3862,46.5612 C73.0962,46.5612 71.6472,46.2722 71.6472,46.5612 L71.6472,51.2002 C71.3572,53.2292 71.0662,58.1572 73.3862,58.4472 C74.2552,58.7362 75.4142,57.8672 75.9942,57.5772 C76.8642,56.9972 77.4432,56.7082 78.0242,56.1282 C78.6042,55.8382 78.6042,55.8382 78.8932,54.3892 C78.8932,53.5192 78.8932,53.5192 79.4732,53.2292 C80.0532,52.9392 80.9222,52.0692 82.0822,51.7792 C82.9512,51.4902 83.2412,50.3302 84.4002,51.2002 C85.2712,51.4902 85.5612,52.9392 85.8502,53.8092 C85.8502,54.6792 86.4302,54.9692 86.4302,56.7082 C86.4302,57.2872 86.7202,58.4472 87.0102,58.7362 C87.3002,59.6062 87.8792,60.4762 89.0392,61.0562 C89.6182,61.3462 92.5182,61.6362 92.5182,60.1862 C92.8082,57.8672 92.2282,55.5482 91.9382,53.2292 C91.6482,51.4902 90.4882,49.1712 90.1982,47.1422 C90.1982,43.9532 92.5182,41.0552 94.5472,39.0252 C95.1262,38.1552 97.1552,34.6772 94.5472,35.2572 C92.5182,35.2572 93.0972,37.8652 91.6482,38.4452 C90.1982,38.7352 89.9082,38.7352 89.9082,37.2862 C89.9082,36.9962 90.7782,34.3872 91.3572,34.3872 C91.9382,34.3872 93.6772,32.0682 94.5472,31.7782 L94.5472,31.7782 Z M163.2482,0.1822 C162.8612,0.3752 162.4752,0.8572 162.0882,1.6312 L162.9582,5.6892 C160.4452,10.1342 158.8992,13.1292 158.3192,14.6752 C159.2862,18.7332 159.9622,21.9222 160.3492,24.2412 L163.5372,21.9222 L165.2762,21.9222 C166.2432,21.9222 166.9192,22.4052 167.3062,23.3722 L167.3062,24.2412 L166.7272,25.4002 C155.7112,31.9722 149.5262,35.2572 148.1742,35.2572 C146.8212,35.2572 146.1452,34.6772 146.1452,33.5182 C146.9182,32.7442 148.6572,31.2952 151.3622,29.1692 C153.1022,28.5902 154.9382,27.3332 156.8702,25.4002 C155.7112,25.4002 152.8122,26.8512 148.1742,29.7492 C143.7302,31.1022 141.5072,32.9372 141.5072,35.2572 C141.8942,38.7352 143.1492,40.4752 145.2752,40.4752 L154.2622,36.7062 C158.8992,33.4212 161.7982,31.7782 162.9582,31.7782 L163.2482,31.7782 C164.2142,32.1652 164.6972,32.8412 164.6972,33.8082 L164.6972,34.0972 C164.6972,35.4502 162.8612,39.7012 159.1902,46.8522 L159.4802,47.4322 L164.4072,43.9532 C168.2732,37.7692 169.5282,35.1602 168.1762,36.1262 L169.6252,36.4162 C174.2632,39.3152 176.9692,40.7652 177.7412,40.7652 C179.0952,40.7652 179.7712,38.2522 179.7712,33.2282 L179.4812,33.2282 L179.4812,32.6472 L178.6112,32.6472 L176.8722,33.8082 L175.7122,33.8082 C174.5532,33.6142 172.6202,33.1312 169.9152,32.3572 C169.9152,31.3922 170.4942,30.1362 171.6542,28.5902 C171.8482,26.8512 172.8142,25.5942 174.5532,24.8212 C178.8052,23.4682 180.9302,22.3092 180.9302,21.3432 L180.9302,21.0532 C180.9302,20.4732 180.4472,19.9892 179.4812,19.6032 C178.3212,19.6032 176.0022,20.4732 172.5242,22.2122 C170.9782,22.2122 170.2052,21.5362 170.2052,20.1832 L170.2052,19.8942 L172.5242,18.1542 C176.7752,16.2222 179.0952,14.7712 179.4812,13.8062 L179.4812,13.5162 C178.9012,12.5502 178.1282,12.0662 177.1622,12.0662 L173.3942,12.6462 C170.1082,14.9652 168.0792,16.1252 167.3062,16.1252 C165.9532,16.1252 165.2762,15.2552 165.2762,13.5162 L165.2762,12.3562 L166.7272,7.1392 C165.7602,2.5002 164.6972,0.1822 163.5372,0.1822 L163.2482,0.1822 Z M197.4532,16.9942 L196.5842,16.9942 C191.1732,20.0862 187.8882,21.6332 186.7282,21.6332 L184.1192,20.7632 C183.5392,20.7632 183.1522,21.2462 182.9592,22.2122 L183.2492,23.3722 C183.2492,27.4302 184.8922,29.9422 188.1772,30.9082 C189.3372,30.9082 190.2062,30.3292 190.7862,29.1692 C191.7522,22.7922 193.2982,19.6032 195.4242,19.6032 L196.5842,19.6032 L197.4532,20.4732 L197.4532,23.6612 L198.6122,23.9512 C202.2842,23.9512 204.6042,22.7922 205.5692,20.4732 L205.5692,19.8942 C205.5692,18.9272 202.8642,17.9612 197.4532,16.9942 L197.4532,16.9942 Z M180.9302,40.7652 C179.1912,41.1502 178.3212,41.4402 178.3212,41.6342 C176.5822,41.8272 174.1662,43.4702 171.0742,46.5612 C166.6302,48.1082 162.8612,53.9052 159.7692,63.9552 L159.7692,64.8242 C162.0882,66.7572 164.8912,67.4342 168.1762,66.8532 L170.2052,65.9832 L172.5242,60.7662 L173.9732,60.7662 C175.1332,63.2782 177.0662,65.2112 179.7712,66.5632 C183.2492,67.5292 186.7282,67.7232 190.2062,67.1442 L191.9452,66.5632 C193.8782,65.9832 194.2652,63.5682 193.1062,59.3162 L192.5252,56.9972 L192.8152,56.7082 L192.5252,56.4182 L191.3662,50.0402 C189.0472,42.6972 185.5682,39.6042 180.9302,40.7652 L180.9302,40.7652 Z M171.9442,56.1282 L171.9442,55.5482 C173.2972,48.2042 175.8092,44.0502 179.4812,43.0832 L180.6412,42.7942 C184.5052,42.7942 186.7282,44.8222 187.3082,48.8812 L189.3372,62.2152 C189.3372,62.7952 188.8542,63.4722 187.8882,64.2442 L187.0182,64.2442 C185.8582,64.2442 184.6982,63.6652 183.5392,62.5052 C181.6072,61.3462 180.6412,60.2832 180.6412,59.3162 L180.6412,59.0262 C182.5732,57.6742 183.4422,56.7082 183.2492,56.1282 C182.8622,54.7752 181.8002,54.1952 180.0612,54.3892 L177.7412,54.6792 L177.4512,54.3892 L173.3942,56.9972 C172.8142,56.8052 172.3302,56.5152 171.9442,56.1282 L171.9442,56.1282 Z M229.3402,13.2262 L228.1812,13.2262 C226.2482,13.2262 224.8962,16.4152 224.1222,22.7922 L224.1222,25.4002 C224.1222,26.1742 224.6062,26.8512 225.5712,27.4302 L225.8612,27.4302 L230.7892,23.3722 L232.5282,23.3722 C235.6202,22.9852 237.1672,22.0192 237.1672,20.4732 C237.1672,16.9942 234.5582,14.5792 229.3402,13.2262 L229.3402,13.2262 Z M267.3142,17.5742 C264.2222,18.9272 260.3572,19.6032 255.7192,19.6032 L251.3702,19.3132 C249.0522,19.3132 247.8922,19.5072 247.8922,19.8942 C247.8922,22.4052 249.8242,24.5312 253.6902,26.2702 L253.6902,25.9802 C261.6132,25.9802 266.7342,24.0482 269.0532,20.1832 L269.0532,19.3132 C269.0532,18.1542 268.4742,17.5742 267.3142,17.5742 L267.3142,17.5742 Z M247.0232,30.0392 C246.4422,30.2322 245.5732,31.5852 244.4132,34.0972 C244.8002,34.0972 244.9932,35.3532 244.9932,37.8652 C244.9932,39.0252 244.8002,39.8942 244.4132,40.4752 C244.8002,40.4752 244.9932,41.4402 244.9932,43.3732 L244.7032,45.6922 L244.9932,46.8522 L244.1242,54.6792 C244.3162,57.9642 245.8632,59.6062 248.7622,59.6062 C250.5012,59.2202 251.7572,58.8332 252.5302,58.4472 C253.1092,56.5152 256.2992,55.4512 262.0962,55.2582 L264.1252,55.5482 L267.6042,55.2582 L268.7642,55.2582 L269.9232,55.5482 C272.8212,54.5822 274.2712,53.5192 274.2712,52.3592 C274.2712,50.4272 273.2082,49.4612 271.0822,49.4612 L254.8492,51.7792 L253.6902,51.7792 C252.9172,51.7792 252.3372,50.2332 251.9502,47.1422 L252.2402,39.6042 L251.0812,36.1262 C248.7622,32.8412 247.6032,30.8112 247.6032,30.0392 L247.0232,30.0392 Z M225.5712,32.9372 C224.4122,33.3242 223.8322,34.0012 223.8322,34.9672 L223.8322,37.5752 L224.1222,43.3732 L223.8322,43.3732 L223.8322,43.6632 C224.0252,43.6632 224.2192,44.2432 224.4122,45.4022 L223.8322,55.5482 L224.9912,59.6062 C227.1172,62.8922 228.6632,64.5342 229.6302,64.5342 L229.9202,64.5342 C233.0122,64.5342 235.0412,61.0562 236.0072,54.0992 L237.7462,39.6042 L237.4562,38.7352 L236.2972,38.7352 L236.2972,39.0252 L236.0072,39.3152 L232.5282,52.0692 L231.0792,52.0692 L231.0792,51.7792 L230.7892,43.9532 L231.0792,43.3732 L233.1082,39.3152 L233.1082,39.0252 C233.1082,36.3192 230.5962,34.2902 225.5712,32.9372 L225.5712,32.9372 Z M327.0292,17.8642 L326.1592,18.1542 C319.5892,20.4732 313.9842,23.8542 309.3472,28.3002 C305.2882,30.0392 303.2592,31.2952 303.2592,32.0682 C303.2592,33.6142 306.3512,34.3872 312.5352,34.3872 L313.6942,35.5472 L313.6942,36.4162 C313.6942,37.1892 313.1142,38.7352 311.9552,41.0552 C311.3752,44.1462 310.5062,45.6922 309.3472,45.6922 L307.6082,45.6922 C304.3212,45.6922 301.0362,47.0452 297.7512,49.7512 C292.1472,52.4562 289.3452,54.4852 289.3452,55.8382 C289.3452,56.6112 290.2142,57.4802 291.9532,58.4472 L292.2432,58.4472 C298.2342,55.9352 301.7132,54.6792 302.6792,54.6792 L303.8392,54.9692 C306.3512,56.5152 308.1872,57.2872 309.3472,57.2872 C310.8932,57.2872 313.4042,56.3212 316.8832,54.3892 C321.7152,49.5582 324.6132,47.1422 325.5792,47.1422 L326.7392,47.1422 C327.5122,47.1422 329.2512,47.6252 331.9572,48.5912 C333.3102,48.0122 334.1802,47.4322 334.5652,46.8522 L334.5652,46.5612 L334.2752,45.6922 C334.2752,42.6012 332.9232,40.2812 330.2182,38.7352 L325.0002,39.3152 L324.7102,39.3152 C323.1642,39.3152 322.1012,38.0592 321.5222,35.5472 L321.5222,34.6772 C325.7732,32.1652 327.8992,30.1362 327.8992,28.5902 C329.2512,27.0432 330.4112,25.2082 331.3772,23.0822 C329.0582,19.7972 327.6082,18.0582 327.0292,17.8642 L327.0292,17.8642 Z M403.8472,4.5292 C399.7882,4.5292 395.4402,6.5592 390.8022,10.6172 L390.8022,11.1962 C390.8022,11.7762 391.3822,12.1632 392.5412,12.3562 C397.5652,10.0372 401.0442,8.8782 402.9772,8.8782 L403.5572,8.8782 L404.7162,10.3272 L404.7162,10.9072 C401.0442,19.9892 399.2092,25.4972 399.2092,27.4302 L400.0782,28.8792 L406.4552,27.7202 L408.4842,27.7202 C412.9302,29.0722 415.1512,32.9372 415.1512,39.3152 L415.1512,39.6042 L414.5722,44.2432 C412.6402,52.1662 410.1272,56.1282 407.0352,56.1282 L405.0062,56.1282 C403.2672,56.1282 402.3982,55.2582 402.3982,53.5192 L402.3982,53.2292 L404.4272,47.7222 C404.4272,44.2432 402.7832,42.5042 399.4982,42.5042 L398.9192,43.3732 L399.7882,45.1122 C399.7882,45.6922 399.3052,46.6582 398.3392,48.0122 C396.9862,48.0122 396.3102,47.2382 396.3102,45.6922 L397.1802,43.0832 L397.1802,42.7942 L396.0202,41.3442 C396.0202,38.8322 394.5702,36.9962 391.6722,35.8362 L391.3822,35.8362 C389.4492,35.8362 386.8402,39.6042 383.5552,47.1422 C385.1012,51.7792 386.0672,54.0992 386.4542,54.0992 L387.0332,54.0992 L387.6132,53.8092 C389.7392,50.3302 391.3822,48.3012 392.5412,47.7222 L393.7012,47.7222 C394.8602,48.3012 395.4402,49.3642 395.4402,50.9102 L395.4402,52.3592 C394.4742,55.0652 392.4442,57.4802 389.3532,59.6062 L388.4832,59.6062 L384.4252,59.3162 L384.4252,59.8962 L384.7152,61.3462 C386.6482,64.2442 388.4832,65.6942 390.2232,65.6942 L390.2232,65.4042 L390.8022,65.4042 C396.0202,59.9932 398.9192,57.2872 399.4982,57.2872 L399.7882,57.2872 C403.0732,59.4132 405.4892,60.4762 407.0352,60.4762 C411.8662,59.5102 414.9582,58.0612 416.3122,56.1282 C417.6642,56.1282 419.5972,51.4902 422.1092,42.2142 C422.1092,36.9962 418.8232,31.6822 412.2532,26.2702 C408.0012,25.6902 405.8762,24.4352 405.8762,22.5022 L407.9052,9.7472 C407.9052,6.2692 406.5522,4.5292 403.8472,4.5292 L403.8472,4.5292 Z M367.0322,8.0082 C366.4522,8.0082 365.9692,9.8442 365.5832,13.5162 L366.7422,28.0102 C366.7422,30.3292 365.3902,31.5852 362.6842,31.7782 C358.2392,33.7112 355.3412,34.6772 353.9872,34.6772 L351.9582,34.6772 L348.1902,34.0972 L347.9002,34.0972 L347.9002,34.6772 C347.9002,37.9622 350.7022,39.7982 356.3072,40.1852 L358.0462,40.1852 L364.7132,39.3152 L366.1622,40.1852 C366.1622,45.9822 365.0032,50.4272 362.6842,53.5192 C363.6502,60.0902 365.0032,63.3752 366.7422,63.3752 L367.6112,62.7952 C372.0572,58.3512 374.9552,54.0992 376.3092,50.0402 C377.8552,50.0402 379.1102,45.9822 380.0762,37.8652 L380.0762,37.5752 L379.2072,37.5752 C377.8552,41.8272 375.4392,45.3062 371.9602,48.0122 L370.5112,48.0122 L369.6412,47.1422 L369.6412,46.2722 L372.8292,35.2572 C374.9552,31.7782 376.0192,29.2662 376.0192,27.7202 L373.6992,25.9802 C373.1192,23.4682 371.1872,17.4782 367.9012,8.0082 L367.0322,8.0082 Z" id="Fill-53" fill="#FFFFFF" mask="url(#mask-2)"></path>
        </g>
    </g>
</svg>